<svg xmlns="http://www.w3.org/2000/svg" viewBox="0 0 1801.44 552.92"><g id="Layer_2" data-name="Layer 2"><g id="_.start" data-name=".start"><path d="M614.73,310l-27.23.56a295.83,295.83,0,0,0-40.31-143.35l23.32-14.49A324.64,324.64,0,0,1,614.73,310Z" style="fill:#00cfef"/><path d="M301.84,28.09l-.54-28A299.06,299.06,0,0,1,455.76,39.34L442.61,63.88A272.61,272.61,0,0,0,301.84,28.09Z" style="fill:#007596"/><path d="M62.08,177.18A293.61,293.61,0,0,0,27.3,322L.07,322.6a322.08,322.08,0,0,1,38.16-159h0l23.85,13.53Z" style="fill:#00deff"/><path d="M442.61,63.88l13.15-24.54A310,310,0,0,1,570.51,152.76l-23.32,14.49A282.49,282.49,0,0,0,442.61,63.88Z" style="fill:#00bce2"/><path d="M162.53,69.57l-14.08-24A302.41,302.41,0,0,1,301.3.07l.54,28A275.66,275.66,0,0,0,162.53,69.57Z" style="fill:#004264"/><path d="M416.32,113l13.15-24.54a255.13,255.13,0,0,1,94.41,93.31l-23.32,14.5A227.6,227.6,0,0,0,416.32,113Z" style="fill:#007596"/><path d="M302.92,84.14l-.54-28A246,246,0,0,1,429.47,88.43L416.32,113A219.55,219.55,0,0,0,302.92,84.14Z" style="fill:#004264"/><path d="M109.78,204.24,85.93,190.71a255.84,255.84,0,0,1,90.69-97.15l14.08,24A228.35,228.35,0,0,0,109.78,204.24Z" style="fill:#00deff"/><path d="M114.24,436.4,90.92,450.89a267.18,267.18,0,0,1-36.39-129.4l27.24-.56A238.25,238.25,0,0,0,114.24,436.4Z" style="fill:#00bce2"/><path d="M109.78,204.24a236.48,236.48,0,0,0-28,116.69l-27.24.56a265.07,265.07,0,0,1,31.4-130.78h0l23.85,13.53Z" style="fill:#00cfef"/><path d="M453.94,225.22l23.31-14.49A209.57,209.57,0,0,1,505.8,312.27l-27.23.55A180.85,180.85,0,0,0,453.94,225.22Z" style="fill:#007596"/><path d="M157.48,231.29l-23.85-13.53a200.78,200.78,0,0,1,71.16-76.22l14.08,24A173.36,173.36,0,0,0,157.48,231.29Z" style="fill:#00cfef"/><path d="M218.87,165.53l-14.08-24a195.19,195.19,0,0,1,98.67-29.38l.54,28A168.38,168.38,0,0,0,218.87,165.53Z" style="fill:#00deff"/><path d="M157.48,231.29a179.39,179.39,0,0,0-21.25,88.53l-27.23.55a208,208,0,0,1,24.63-102.61h0l23.85,13.53Z" style="fill:#00bce2"/><path d="M390,162.05l13.15-24.54a200.2,200.2,0,0,1,74.07,73.22l-23.31,14.49A172.67,172.67,0,0,0,390,162.05Z" style="fill:#004264"/><text transform="translate(457.34 504.18) rotate(-1)" style="font-size:213.2315216064453px;fill:#fff;stroke:#007596;stroke-miterlimit:10;stroke-width:3px;font-family:Raleway-Bold, Raleway;font-weight:700;letter-spacing:0.21731944282739343em">M<tspan x="230.75" y="3.67" style="letter-spacing:0.2173492116730227em">A</tspan><tspan x="420.36" y="6.85" style="letter-spacing:0.2173492116730227em">E</tspan><tspan x="594.84" y="9.91" style="letter-spacing:0.2173492116730227em">S</tspan><tspan x="771.87" y="13.01" style="letter-spacing:0.2173492116730227em">T</tspan><tspan x="950.17" y="16.21" style="letter-spacing:0.2173492116730227em">R</tspan><tspan x="1138.29" y="19.67" style="letter-spacing:0.2173492116730227em">O</tspan></text><path d="M318.39,307.09l-.17-10.29c.08-2.42.76-5.85,2.35-7.65,10.16-11.51,19-24.9,16.43-47.22-2.41-20.72-18-30.32-33.23-28.56-9.85,1.14-26.92,9.4-31.47,40-1.82,12.19.42,24.35,3,29.42,5.68,11.26,17.18,10.53,17.34,14.65s.39,13.16.39,13.16S301.41,322.57,318.39,307.09Z" style="fill:#5b595a"/><path d="M277.6,372.82c1.78,65.11,8,89.77,8,89.77l22-.12s-1.81-42.36,3-75.53c5.07-34.88,12.46-54.65,28.62-67.63-10.57-2.67-20.91-12.22-20.91-12.22l-2.7,7.54-21.38,4-1.3-8c-6,4.88-13.72,4.63-22,4.49l.59.44C281,322.47,276.52,333.44,277.6,372.82Zm10.66-53c3.11-1.37,8.53,6.33,11.68,7.08,1.42.34,5-2.4,8-4.53,3.89-2.74,7.85-4.71,8.6,1.37,1.1,9-4,16.71-7.25,16.93-2.67.18-6.41-8.49-9.71-8.46-2.87,0-8,11-11.06,6.49S286,320.85,288.26,319.85Z" style="fill:#fff"/><path d="M315.69,314.63l2.7-7.54c-17,15.48-25.38,3.54-25.38,3.54l1.3,8Z" style="fill:#fff"/><path d="M299.62,332.24c3.3,0,7,8.64,9.71,8.46,3.24-.22,8.35-7.93,7.25-16.93-.75-6.08-4.71-4.11-8.6-1.37-3,2.13-6.62,4.87-8,4.53-3.15-.75-8.57-8.45-11.68-7.08-2.29,1-2.74,14.34.3,18.88S296.75,332.27,299.62,332.24Z" style="fill:#5b595a"/><path d="M521.41,225.5a106.68,106.68,0,0,1-4.63,20.73,27.65,27.65,0,0,1-11,14.61c-43.44,28.64-99.71,42.74-131.86,45.68-23.3,2.14-35.44,11.49-42.85,20.85l-.09.1-.09.12a62.62,62.62,0,0,0-7.7,12.06l0,0h0c-5.81,11.71-9.56,26.91-12.52,47.24-4.83,33.17-3,75.53-3,75.53l-22,.12s-6.26-24.66-8-89.77c-1.08-39.38,3.35-50.35-6-57.26l-.59-.44a16.78,16.78,0,0,0-3.6-2.31c-8.06-5.76-20.2-10.27-35.4-26.78-11.7-12.71-32.31-34.83-35.17-90.47-.32-6.27-.5-12.54-.47-18.82,0-3.63.11-7.26.29-10.89l27.78-66.42c.54-1.31,1.09-2.24.27-2.59s-1.15.5-1.68,1.61l-27.68,59.08a7.69,7.69,0,0,0-2.68,1.27c-5.68,3.72-13.6,14.17-16,20.29-3.71,9.48-4.34,17.89-3.93,31.8.92,30.66,10,63.09,32.48,95.61,23.87,34.46,44.08,42.57,49.09,65a35.64,35.64,0,0,0,1.36,4.77c-.21,28.2,5.75,74.66,14.37,146.07h87.57q-1-6.18-2.26-12.77c-8.87-47-10.14-86.78-4.74-122.14,1.17-4.62,3-11.65,5-16,4.34-9.56,10.72-17.69,15.32-21.54,13.36-11.18,37.34-12.73,81.19-28.18,36.18-12.75,56.27-27.5,64.94-35.48a30.83,30.83,0,0,0,10.17-20C531.1,222.18,521.41,225.5,521.41,225.5Z" style="fill:#5b595a"/></g></g></svg>