<svg xmlns="http://www.w3.org/2000/svg" viewBox="0 0 507.38 416.26"><g id="Layer_2" data-name="Layer 2"><g id="Layer_2-2" data-name="Layer 2"><path d="M320.05,306a271.16,271.16,0,0,1,46.62-57.55l112.84,87.68c25.49,20.65,35.9,50,21,68.42h0c-14.9,18.38-45.81,14.29-71.29-6.36Z" style="fill:#3cf"/><path d="M366.67,248.44A237.59,237.59,0,0,0,320.05,306L287.16,275.6a201.75,201.75,0,0,1,43-53Z"/><path d="M330.12,222.58c-17.62,15.78-32.12,33.31-42.88,52.93C187.75,194.91,85.33,112.23,2.41,10.35c-5.44-7.27-1.11-13,7.33-9C129.87,55.8,229.36,140.94,330.12,222.58Z" style="fill:#ccc"/></g></g></svg>