<svg xmlns="http://www.w3.org/2000/svg" xmlns:xlink="http://www.w3.org/1999/xlink" viewBox="0 0 1147.82 1143.89"><defs><radialGradient id="radial-gradient" cx="573.91" cy="575.33" r="568.56" gradientUnits="userSpaceOnUse"><stop offset="0" stop-color="#fff" stop-opacity="0.2"/><stop offset="1" stop-color="#fff" stop-opacity="0"/></radialGradient></defs><g id="Layer_2" data-name="Layer 2"><g id="Layer_1-2" data-name="Layer 1"><circle cx="573.91" cy="575.33" r="568.56" style="fill:url(#radial-gradient)"/><path d="M1147.82,562.58l-50.85,1a525.73,525.73,0,0,0-75.34-260.12l43.53-26.29A576.76,576.76,0,0,1,1147.82,562.58Z" style="fill:#00cfef"/><path d="M563.59,51l-1-50.85A571.17,571.17,0,0,1,851,71.39l-24.56,44.48A520.49,520.49,0,0,0,563.59,51Z" style="fill:#007596"/><path d="M115.92,321.49A520.84,520.84,0,0,0,51,584.36l-50.83,1A571.11,571.11,0,0,1,71.39,297h0l44.48,24.53Z" style="fill:#00deff"/><path d="M826.43,115.92,851,71.44a570.8,570.8,0,0,1,214.24,205.78l-43.6,26.25A520.38,520.38,0,0,0,826.43,115.92Z" style="fill:#00bce2"/><path d="M303.47,126.22,277.15,82.7A576.49,576.49,0,0,1,562.58.17l1,50.85A525.64,525.64,0,0,0,303.47,126.22Z" style="fill:#004264"/><path d="M777.34,205l24.55-44.48A469.87,469.87,0,0,1,978.16,329.83L934.64,356A419.48,419.48,0,0,0,777.34,205Z" style="fill:#007596"/><path d="M565.6,152.67l-1-50.85a470,470,0,0,1,237.29,58.53l-24.55,44.48A419.4,419.4,0,0,0,565.6,152.67Z" style="fill:#004264"/><path d="M205,370.59l-44.48-24.54A470,470,0,0,1,329.83,169.76l26.24,43.46A419.51,419.51,0,0,0,205,370.59Z" style="fill:#00deff"/><path d="M213.29,791.85l-43.53,26.32a474.43,474.43,0,0,1-67.89-234.82l50.85-1A423.12,423.12,0,0,0,213.29,791.85Z" style="fill:#00bce2"/><path d="M205,370.59a419.08,419.08,0,0,0-52.3,211.73l-50.85,1a469.71,469.71,0,0,1,58.53-237.3h0l44.48,24.54Z" style="fill:#00cfef"/><path d="M581.4,895.65l1,50.87a372.45,372.45,0,0,1-186.29-46.06l24.55-44.54A321.19,321.19,0,0,0,581.4,895.65Z" style="fill:#007596"/><path d="M848.64,410.77l43.49-26.26a368.84,368.84,0,0,1,53.36,184.22l-50.85,1A318.17,318.17,0,0,0,848.64,410.77Z" style="fill:#00cfef"/><path d="M894.66,569.72l50.85-1a372,372,0,0,1-46,186.22L855,730.36A321,321,0,0,0,894.66,569.72Z" style="fill:#00deff"/><path d="M848.64,410.77A318.27,318.27,0,0,0,729.44,296L754,251.45A369,369,0,0,1,892.21,384.37h0l-43.48,26.26Z" style="fill:#00bce2"/><path d="M740.33,849.62l26.25,43.51a369,369,0,0,1-184.22,53.35l-1-50.87A317.83,317.83,0,0,0,740.33,849.62Z" style="fill:#004264"/><path d="M603.29,441.68c4.17-7.19,6.23-15.7,28.34-17.66,20.83-1.85,59-9.16,87.14-27.19a17.43,17.43,0,0,0,7.1-9.2,64.73,64.73,0,0,0,3-13s6.28-2.1,3.81,25.66a19.31,19.31,0,0,1-6.58,12.58c-5.62,5-18.63,14.31-42.07,22.33-28.43,9.75-43.94,10.7-52.59,17.75-3.49,2.83-9.24,9.08-10.9,16.85C616.1,490.48,603.29,441.68,603.29,441.68Z" style="fill:#030102"/><path d="M528.62,420.65c-20.9-.64-51.73-3-84.92-23.46-1.16-.71-3.25-2.55-5.39-3.93l-34.72-31a1.34,1.34,0,0,0-1.83,0,1.33,1.33,0,0,0,0,1.88l29.52,32.08a29.94,29.94,0,0,0,.34,5.2c.68,4.87,4.92,10.61,7.93,13.22A112.6,112.6,0,0,0,477,434.81c28.15,8.65,31.83,8.81,54.46,12.08,5.84.81,8.74,5.69,10.07,19.28,2,21.1,13.55-32.79,13.55-32.79C554,424.73,550.8,421.33,528.62,420.65Z" style="fill:#030102"/><path d="M593,422.77l.09-8c.1-1.88.73-4.53,2-5.88,8.35-8.69,15.71-18.88,14.11-36.23-1.49-16.11-13.71-23.88-25.89-22.85-7.88.66-21.67,6.69-26,30.32-1.7,9.41-.17,18.87,1.76,22.86,4.29,8.85,13.47,8.54,13.51,11.73s0,10.21,0,10.21l.87,6.24,17.12-2.65Z" style="fill:#030102"/><path d="M552.69,427.86c7.45.24,14.52,1.18,20-2.9,0,0,6.44,9.44,20.31-2.19,0,0,9.3,8.82,18.3,10.36,0,0-15.06,120.39-16.48,120.35S554,554.64,554,554.64Z" style="fill:#fff"/><path d="M563.55,542.53s-4.47-19.24-4.5-69.73c0-30.53,3.74-38.93-3.54-44.49s-3.53-3.37-12.21,31.61c-4.65,18.73,0,59.67,7.13,134.45,9.32,97.13,10.89,148.93,10.2,173.94-.52,19-20.5,29.08-20.5,29.08s22.89.1,41.82-10.56c0,0,19.35,12.77,42.18,15a58.26,58.26,0,0,1-19.16-39c-2.74-42,4.54-123.89,3.86-135.63a160.38,160.38,0,0,1,8.89,45.09s11.54-24.84.44-91.77c-6.91-41.59-6.18-75.8,1.18-105.74,5.51-22.44,4.35-52.22-9.28-42.54S590,457.13,585.12,484.51c-4.55,25.59-4,58.45-4,58.45Z" style="fill:#030102"/><path d="M577.83,437.74c-2.49-.65-6.64-6.73-9.15-5.75-1.85.73-2.49,11.06-.17,14.64s6.67-4.82,9-4.78c2.63,0,5.42,6.84,7.56,6.76,2.59-.1,6.83-6,6.14-13-.47-4.72-3.67-3.28-6.82-1.25C581.9,436,579,438.08,577.83,437.74Z" style="fill:#030102"/></g></g></svg>