<svg xmlns="http://www.w3.org/2000/svg" xmlns:xlink="http://www.w3.org/1999/xlink" viewBox="0 0 1143.62 1142.94"><defs><radialGradient id="radial-gradient" cx="568.56" cy="574.38" r="568.56" gradientUnits="userSpaceOnUse"><stop offset="0" stop-color="#fff" stop-opacity="0.2"/><stop offset="1" stop-color="#fff" stop-opacity="0"/></radialGradient></defs><g id="Layer_2" data-name="Layer 2"><g id="Layer_1-2" data-name="Layer 1"><circle cx="568.56" cy="574.38" r="568.56" style="fill:url(#radial-gradient)"/><path d="M866.55,1065l-26.29-43.53a525.93,525.93,0,0,0,187.6-195.31l44.53,24.55A576.81,576.81,0,0,1,866.55,1065Z" style="fill:#00cfef"/><path d="M1017.5,303.27,1061,277a571,571,0,0,1,82.48,285.4l-50.8,1A520.37,520.37,0,0,0,1017.5,303.27Z" style="fill:#007596"/><path d="M559.39,50.83A520.82,520.82,0,0,0,299.26,126L273,82.49A570.92,570.92,0,0,1,558.38,0h0l1,50.79Z" style="fill:#00deff"/><path d="M1092.68,563.36l50.8-1a570.93,570.93,0,0,1-71.09,288.43l-44.53-24.63A520.41,520.41,0,0,0,1092.68,563.36Z" style="fill:#00bce2"/><path d="M822.28,115.62l24.53-44.55A576.6,576.6,0,0,1,1061,277l-43.54,26.3A525.53,525.53,0,0,0,822.28,115.62Z" style="fill:#004264"/><path d="M349.54,213,323.3,169.52a469.89,469.89,0,0,1,234.78-68l.92,50.79A419.41,419.41,0,0,0,349.54,213Z" style="fill:#007596"/><path d="M198.38,370.25,153.84,345.7A469.89,469.89,0,0,1,323.18,169.45L349.42,213A419.35,419.35,0,0,0,198.38,370.25Z" style="fill:#004264"/><path d="M206.78,791.52l-43.49,26.25A470.14,470.14,0,0,1,95.29,583L146,582A419.72,419.72,0,0,0,206.78,791.52Z" style="fill:#00deff"/><path d="M575.77,995l1,50.85a474.35,474.35,0,0,1-237.3-58.61L364,942.64A423.13,423.13,0,0,0,575.77,995Z" style="fill:#00bce2"/><path d="M206.78,791.52A419.11,419.11,0,0,0,364,942.68l-24.53,44.55A469.64,469.64,0,0,1,163.22,817.9h0l43.49-26.26Z" style="fill:#00cfef"/><path d="M294.9,741l-43.54,26.31A372.29,372.29,0,0,1,198.1,583L249,582A321.06,321.06,0,0,0,294.9,741Z" style="fill:#007596"/><path d="M848.44,730l44.48,24.53A368.73,368.73,0,0,1,760.06,892.88l-26.31-43.52A318.23,318.23,0,0,0,848.44,730Z" style="fill:#00cfef"/><path d="M733.8,849.36l26.31,43.52a371.9,371.9,0,0,1-184.25,53.3l-1-50.82A321.25,321.25,0,0,0,733.8,849.36Z" style="fill:#00deff"/><path d="M848.44,730a318.44,318.44,0,0,0,39.8-160.63l50.85-1a369,369,0,0,1-46,186.17h0L848.61,730Z" style="fill:#00bce2"/><path d="M414.23,855.65l-24.56,44.48A368.78,368.78,0,0,1,251.36,767.27L294.9,741A317.79,317.79,0,0,0,414.23,855.65Z" style="fill:#004264"/><path d="M587.9,421.38l.09-8c.1-1.88.73-4.53,2-5.88,8.35-8.69,15.71-18.88,14.11-36.23-1.49-16.11-13.71-23.88-25.89-22.85-7.88.66-21.67,6.69-26,30.32-1.7,9.41-.17,18.87,1.76,22.86,4.29,8.85,13.47,8.54,13.51,11.73s0,10.21,0,10.21l.87,6.24,17.12-2.65Z" style="fill:#030102"/><path d="M547.62,426.47c7.45.24,14.52,1.18,20-2.9,0,0,6.44,9.44,20.31-2.19,0,0,9.3,8.82,18.3,10.36,0,0-15.06,120.39-16.48,120.35s-40.87,1.16-40.87,1.16Z" style="fill:#fff"/><path d="M558.48,541.14S554,521.9,554,471.41c0-30.53,3.74-38.93-3.54-44.49s-3.53-3.37-12.21,31.61c-4.65,18.73,0,59.67,7.13,134.45,9.32,97.13,10.89,148.93,10.2,173.94-.52,19-20.5,29.08-20.5,29.08s22.89.1,41.82-10.56c0,0,19.35,12.77,42.18,15a58.32,58.32,0,0,1-19.16-39c-2.74-42,4.54-123.89,3.86-135.63a160,160,0,0,1,8.89,45.09s11.54-24.84.44-91.77c-6.91-41.59-6.18-75.8,1.18-105.74,5.51-22.44,4.35-52.22-9.28-42.54s-20.07,24.89-24.94,52.27c-4.55,25.59-4,58.45-4,58.45Z" style="fill:#030102"/><path d="M572.76,436.35c-2.49-.65-6.64-6.73-9.15-5.75-1.85.73-2.49,11.06-.17,14.64s6.67-4.82,9-4.78c2.63,0,5.42,6.84,7.56,6.76,2.59-.1,6.83-6,6.14-13-.47-4.72-3.67-3.28-6.82-1.25C576.83,434.6,573.89,436.69,572.76,436.35Z" style="fill:#030102"/><circle cx="613.99" cy="449.67" r="2.5" style="fill:#e856a6"/><circle cx="539.07" cy="445.61" r="2.5" style="fill:#e856a6"/><path d="M526.58,440.35c-13.08,20.17-20.74,32.66-27.44,35.76s-29.71-10.51-37.38-18.41h0c-1-2.13-3.63-4.32-6.74-5.72L431.89,406.8a1.66,1.66,0,0,0-3,1.37L445.72,451c-2.53.87-4.52,3-5.12,7.06-1.43,9.63,4.49,14.52,10.84,17-.14.2-.27.41-.42.61a2.79,2.79,0,0,0-.14,3.08c5.09,8.12,21.32,17.7,32.35,22.17,15,6.1,36.14,8.83,56.47-38.09l11.78-34.94C548.48,423.11,539.66,420.18,526.58,440.35Z" style="fill:#030102"/><path d="M700,451.78c-4.47,8.13-3.43,15.66-9.94,22.31-15,9.87-27.26,17.18-31,14.38-5.9-4.45-14.12-23.71-25.87-44.68S608.26,427.54,603.68,432l8.69,49.63c3.42-12.5,6.78-9.22,8.11-6,16,38.3,35,40.34,48.91,34.79,10.2-4.07,26.16-14.85,32.24-23.06,9.71-12.85,5.88-22.19,6.42-33.18a9.23,9.23,0,0,0-1-4.73C705.22,445.84,702.57,447.09,700,451.78Z" style="fill:#030102"/></g></g></svg>