<svg xmlns="http://www.w3.org/2000/svg" xmlns:xlink="http://www.w3.org/1999/xlink" viewBox="0 0 1143.67 1143.17"><defs><radialGradient id="radial-gradient" cx="568.56" cy="568.56" r="568.56" gradientUnits="userSpaceOnUse"><stop offset="0" stop-color="#fff" stop-opacity="0.2"/><stop offset="1" stop-color="#fff" stop-opacity="0"/></radialGradient></defs><g id="Layer_2" data-name="Layer 2"><g id="Layer_1-2" data-name="Layer 1"><circle cx="568.56" cy="568.56" r="568.56" style="fill:url(#radial-gradient)"/><path d="M292.64,1072l24.56-44.54a525.74,525.74,0,0,0,262.94,64.82l1,50.84A576.74,576.74,0,0,1,292.64,1072Z" style="fill:#00cfef"/><path d="M1027.82,821.8l44.54,24.55a571,571,0,0,1-205.91,214.14L840.2,1017A520.36,520.36,0,0,0,1027.82,821.8Z" style="fill:#007596"/><path d="M1017.38,298.84A520.8,520.8,0,0,0,822.22,111.15l24.54-44.52A571.05,571.05,0,0,1,1060.9,272.55h0l-43.49,26.25Z" style="fill:#00deff"/><path d="M840.16,1017l26.25,43.51a570.92,570.92,0,0,1-285.34,82.65l-.93-50.88A520.45,520.45,0,0,0,840.16,1017Z" style="fill:#00bce2"/><path d="M1092.72,558.9l50.85-1a576.48,576.48,0,0,1-71.25,288.45l-44.54-24.55A525.47,525.47,0,0,0,1092.72,558.9Z" style="fill:#004264"/><path d="M146.11,577.57l-50.8,1a469.91,469.91,0,0,1,58.52-237.32l44.45,24.59A419.48,419.48,0,0,0,146.11,577.57Z" style="fill:#007596"/><path d="M206.69,787.08l-43.54,26.3a470,470,0,0,1-68-234.77l50.8-1A419.34,419.34,0,0,0,206.69,787.08Z" style="fill:#004264"/><path d="M575.72,990.44l1,50.79a470,470,0,0,1-237.33-58.5l24.5-44.46A419.57,419.57,0,0,0,575.72,990.44Z" style="fill:#00deff"/><path d="M936.39,772.61l44.55,24.53A474.4,474.4,0,0,1,811.53,973.35l-26.32-43.52A423.22,423.22,0,0,0,936.39,772.61Z" style="fill:#00bce2"/><path d="M575.72,990.44a419,419,0,0,0,209.52-60.57l26.31,43.52a469.6,469.6,0,0,1-234.77,68h0l-1-50.79Z" style="fill:#00cfef"/><path d="M287.41,414.89l-44.56-24.55A372.47,372.47,0,0,1,375.88,252l26.3,43.53A321.15,321.15,0,0,0,287.41,414.89Z" style="fill:#007596"/><path d="M573.71,888.77l1,50.79a368.72,368.72,0,0,1-186.21-45.91L413,849.11A318.28,318.28,0,0,0,573.71,888.77Z" style="fill:#00cfef"/><path d="M413,849.15,388.51,893.7A372.09,372.09,0,0,1,250.22,760.79l43.51-26.29A321.23,321.23,0,0,0,413,849.15Z" style="fill:#00deff"/><path d="M573.71,888.77a318.37,318.37,0,0,0,159-45.85L759,886.46A369.11,369.11,0,0,1,574.78,939.7h0l-1-50.79Z" style="fill:#00bce2"/><path d="M247.81,575.54l-50.8,1a368.84,368.84,0,0,1,45.9-186.21l44.56,24.56A317.71,317.71,0,0,0,247.81,575.54Z" style="fill:#004264"/><path d="M597.94,434.92c4.17-7.2,6.24-15.7,28.34-17.67,20.83-1.85,59-9.15,87.14-27.18a17.47,17.47,0,0,0,7.1-9.2,65,65,0,0,0,3-13.05s6.28-2.09,3.81,25.67a19.33,19.33,0,0,1-6.58,12.58c-5.62,5-18.63,14.3-42.07,22.33-28.43,9.74-43.94,10.7-52.59,17.74-3.49,2.84-9.24,9.08-10.9,16.85C610.75,483.72,597.94,434.92,597.94,434.92Z" style="fill:#030102"/><path d="M523.28,413.88c-20.91-.64-51.74-3-84.92-23.45-1.17-.72-3.26-2.56-5.4-3.94l-34.72-31a1.34,1.34,0,0,0-1.83,0,1.33,1.33,0,0,0,0,1.88l29.52,32.08a29.88,29.88,0,0,0,.34,5.2c.68,4.88,4.92,10.62,7.93,13.23a113,113,0,0,0,37.46,20.13c28.15,8.65,31.83,8.8,54.47,12.08,5.84.81,8.73,5.68,10.06,19.28,2,21.1,13.55-32.79,13.55-32.79C548.66,418,545.46,414.57,523.28,413.88Z" style="fill:#030102"/><path d="M587.62,416l.09-8c.1-1.88.73-4.53,2-5.88,8.35-8.69,15.71-18.88,14.11-36.23-1.49-16.11-13.71-23.88-25.89-22.85-7.88.66-21.67,6.69-26,30.32-1.7,9.41-.17,18.87,1.76,22.86,4.29,8.85,13.47,8.54,13.51,11.73s0,10.21,0,10.21l.87,6.24,17.12-2.65Z" style="fill:#030102"/><path d="M547.34,421.1c7.45.24,14.52,1.18,20-2.9,0,0,6.44,9.44,20.31-2.19,0,0,9.3,8.82,18.3,10.36,0,0-15.06,120.39-16.48,120.35s-40.87,1.16-40.87,1.16Z" style="fill:#fff"/><path d="M558.2,535.77s-4.47-19.24-4.5-69.73c0-30.53,3.74-38.93-3.54-44.49s-3.53-3.37-12.21,31.61c-4.65,18.73,0,59.67,7.13,134.45,9.32,97.13,10.89,148.93,10.2,173.94-.52,19-20.5,29.08-20.5,29.08s22.89.1,41.82-10.56c0,0,19.35,12.77,42.18,15a58.28,58.28,0,0,1-19.16-39c-2.74-42,4.54-123.89,3.86-135.63a160.31,160.31,0,0,1,8.89,45.09s11.54-24.84.44-91.77C605.9,532.17,606.63,498,614,468c5.51-22.44,4.35-52.22-9.28-42.54s-20.07,24.89-24.94,52.27c-4.55,25.59-4,58.45-4,58.45Z" style="fill:#030102"/><path d="M572.48,431c-2.49-.65-6.64-6.73-9.15-5.75-1.85.73-2.49,11.06-.17,14.64s6.67-4.82,9-4.78c2.63,0,5.42,6.84,7.56,6.76,2.59-.1,6.83-6,6.14-13-.47-4.72-3.67-3.28-6.82-1.25C576.55,429.23,573.61,431.32,572.48,431Z" style="fill:#030102"/></g></g></svg>