<svg xmlns="http://www.w3.org/2000/svg" xmlns:xlink="http://www.w3.org/1999/xlink" viewBox="0 0 1147.82 1143.89"><defs><radialGradient id="radial-gradient" cx="573.91" cy="568.56" r="568.56" gradientUnits="userSpaceOnUse"><stop offset="0" stop-color="#fff" stop-opacity="0.2"/><stop offset="1" stop-color="#fff" stop-opacity="0"/></radialGradient></defs><g id="Layer_2" data-name="Layer 2"><g id="Layer_1-2" data-name="Layer 1"><circle cx="573.91" cy="568.56" r="568.56" style="fill:url(#radial-gradient)"/><path d="M0,581.3l50.85-1a525.83,525.83,0,0,0,75.34,260.12L82.67,866.71A576.78,576.78,0,0,1,0,581.3Z" style="fill:#00cfef"/><path d="M584.23,1092.91l1,50.85a571.06,571.06,0,0,1-288.41-71.26L321.39,1028A520.4,520.4,0,0,0,584.23,1092.91Z" style="fill:#007596"/><path d="M1031.9,822.4a520.77,520.77,0,0,0,65-262.87l50.83-1a571,571,0,0,1-71.27,288.4h0L1032,822.4Z" style="fill:#00deff"/><path d="M321.39,1028l-24.56,44.48A570.77,570.77,0,0,1,82.6,866.67l43.59-26.25A520.38,520.38,0,0,0,321.39,1028Z" style="fill:#00bce2"/><path d="M844.36,1017.67l26.31,43.52a576.49,576.49,0,0,1-285.43,82.53l-1-50.85A525.7,525.7,0,0,0,844.36,1017.67Z" style="fill:#004264"/><path d="M370.49,938.91,345.93,983.4A469.87,469.87,0,0,1,169.66,814.06l43.52-26.2A419.36,419.36,0,0,0,370.49,938.91Z" style="fill:#007596"/><path d="M582.22,991.21l1,50.85a470,470,0,0,1-237.29-58.52l24.56-44.49A419.26,419.26,0,0,0,582.22,991.21Z" style="fill:#004264"/><path d="M942.85,773.3l44.48,24.54A470,470,0,0,1,818,974.12l-26.24-43.45A419.58,419.58,0,0,0,942.85,773.3Z" style="fill:#00deff"/><path d="M934.54,352l43.52-26.32A474.33,474.33,0,0,1,1046,560.54l-50.85,1A423.11,423.11,0,0,0,934.54,352Z" style="fill:#00bce2"/><path d="M942.85,773.3a419.08,419.08,0,0,0,52.3-211.73l50.85-1a469.71,469.71,0,0,1-58.53,237.3h0L943,773.3Z" style="fill:#00cfef"/><path d="M566.42,248.24l-1-50.87a372.52,372.52,0,0,1,186.3,46.06L727.14,288A321.06,321.06,0,0,0,566.42,248.24Z" style="fill:#007596"/><path d="M299.18,733.12l-43.49,26.26a368.84,368.84,0,0,1-53.36-184.22l50.85-1A318.17,318.17,0,0,0,299.18,733.12Z" style="fill:#00cfef"/><path d="M253.16,574.17l-50.85,1a372,372,0,0,1,46-186.22l44.52,24.54A321.1,321.1,0,0,0,253.16,574.17Z" style="fill:#00deff"/><path d="M299.18,733.12A318.35,318.35,0,0,0,418.38,847.9l-24.55,44.54A369,369,0,0,1,255.61,759.52h0l43.49-26.26Z" style="fill:#00bce2"/><path d="M407.49,294.27l-26.24-43.51a368.89,368.89,0,0,1,184.21-53.35l1,50.87A317.63,317.63,0,0,0,407.49,294.27Z" style="fill:#004264"/><path d="M600.48,435.69c11.87-16.47,25.7-19.68,38.38-30.48,9.28-7.9,25.84-18.67,33.25-56.73,4.27-21.92,4.56-28,4.62-32.1a1.29,1.29,0,0,1,2.28-.78c1,1.16,2.32,3.93,2.83,9a7.18,7.18,0,0,0,1.52,4.19c2.85,3.09,9.16,10.77,4,35.46-4.53,21.56-15.12,40.37-29.78,56.07-22,23.5-32.87,24.32-42.26,47.31S600.48,435.69,600.48,435.69Z" style="fill:#030102"/><path d="M523.74,397.77c-8.38-8.84-23.14-24.24-25.18-63-.24-4.35-.36-8.73-.34-13.09,0-2.54.09-5.07.22-7.6l20.7-46a1.48,1.48,0,0,0-2.64-1.34h0L486.88,318.5a27.56,27.56,0,0,0-2.77,4.86c-2.69,6.6-3.1,12.45-2.81,22.13.66,21.33,7.13,43.9,23.26,66.53,17.06,24,31.56,29.62,35.14,45.24,5.48,24.15,13.56-37.05,13.56-37.05C548,413.5,537.69,412.49,523.74,397.77Z" style="fill:#030102"/><path d="M592.83,415.66l.09-8c.1-1.88.73-4.53,2-5.88,8.35-8.69,15.71-18.88,14.11-36.23-1.49-16.11-13.71-23.88-25.89-22.85-7.88.66-21.67,6.69-26,30.32-1.7,9.41-.17,18.87,1.76,22.86,4.29,8.85,13.47,8.54,13.51,11.73s0,10.21,0,10.21l.87,6.24,17.12-2.65Z" style="fill:#030102"/><path d="M552.55,420.75c7.45.24,14.52,1.18,20-2.9,0,0,6.44,9.44,20.31-2.19,0,0,9.3,8.82,18.3,10.36,0,0-15.06,120.39-16.48,120.35s-40.87,1.16-40.87,1.16Z" style="fill:#fff"/><path d="M563.41,535.42s-4.47-19.24-4.5-69.73c0-30.53,3.74-38.93-3.54-44.49s-3.53-3.37-12.21,31.61c-4.65,18.73,0,59.67,7.13,134.45,9.32,97.13,10.89,148.93,10.2,173.94-.52,19-20.5,29.08-20.5,29.08s22.89.1,41.82-10.56c0,0,19.35,12.77,42.18,15a58.28,58.28,0,0,1-19.16-39c-2.74-42,4.54-123.89,3.86-135.63a160.66,160.66,0,0,1,8.89,45.09s11.54-24.84.44-91.77c-6.91-41.59-6.18-75.8,1.18-105.74,5.51-22.44,4.35-52.22-9.28-42.54S589.85,450,585,477.4c-4.55,25.59-4,58.45-4,58.45Z" style="fill:#030102"/><path d="M577.69,430.63c-2.49-.65-6.64-6.73-9.15-5.75-1.85.73-2.49,11.06-.17,14.64s6.67-4.82,9-4.78c2.63,0,5.42,6.84,7.56,6.76,2.59-.1,6.83-6,6.14-13-.47-4.72-3.67-3.28-6.82-1.25C581.76,428.88,578.82,431,577.69,430.63Z" style="fill:#030102"/></g></g></svg>