<svg xmlns="http://www.w3.org/2000/svg" xmlns:xlink="http://www.w3.org/1999/xlink" viewBox="0 0 1143.62 1142.94"><defs><radialGradient id="radial-gradient" cx="575.05" cy="568.56" r="568.56" gradientUnits="userSpaceOnUse"><stop offset="0" stop-color="#fff" stop-opacity="0.2"/><stop offset="1" stop-color="#fff" stop-opacity="0"/></radialGradient></defs><g id="Layer_2" data-name="Layer 2"><g id="Layer_1-2" data-name="Layer 1"><circle cx="575.05" cy="568.56" r="568.56" style="fill:url(#radial-gradient)"/><path d="M277.06,77.91l26.3,43.54a525.93,525.93,0,0,0-187.61,195.3L71.22,292.21A576.76,576.76,0,0,1,277.06,77.91Z" style="fill:#00cfef"/><path d="M126.11,839.68,82.58,866A571,571,0,0,1,.09,580.57l50.8-1A520.43,520.43,0,0,0,126.11,839.68Z" style="fill:#007596"/><path d="M584.22,1092.11a520.69,520.69,0,0,0,260.13-75.17l26.29,43.52a571,571,0,0,1-285.4,82.48h0l-1-50.79Z" style="fill:#00deff"/><path d="M50.93,579.58l-50.8,1a570.86,570.86,0,0,1,71.1-288.43l44.52,24.63A520.53,520.53,0,0,0,50.93,579.58Z" style="fill:#00bce2"/><path d="M321.34,1027.33l-24.54,44.55A576.52,576.52,0,0,1,82.62,866l43.53-26.3A525.66,525.66,0,0,0,321.34,1027.33Z" style="fill:#004264"/><path d="M794.08,929.91l26.24,43.51a469.78,469.78,0,0,1-234.78,68l-.93-50.79A419.45,419.45,0,0,0,794.08,929.91Z" style="fill:#007596"/><path d="M945.24,772.69l44.54,24.56A470.08,470.08,0,0,1,820.44,973.49L794.2,930A419.43,419.43,0,0,0,945.24,772.69Z" style="fill:#004264"/><path d="M936.83,351.42l43.49-26.25a470,470,0,0,1,68,234.79l-50.75,1A419.62,419.62,0,0,0,936.83,351.42Z" style="fill:#00deff"/><path d="M567.85,148l-1-50.85a474.39,474.39,0,0,1,237.31,58.61L779.59,200.3A423.17,423.17,0,0,0,567.85,148Z" style="fill:#00bce2"/><path d="M936.83,351.42A419.08,419.08,0,0,0,779.62,200.26l24.53-44.55A469.64,469.64,0,0,1,980.39,325.05h0L936.9,351.3Z" style="fill:#00cfef"/><path d="M848.71,401.91l43.55-26.31A372.53,372.53,0,0,1,945.52,560l-50.85,1A321.07,321.07,0,0,0,848.71,401.91Z" style="fill:#007596"/><path d="M295.17,412.92l-44.48-24.54A368.71,368.71,0,0,1,383.55,250.07l26.32,43.52A318.19,318.19,0,0,0,295.17,412.92Z" style="fill:#00cfef"/><path d="M409.82,293.59l-26.31-43.52a371.88,371.88,0,0,1,184.24-53.31l1,50.82A321.09,321.09,0,0,0,409.82,293.59Z" style="fill:#00deff"/><path d="M295.17,412.92a318.41,318.41,0,0,0-39.8,160.62l-50.84,1a369,369,0,0,1,46-186.17h0L295,412.92Z" style="fill:#00bce2"/><path d="M729.39,287.29l24.55-44.48A368.88,368.88,0,0,1,892.26,375.67L848.71,402A317.76,317.76,0,0,0,729.39,287.29Z" style="fill:#004264"/><path d="M604.43,434.92c4.17-7.2,6.24-15.7,28.34-17.67,20.84-1.85,59-9.15,87.14-27.18a17.47,17.47,0,0,0,7.1-9.2,65.69,65.69,0,0,0,3-13.05s6.27-2.09,3.81,25.67a19.39,19.39,0,0,1-6.59,12.58c-5.62,5-18.63,14.3-42.07,22.33-28.43,9.74-43.94,10.7-52.59,17.74-3.49,2.84-9.24,9.08-10.9,16.85C617.25,483.72,604.43,434.92,604.43,434.92Z" style="fill:#030102"/><path d="M529.77,413.88c-20.91-.64-51.74-3-84.92-23.45-1.17-.72-3.26-2.56-5.39-3.94l-34.73-31a1.33,1.33,0,0,0-1.87,1.88l29.52,32.08a30.91,30.91,0,0,0,.34,5.2c.68,4.88,4.92,10.62,7.94,13.23a113,113,0,0,0,37.45,20.13c28.15,8.65,31.83,8.8,54.47,12.08,5.84.81,8.74,5.68,10.06,19.28,2.05,21.1,13.56-32.79,13.56-32.79C555.16,418,552,414.57,529.77,413.88Z" style="fill:#030102"/><path d="M594.11,416l.09-8c.1-1.88.73-4.53,2-5.88,8.35-8.69,15.71-18.88,14.11-36.23-1.49-16.11-13.71-23.88-25.89-22.85-7.88.66-21.67,6.69-26,30.32-1.7,9.41-.17,18.87,1.76,22.86,4.29,8.85,13.47,8.54,13.51,11.73s0,10.21,0,10.21l.87,6.24,17.12-2.65Z" style="fill:#030102"/><path d="M553.83,421.1c7.45.24,14.52,1.18,20-2.9,0,0,6.44,9.44,20.31-2.19,0,0,9.3,8.82,18.3,10.36,0,0-15.06,120.39-16.48,120.35s-40.87,1.16-40.87,1.16Z" style="fill:#fff"/><path d="M564.69,535.77s-4.47-19.24-4.5-69.73c0-30.53,3.74-38.93-3.54-44.49s-3.53-3.37-12.21,31.61c-4.65,18.73,0,59.67,7.13,134.45,9.32,97.13,10.89,148.93,10.2,173.94-.52,19-20.5,29.08-20.5,29.08s22.89.1,41.82-10.56c0,0,19.35,12.77,42.18,15a58.32,58.32,0,0,1-19.16-39c-2.74-42,4.54-123.89,3.86-135.63a160.31,160.31,0,0,1,8.89,45.09s11.54-24.84.44-91.77c-6.91-41.59-6.18-75.8,1.18-105.74,5.51-22.44,4.35-52.22-9.28-42.54s-20.07,24.89-24.94,52.27c-4.55,25.59-4,58.45-4,58.45Z" style="fill:#030102"/><path d="M579,431c-2.49-.65-6.64-6.73-9.15-5.75-1.85.73-2.49,11.06-.17,14.64s6.67-4.82,9-4.78c2.63,0,5.42,6.84,7.56,6.76,2.59-.1,6.83-6,6.14-13-.47-4.72-3.67-3.28-6.82-1.25C583,429.23,580.1,431.32,579,431Z" style="fill:#030102"/></g></g></svg>