<svg xmlns="http://www.w3.org/2000/svg" xmlns:xlink="http://www.w3.org/1999/xlink" viewBox="0 0 1143.67 1143.17"><defs><radialGradient id="radial-gradient" cx="575.11" cy="574.61" r="568.56" gradientUnits="userSpaceOnUse"><stop offset="0" stop-color="#fff" stop-opacity="0.2"/><stop offset="1" stop-color="#fff" stop-opacity="0"/></radialGradient></defs><g id="Layer_2" data-name="Layer 2"><g id="Layer_1-2" data-name="Layer 1"><circle cx="575.11" cy="574.61" r="568.56" style="fill:url(#radial-gradient)"/><path d="M851,71.22l-24.56,44.54A525.87,525.87,0,0,0,563.53,50.94L562.52.1A576.74,576.74,0,0,1,851,71.22Z" style="fill:#00cfef"/><path d="M115.85,321.37,71.3,296.82A571.05,571.05,0,0,1,277.22,82.68l26.25,43.51A520.36,520.36,0,0,0,115.85,321.37Z" style="fill:#007596"/><path d="M126.28,844.33A520.82,520.82,0,0,0,321.45,1032l-24.54,44.52A571,571,0,0,1,82.77,870.62h0l43.49-26.25Z" style="fill:#00deff"/><path d="M303.51,126.22,277.26,82.71A570.92,570.92,0,0,1,562.6.06l.93,50.88A520.45,520.45,0,0,0,303.51,126.22Z" style="fill:#00bce2"/><path d="M51,584.27l-50.85,1A576.48,576.48,0,0,1,71.35,296.84l44.54,24.55A525.47,525.47,0,0,0,51,584.27Z" style="fill:#004264"/><path d="M997.55,565.6l50.81-1A469.88,469.88,0,0,1,989.84,802l-44.45-24.59A419.37,419.37,0,0,0,997.55,565.6Z" style="fill:#007596"/><path d="M937,356.09l43.54-26.3a470,470,0,0,1,68,234.77l-50.8,1A419.34,419.34,0,0,0,937,356.09Z" style="fill:#004264"/><path d="M568,152.73l-1-50.79a469.93,469.93,0,0,1,237.33,58.51l-24.5,44.45A419.57,419.57,0,0,0,568,152.73Z" style="fill:#00deff"/><path d="M207.28,370.56,162.73,346A474.4,474.4,0,0,1,332.14,169.82l26.32,43.52A423.22,423.22,0,0,0,207.28,370.56Z" style="fill:#00bce2"/><path d="M568,152.73A419.12,419.12,0,0,0,358.43,213.3l-26.31-43.52a469.6,469.6,0,0,1,234.77-68h0l1,50.79Z" style="fill:#00cfef"/><path d="M856.26,728.28l44.56,24.55a372.39,372.39,0,0,1-133,138.31l-26.3-43.53A321.08,321.08,0,0,0,856.26,728.28Z" style="fill:#007596"/><path d="M570,254.4l-1-50.79a368.72,368.72,0,0,1,186.21,45.91l-24.53,44.55A318.19,318.19,0,0,0,570,254.4Z" style="fill:#00cfef"/><path d="M730.63,294l24.53-44.55a372,372,0,0,1,138.29,132.9l-43.51,26.29A321.13,321.13,0,0,0,730.63,294Z" style="fill:#00deff"/><path d="M570,254.4a318.37,318.37,0,0,0-159,45.85l-26.3-43.54a369.11,369.11,0,0,1,184.23-53.24h0l1,50.79Z" style="fill:#00bce2"/><path d="M895.86,567.63l50.8-1a368.84,368.84,0,0,1-45.9,186.21L856.2,728.32A317.77,317.77,0,0,0,895.86,567.63Z" style="fill:#004264"/><path d="M594.45,421.6l.09-8c.1-1.88.73-4.53,2-5.88,8.35-8.69,15.71-18.88,14.11-36.23-1.49-16.11-13.71-23.88-25.89-22.85-7.88.66-21.67,6.69-26,30.32-1.7,9.41-.17,18.87,1.76,22.86,4.29,8.85,13.47,8.54,13.51,11.73s0,10.21,0,10.21l.87,6.24L592,427.35Z" style="fill:#030102"/><path d="M554.17,426.69c7.45.24,14.52,1.18,20-2.9,0,0,6.44,9.44,20.31-2.19,0,0,9.3,8.82,18.3,10.36,0,0-15.06,120.39-16.48,120.35s-40.87,1.16-40.87,1.16Z" style="fill:#fff"/><path d="M565,541.36s-4.47-19.24-4.5-69.73c0-30.53,3.74-38.93-3.54-44.49s-3.53-3.37-12.21,31.61c-4.65,18.73,0,59.67,7.13,134.45,9.32,97.13,10.89,148.93,10.2,173.94-.52,19-20.5,29.08-20.5,29.08s22.89.1,41.82-10.56c0,0,19.35,12.77,42.18,15a58.24,58.24,0,0,1-19.16-39c-2.74-42,4.54-123.89,3.86-135.63a160.45,160.45,0,0,1,8.89,45.09s11.54-24.84.44-91.77c-6.91-41.59-6.18-75.8,1.18-105.74,5.51-22.44,4.35-52.22-9.28-42.54S591.47,456,586.6,483.34c-4.55,25.59-4,58.45-4,58.45Z" style="fill:#030102"/><path d="M579.31,436.57c-2.49-.65-6.64-6.73-9.15-5.75-1.85.73-2.49,11.06-.17,14.64s6.67-4.82,9-4.78c2.63,0,5.42,6.84,7.56,6.76,2.59-.1,6.83-6,6.14-13-.47-4.72-3.67-3.28-6.82-1.25C583.38,434.82,580.44,436.91,579.31,436.57Z" style="fill:#030102"/><circle cx="620.54" cy="449.89" r="2.5" style="fill:#e856a6"/><circle cx="545.62" cy="445.83" r="2.5" style="fill:#e856a6"/><path d="M533.13,440.57c-13.08,20.17-20.74,32.66-27.44,35.76s-29.72-10.5-37.38-18.4v0c-1-2.12-3.64-4.31-6.74-5.71L438.44,407a1.66,1.66,0,0,0-3,1.37l16.84,42.79c-2.54.86-4.52,3-5.12,7.05-1.43,9.64,4.48,14.52,10.84,17l-.42.61a2.77,2.77,0,0,0-.14,3.08c5.09,8.12,21.32,17.7,32.35,22.17,15,6.1,36.14,8.83,56.47-38.09L558,428.06C555,423.33,546.21,420.4,533.13,440.57Z" style="fill:#030102"/><path d="M706.51,452c-4.47,8.13-3.43,15.66-9.94,22.31-15,9.87-27.26,17.18-31,14.38-5.9-4.45-14.12-23.71-25.87-44.68s-24.89-16.25-29.47-11.78l8.69,49.63c3.42-12.5,6.78-9.22,8.11-6,16,38.3,35,40.34,48.91,34.79,10.2-4.07,26.16-14.85,32.24-23.06,9.71-12.85,5.88-22.19,6.42-33.18a9.38,9.38,0,0,0-1-4.73C711.77,446.06,709.12,447.31,706.51,452Z" style="fill:#030102"/></g></g></svg>