<svg xmlns="http://www.w3.org/2000/svg" viewBox="0 0 800 533"><g id="Layer_2" data-name="Layer 2"><rect width="800" height="533" style="fill:#050203"/><text transform="translate(229.98 297.03)" style="font-size:94.70947265625px;fill:none;stroke:#aa002d;stroke-miterlimit:10;stroke-width:5px;font-family:EthnocentricRg-Regular, Ethnocentric">Ares</text><path d="M608.89,409.62c.71-5.45,1.61-12.72,2.17-18.18l-.16.19-.13,0c-.59,5.51-1.41,12.86-2.16,18.36l.11,0a76.13,76.13,0,0,1,7.59,2.11l.05-.17.11-.14c-2.24-.75-5.27-1.65-7.58-2.16Z" style="fill:#aa002d;opacity:0.1"/><path d="M624.06,374.54l0,0a58.78,58.78,0,0,1,7.54,5.55c-1.55,5.77-3.66,13.46-5.48,19.16q-4.64,6.28-9.63,12.51,5-6.22,9.64-12.53c1.75-5.72,4-13.37,5.49-19.16a64.71,64.71,0,0,0-7.54-5.55Z" style="fill:#aa002d;opacity:0.1"/><path d="M641.39,365.59v0a47.21,47.21,0,0,1,1.06,9.32c-2.43,6-5.74,13.9-8.53,19.7q-3,4.74-6.55,9.81a15,15,0,0,0-1.1-5.28c1.76-5.72,4-13.38,5.52-19.17l-.12.17-.06-.07c-1.55,5.77-3.67,13.47-5.49,19.16l.09-.13a15.1,15.1,0,0,1,1.14,5.4l-.1.19q3.54-5.06,6.53-9.78l0-.1c2.73-5.91,6.27-13.85,8.64-19.92a46.22,46.22,0,0,0-1.06-9.32Z" style="fill:#aa002d;opacity:0.2"/><path d="M641.56,365.16c1.55-7.16,3.54-16.74,4.77-24l0,0c-1.32,7.3-3.17,17-4.83,24.23l-.09.15a46.55,46.55,0,0,1,1.06,9.32l.09-.25.08-.13c-.09-2.83-1-6.54-1.06-9.37Z" style="fill:#aa002d;opacity:0.2"/><path d="M654.47,326.47v0a95.55,95.55,0,0,1,1.34,12.95c-2,7.3-4.76,17-7.16,24.19q-2.67,5.22-6,10.9,3.36-5.68,6-10.91c2.29-7.21,5.25-16.87,7.16-24.19a93.65,93.65,0,0,0-1.35-13Z" style="fill:#aa002d;opacity:0.2"/><path d="M654.6,326c1-8.17,2.14-19.07,2.72-27.27v0c-.68,8.29-1.69,19.33-2.76,27.58l-.08.14a95.71,95.71,0,0,1,1.35,13l.07-.3L656,339c-.18-3.91-1.18-9.07-1.35-13Z" style="fill:#aa002d"/><path d="M663.22,284.57h0a154.5,154.5,0,0,1,2,16c-1.22,8.2-2.95,19.13-4.6,27.25-1.26,3.5-2.81,7.22-4.63,11.13q2.73-5.87,4.64-11.14c1.54-8.15,3.48-19,4.59-27.25a151.17,151.17,0,0,0-2-16Z" style="fill:#aa002d"/><path d="M660.49,328.36q-1.89,5.24-4.62,11.09c-2,7.3-4.78,17-7.19,24.2-.88,2.74-1.92,6.45-3,9.11,2.18-5,5-11.67,7-16.73,1.51-4.41,3.62-10.25,5-14.71.92-3.87,2.25-9,2.86-13Zm0-.2c-.8,3.95-1.78,9.25-2.88,13.14-1.49,4.42-3.37,10.36-5,14.73-2,5.06-4.79,11.77-7,16.75.94-2.77,2.37-6.42,3.06-9.27l-.05.11c2.29-7.21,5.25-16.87,7.16-24.19l.07-.3q2.77-6,4.7-11.28l-.07.31Z" style="fill:#aa002d;opacity:0.2"/><path d="M665.19,300.8v-.2c-1.22,8.2-2.94,19.13-4.59,27.25l-.07.31c-.8,3.95-1.78,9.25-2.88,13.14l.14-.47c.91-3.86,2.23-9,2.83-12.92,1.54-8.14,3.5-19,4.61-27.24l0,.13Z" style="fill:#aa002d"/><path d="M667.63,290.24h0l-.52,6v0l.52-5.93Z" style="fill:#aa002d"/><path d="M665.8,242.25v0c1.06,5.54,2.34,13,2.86,18.59-.12,8.66-.38,20.2-1,28.84a75.8,75.8,0,0,1-2.41,10.44,154.93,154.93,0,0,0-2-16.07c0-8.74,0-20.39-.42-29.12h0c.29,8.84.56,20.63.41,29.47l0,.14a154.48,154.48,0,0,1,2,16v.2l0-.13a75.57,75.57,0,0,0,2.41-10.42h0l0-.22c.48-8.75,1-20.42,1-29.17-.66-5.61-1.66-13.08-2.85-18.6Z" style="fill:#aa002d"/><path d="M668.67,261.08l0-.23c-.12,8.75-.4,20.43-1,29.17l0,.22-.52,5.93.07-.61.5-5.77c.47-8.64,1-20.17,1-28.83v.12Z" style="fill:#aa002d"/><path d="M668.65,260.39c-.66-5.61-1.66-13.09-2.87-18.62-1.16-8.88-2.82-20.72-4.47-29.53h0c1.54,8.94,3.46,20.88,4.51,29.88l0,.12c1.05,5.55,2.33,13,2.85,18.6l0,.23V261c.07-1.21.08-2.38.05-3.51l0-.67c0,1.16,0,2.36-.05,3.61Z" style="fill:#aa002d"/><path d="M660.57,201.51l.09.33,0,.11,1,3.78-.18-.76-.91-3.46Z" style="fill:#aa002d"/><path d="M657.24,298.9a114.75,114.75,0,0,0-7.46-12.54v0a114.14,114.14,0,0,1,7.4,12.39c-.67,8.19-1.65,19.12-2.7,27.27q-3.62,7.06-8.16,14.74a79.36,79.36,0,0,0-7.3-9.23c.37-8.18.79-19.09.85-27.27v0c-.15,8.18-.4,19.1-.86,27.27a75.36,75.36,0,0,1,7.37,9.35l-.05.29,0,0q4.53-7.65,8.14-14.7v0l.08-.14c1-8.26,2.17-19.29,2.76-27.58l-.07.15Z" style="fill:#aa002d"/><path d="M639,331.57a77.5,77.5,0,0,1,7.37,9.35l-.05.29c-1.24,7.31-3.25,17-4.83,24.23l-.09.15v0q-4.39,6.94-9.6,14.38l-.12.17-.06-.07a59.49,59.49,0,0,0-7.54-5.55l-.12-.06c.86-7.15,1.74-16.73,2.37-23.91l.13.07.16-.22c-.57,7.11-1.57,16.57-2.36,23.66a65,65,0,0,1,7.54,5.59q5.22-7.44,9.63-14.43c1.63-7.14,3.43-16.75,4.74-24a75.19,75.19,0,0,0-7.31-9.19l.13-.21,0-.31Z" style="fill:#aa002d;opacity:0.1"/><path d="M662.82,255.1a161.89,161.89,0,0,0-7.9-15.19v0a160.74,160.74,0,0,1,7.83,15c.29,8.73.58,20.39.44,29.13q-2.43,6.69-5.9,14.17a118.42,118.42,0,0,0-7.4-12.41c-.42-8.81-1.07-20.55-1.87-29.32v0c.71,8.89,1.55,20.74,1.87,29.65l-.09.18a114.11,114.11,0,0,1,7.46,12.54l.07-.15v0q3.48-7.47,5.89-14.15h0l0-.14c0-8.84,0-20.64-.41-29.47l0,.14Z" style="fill:#aa002d"/><path d="M661.31,212.37c-2.37-5.29-5.68-12.3-8.59-17.32v0c2.74,5,6.29,11.82,8.51,17.1,1.52,8.84,3.44,20.64,4.48,29.55a92.61,92.61,0,0,1-2.94,12.7,162.57,162.57,0,0,0-7.83-15c-1.5-9-3.6-21-5.54-29.91v0c1.84,9.05,4.19,21.14,5.59,30.26l-.06.17a162,162,0,0,1,7.9,15.19l0-.14h0a93.27,93.27,0,0,0,2.92-12.68v0l0-.12c-1.17-9-2.85-21-4.51-29.88v.12Z" style="fill:#aa002d"/><path d="M660.53,201.38a40.23,40.23,0,0,1,.63,10.31c-2.36-5.24-5.63-12.17-8.51-17.14-2.81-8.8-6.67-20.5-10-29.12v0c3.2,8.77,7.35,20.52,10,29.46l0,.14c2.78,5.09,6.35,12,8.59,17.32v-.12h0a40.07,40.07,0,0,0-.63-10.29l0-.11-.09-.33c-2.1-7-4.81-16.43-7.25-23.35l-1.08-2.91c2.62,7.8,6.36,18.14,8.29,26.13Z" style="fill:#aa002d"/><path d="M641.81,153.63l.15.33,0,.12c2.91,5.39,6.71,12.64,9.13,18.28l-.31-.78c-2.54-5.47-6-12.73-9-18Z" style="fill:#aa002d"/><path d="M647.92,256.71c-3.88-3.63-9.16-8.37-13.38-11.59v0c4.1,3.29,9.51,7.76,13.24,11.45.7,8.78,1.56,20.51,1.88,29.32q-4.38,8.58-9.92,17.93c-3.87-2.81-9.12-6.44-13.24-8.84-.84-8.88-2-20.71-3.21-29.55v0c1.09,8.95,2.47,20.9,3.23,29.88l-.14.22c4.11,2.52,9.55,6,13.37,8.92l.12-.2v0q5.52-9.33,9.91-17.9v0l.09-.18c-.41-8.9-1.07-20.77-1.87-29.65l-.08.18Z" style="fill:#aa002d"/><path d="M649.34,209.64c-4-4.26-9.36-9.84-13.71-13.69v0c4.22,3.9,9.77,9.21,13.58,13.51,1.82,8.94,4.16,20.9,5.55,29.92q-2.84,7.84-6.91,16.61c-3.84-3.6-9.06-8.29-13.24-11.48-1.83-9.11-4.36-21.25-6.59-30.27v0c2.14,9.15,4.91,21.38,6.65,30.62l-.11.2c4.14,3.32,9.6,7.85,13.38,11.59l.08-.18v0c2.71-5.83,5-11.37,6.9-16.58v0l.06-.17c-1.51-9.11-3.63-21.24-5.59-30.26l0,.16Z" style="fill:#aa002d"/><path d="M642.68,165.58c-4.12-4.73-9.73-10.93-14.28-15.24h0c4.39,4.37,10.17,10.29,14.13,15.05,3.17,8.68,7.29,20.29,10,29.13a106.14,106.14,0,0,1-3.32,14.41c-3.93-4.21-9.27-9.73-13.58-13.54-3.06-8.93-7.25-20.81-10.77-29.58v0c3.44,8.92,7.91,20.85,10.88,29.93l-.07.18c4.26,4,9.87,9.33,13.71,13.69l0-.16v0a106.25,106.25,0,0,0,3.32-14.39v0l0-.14c-2.82-8.9-6.73-20.74-10-29.46v.13Z" style="fill:#aa002d"/><path d="M623.14,265.7c-5.65-2.63-13.22-6-19-8.32l0,0c5.7,2.34,13.28,5.52,18.82,8.22,1.09,8.85,2.46,20.66,3.22,29.54q-6.57,10.41-14.36,21.53c-5.71-1.82-13.34-4.18-19.1-5.78-1.24-8.95-2.94-20.88-4.41-29.79l-.2.28-.26-.07c1.42,9,3.27,21.07,4.46,30.13l.24.06c5.76,1.65,13.42,3.88,19.1,5.76l.21.07.18-.26q7.79-11.09,14.35-21.49v0l.14-.22c-.84-9-2.06-20.94-3.23-29.88l-.13.22Z" style="fill:#aa002d;opacity:0.2"/><path d="M627.9,214.49c-5.62-3.25-13.2-7.48-19-10.33l0,0c5.73,2.92,13.34,6.89,18.85,10.21,2.13,9.05,4.88,21.14,6.6,30.28q-5,9.72-11.26,20.33c-5.58-2.61-13.08-6-18.81-8.25-2.1-9.25-5-21.57-7.46-30.73l0,0c2.4,9.29,5.51,21.71,7.53,31.09l-.15.24c5.76,2.36,13.42,5.59,19,8.32l.13-.22v0q6.27-10.58,11.25-20.31v0l.11-.2c-1.84-9.22-4.4-21.5-6.65-30.62l-.1.19Z" style="fill:#aa002d;opacity:0.4"/><path d="M624.77,166c-5.72-3.69-13.42-8.49-19.39-11.74v0c5.85,3.32,13.61,7.84,19.19,11.6,3.4,8.81,7.83,20.6,10.77,29.58-2.08,5.75-4.62,11.87-7.62,18.3-5.57-3.21-13.06-7.39-18.84-10.22-3.28-9.08-7.77-21.16-11.49-30.08v0c3.65,9.06,8.4,21.2,11.6,30.43l-.11.22c5.79,3,13.48,7,19,10.33l.1-.19v0q4.49-9.65,7.61-18.29v0l.07-.18c-3.09-9-7.32-21.06-10.88-29.93l-.05.18Z" style="fill:#aa002d"/><path d="M611.8,109.94l.21.3,0,.12c4.59,4.69,10.64,11,14.78,16.12,4.65,8,10.74,18.77,14.88,27.06a44.13,44.13,0,0,1,.7,11.36c-4.08-4.66-9.63-10.8-14.13-15.06-4.47-8.37-10.54-19.48-15.49-27.57h0c4.88,8.27,11.27,19.37,15.64,27.91l0,.15c4.45,4.41,10.28,10.41,14.28,15.24v-.15a44.93,44.93,0,0,0-.7-11.35l0-.12-.15-.33c-4.33-8.31-10.24-19.33-15.08-27.36-4.3-5-10.18-11.7-14.93-16.33Z" style="fill:#aa002d"/><path d="M571.19,72.77l.28.25,0,.12c6,3.51,14,8.3,19.66,12.32,6.32,7.18,14.64,16.85,20.48,24.43a46.9,46.9,0,0,1,.74,11.91c-5.81-3.91-13.64-9-19.74-12.45-6-7.43-14-17.26-20.4-24.32v0c6.28,7.16,14.56,16.8,20.4,24.32,6.09,3.61,14.16,8.52,19.94,12.6l.21.31h0a46.9,46.9,0,0,0-.74-11.91l0-.12-.21-.3c-6-7.56-14.22-17.55-20.73-24.7-5.84-3.93-13.72-9.06-19.88-12.47Z" style="fill:#aa002d"/><path d="M592.63,109.37l.23.31,0,.17c6,3.56,14,8.41,19.73,12.43,4.82,8.17,11.16,19.14,15.49,27.58a113.82,113.82,0,0,1-3.57,15.48c-5.66-3.64-13.29-8.39-19.2-11.61-4.65-8.52-11-19.82-16.11-28v0c5.06,8.41,11.7,19.7,16.27,28.39l-.06.19c5.91,3.36,13.75,7.94,19.39,11.74l.05-.18v0a113.36,113.36,0,0,0,3.57-15.47h0l0-.15c-4.5-8.48-10.64-19.72-15.64-27.91l-.21-.31c-5.86-4-13.78-9.11-19.94-12.6Z" style="fill:#aa002d"/><path d="M596.6,226.29c-7.25-2.39-16.93-5.49-24.26-7.6l0,0c7.23,2.15,16.86,5.07,24,7.5,2.37,9.19,5.46,21.47,7.47,30.74Q596.55,268.44,588,280.7c-7.23-1.8-16.87-4.15-24.13-5.8-2.33-9.42-5.5-22-8.1-31.31l0,0c2.56,9.47,5.9,22.12,8.18,31.66l-.19.26c7.25,1.69,16.91,4,24.13,5.79l.26.07.2-.28q8.6-12.24,15.83-23.72l0,0,.15-.24c-2.11-9.36-5-21.83-7.53-31.09l-.14.24Z" style="fill:#aa002d;opacity:0.2"/><path d="M597.27,173.72c-7.28-2.78-17-6.38-24.43-8.82l0,0c7.3,2.49,17,5.87,24.18,8.7,3.6,9,8.32,21,11.49,30.09q-5.36,10.46-12.1,21.84c-7.17-2.36-16.75-5.43-24-7.51-3.43-9.29-8.1-21.65-11.94-30.77l0,0c3.78,9.28,8.71,21.69,12.06,31.13l-.15.25c7.31,2.17,17,5.13,24.26,7.6l.14-.24,0,0q6.74-11.37,12.08-21.84l0,0,.11-.22c-3.31-9.19-7.84-21.41-11.6-30.43l-.1.21Z" style="fill:#aa002d;opacity:0.4"/><path d="M589.11,125.88c-7.21-2.84-16.89-6.51-24.27-8.89v0c7.26,2.47,16.92,5.85,24,8.77,5,8.31,11.59,19.47,16.11,28.06q-3.27,9.06-8,19.19c-7.21-2.74-16.86-6.31-24.18-8.72-4.63-8.53-10.9-19.85-15.93-28.15l0,0c5,8.46,11.53,19.81,16.11,28.49l-.11.22c7.37,2.52,17.19,5.95,24.43,8.82l.1-.21v0q4.71-10.11,8-19.18v0l.06-.19c-4.69-8.62-11.09-20.05-16.27-28.39l-.06.18Z" style="fill:#aa002d;opacity:0.4"/><path d="M555.51,243.89l.18-.26c2.56,9.47,5.9,22.12,8.18,31.66l-.19.26,0,0q-9.3,12.6-19.28,25.06l0,0-.21.26-28.3-5.47-.34-.07c-2.69-9.48-6.34-22.11-9.25-31.52l-.11-.37q10.33-12.88,20-26l.12.37c8.78,1.77,20.49,4.14,29.26,6ZM526.58,238q-9.51,12.9-19.73,25.65c2.82,9.33,6.53,21.78,9.13,31.17,8.4,1.62,19.6,3.78,28,5.42q10-12.45,19.29-25.08c-2.33-9.42-5.5-22-8.11-31.31-8.57-1.78-20-4.13-28.58-5.85Zm28.93,5.89.18-.26c2.56,9.47,5.9,22.12,8.18,31.66l-.19.26,0,0q-9.3,12.6-19.28,25.06l0,0-.21.26-28.3-5.47-.34-.07c-2.69-9.48-6.34-22.11-9.25-31.52l-.11-.37q10.33-12.88,20-26l.12.37c8.78,1.77,20.49,4.14,29.26,6Z" style="fill:#aa002d;opacity:0.01"/><path d="M560.29,187.55c-8.51-2-19.87-4.56-28.44-6.25l0,0c8.46,1.74,19.73,4.13,28.12,6.17,3.73,9.17,8.62,21.45,11.94,30.78q-7.59,12-16.6,24.88c-8.57-1.79-20-4.15-28.59-5.87-3.35-9.37-7.86-21.85-11.44-31.13l-.21.3-.36-.06c3.52,9.31,8.15,21.74,11.44,31.13l.12.37c8.78,1.77,20.49,4.14,29.26,6l.18-.26,0,0q9-12.83,16.6-24.87l0,0,.15-.25c-3.45-9.4-8.18-21.9-12.06-31.13l-.14.24Z" style="fill:#aa002d;opacity:0.1"/><path d="M556.75,136.4c-8.26-1.84-19.3-4.21-27.62-5.72l0,0c8.22,1.57,19.17,3.74,27.32,5.65,4.92,8.36,11.39,19.56,15.92,28.15Q566.88,175.2,560,186.84c-8.41-2-19.65-4.5-28.12-6.16-4.3-8.54-10.12-19.88-14.8-28.21l-.15.27-.35-.05c4.63,8.49,10.7,19.86,15,28.55l.34.06c8.56,1.76,19.95,4.18,28.44,6.25l.14-.24,0,0q6.9-11.64,12.37-22.35l0,0,.11-.22c-4.68-8.63-11-20.09-16.11-28.49l-.09.21Z" style="fill:#aa002d;opacity:0.1"/><path d="M481.28,103.85v0c8.67.65,20.23,1.57,28.88,2.46,5.67,7.09,13.15,16.63,18.43,24q-5.33,10.41-12,21.75c-8.91-1.16-20.8-2.67-29.74-3.64-4.87-7.42-11.45-17.26-16.7-24.41l0,0c5.22,7.31,12.07,17.14,16.89,24.71l-.15.23c8.93,1,20.84,2.44,29.74,3.67l.35.05.15-.27q6.72-11.34,12.05-21.77l0,0-.33-.06c-5.44-7.41-12.79-17.22-18.64-24.31-8.66-.83-20.2-1.88-28.88-2.46Z" style="fill:#aa002d;opacity:0.1"/><path d="M572.22,85.18c-7-2.63-16.43-6-23.61-8.15h0c7.06,2.24,16.45,5.33,23.34,8,6.29,7.16,14.56,16.8,20.41,24.32a116.43,116.43,0,0,1-3.66,15.83c-7.14-2.79-16.71-6.41-24-8.76-5.75-7.33-13.5-17-19.65-24v0c6.12,7.16,14.17,16.81,19.87,24.31l-.07.19c7.34,2.49,17.1,5.93,24.27,8.89l.06-.18v0a116.77,116.77,0,0,0,3.66-15.83l0-.17-.23-.31c-6-7.43-14-17.27-20.4-24.32v.13Z" style="fill:#aa002d"/><path d="M524.18,45.91l.3.18,0,.12c6.78,2,15.8,4.68,22.43,7.14C554.29,59,564,66.65,571,72.77a46.69,46.69,0,0,1,.73,11.88c-6.94-2.58-16.24-5.92-23.33-8-6.82-5.9-16-13.67-23.18-19.11v0c7.17,5.63,16.64,13.26,23.43,19.35l0,.15c7.14,2.26,16.64,5.4,23.61,8.15V85a46.78,46.78,0,0,0-.74-11.89l0-.12-.28-.25c-7.15-6.07-16.8-14-24.34-19.63-6.73-2.36-15.77-5.37-22.67-7.23Z" style="fill:#aa002d"/><path d="M545,92.66c-8-1.57-18.73-3.57-26.81-4.77v0c8,1.28,18.6,3.06,26.51,4.7,6.05,7.08,14,16.6,19.63,24q-3.27,9-8,19.15c-8.17-1.81-19.07-4.15-27.3-5.63-5.39-7.32-12.67-17-18.46-24l-.1.22-.33,0c5.75,7.17,13.3,16.83,18.64,24.31l.33.06c8.31,1.59,19.38,3.79,27.62,5.72l.09-.21,0,0q4.7-10.09,8-19.15v0l.07-.19c-5.8-7.42-13.65-17.24-19.87-24.31l0,.17Z" style="fill:#aa002d;opacity:0.4"/><path d="M525.2,57.65c-7.74-1.21-18.07-2.73-25.85-3.55v0c7.68.9,17.93,2.19,25.55,3.49,7.09,5.57,16.45,13.11,23.17,19.11a112.77,112.77,0,0,1-3.57,15.42c-7.92-1.55-18.51-3.51-26.5-4.69-6.45-5.87-15.14-13.6-22-19v0c6.8,5.61,15.78,13.23,22.21,19.27l-.07.18C526.25,89.18,537,91,545,92.66l0-.17v0A114.27,114.27,0,0,0,548.61,77h0l0-.15c-6.88-6-16.17-13.84-23.43-19.35v.12Z" style="fill:#aa002d"/><path d="M473.1,29.78l.32.11,0,.11c7.3.5,17,1.26,24.31,2.19,7.95,3.94,18.51,9.32,26.19,13.77a44.05,44.05,0,0,1,.69,11.29c-7.64-1.19-17.85-2.68-25.54-3.48-7.4-4.26-17.35-9.83-25-13.57v0c7.69,3.92,17.89,9.3,25.3,13.74l0,.14c7.77.91,18.13,2.23,25.85,3.55v-.14a44.13,44.13,0,0,0-.69-11.3l0-.12-.3-.18c-7.84-4.37-18.39-10.07-26.51-13.91-7.35-.83-17.18-1.83-24.57-2.22Z" style="fill:#aa002d;opacity:0.1"/><path d="M496,68.6c-8.48-.4-19.78-.85-28.27-1v0c8.38.18,19.56.47,27.94.93,6.72,5.55,15.6,13.07,21.95,19q-3.11,8.58-7.57,18.19c-8.66-.82-20.2-1.86-28.87-2.44-5.95-5.93-14-13.75-20.3-19.27l-.09.2h-.34c6.29,5.7,14.59,13.42,20.5,19.52l.34,0c8.67.64,20.23,1.56,28.88,2.46l.33,0,.1-.22q4.47-9.6,7.58-18.21v0l.07-.18c-6.52-5.94-15.32-13.77-22.21-19.27l-.05.16Z" style="fill:#aa002d;opacity:0.4"/><path d="M474.06,40.33c-8.13.11-19,.35-27.11.78h0c8-.35,18.76-.75,26.8-.78,7.6,3.88,17.69,9.18,25,13.57a106.21,106.21,0,0,1-3.3,14.28c-8.38-.38-19.55-.81-27.94-.91-6.93-4.27-16.25-9.85-23.47-13.61v0c7.24,3.94,16.82,9.34,23.74,13.79l-.06.16c8.49.18,19.8.49,28.27,1l.05-.16v0a105.05,105.05,0,0,0,3.31-14.3v0l0-.14c-7.48-4.32-17.54-10-25.3-13.74v.11Z" style="fill:#aa002d;opacity:0.1"/><path d="M419.85,24.33l.32.05,0,.09c7.58-.89,17.7-2,25.31-2.53,8.26,2.17,19.24,5.2,27.33,7.93a40.21,40.21,0,0,1,.63,10.19c-8,.12-18.76.36-26.78.8-7.72-2.53-18.07-5.77-25.95-7.73v0c7.93,2.13,18.48,5.13,26.24,7.84l0,.12c8.13-.36,19-.75,27.11-.78V40.2a40.32,40.32,0,0,0-.63-10.2l0-.11-.32-.11c-8.24-2.62-19.27-6-27.67-8-7.68.63-17.93,1.57-25.58,2.56Z" style="fill:#aa002d;opacity:0.1"/><path d="M420.72,33.24c-8.23,1.37-19.2,3.25-27.38,4.88h0c8.1-1.54,18.92-3.55,27.06-4.83,7.84,2.11,18.27,5.06,25.93,7.73a91.94,91.94,0,0,1-2.89,12.53c-8.51.7-19.84,1.69-28.33,2.61-7.17-2.55-16.79-5.82-24.14-7.78h0c7.39,2.15,17.22,5.16,24.42,7.9l-.05.14c8.59-.87,20.05-2,28.66-2.61l0-.14v0A92.3,92.3,0,0,0,447,41.12h0l0-.12c-7.81-2.57-18.27-5.86-26.24-7.84v.09Z" style="fill:#aa002d;opacity:0.1"/><path d="M626.07,399.52q-4.62,6.27-9.58,12.46c-1.33,3.87-3.14,9-4.72,12.81l1.2.7c0,.17-.08.39-.11.55.74-.92,1.48-1.86,2.2-2.79,1.32-1.74,3.09-4,4.38-5.8,2.41-3.75,5.61-8.77,7.73-12.7a14.78,14.78,0,0,0-1.1-5.23Zm.13-.4a15.1,15.1,0,0,1,1.14,5.4l-.1.19c-2.21,3.8-5.14,8.9-7.64,12.52-1.59,2.11-3.7,4.94-5.32,7l-.55.71-1,1.29-.13-.85-.95-.37h0c1.52-3.84,3.46-9,4.73-12.93l.05-.17q5-6.29,9.75-12.67l.09-.13Z" style="fill:#aa002d;opacity:0.1"/><path d="M648.52,364.05q-2.65,5.19-6,10.84c-2.43,6-5.76,13.91-8.57,19.72l-1.46,3.14c5.59-9.74,7.28-12.78,13-24.67.92-2.7,2.33-6.26,3-9Zm.19-.54c-.89,2.79-1.94,6.56-3.06,9.27-5.13,10.6-6.35,13.12-13.33,25.24l1.45-3.09,0-.1c2.73-5.91,6.27-13.85,8.64-19.92l.09-.25c2.27-3.83,4.31-7.52,6.12-11l.05-.11Z" style="fill:#aa002d;opacity:0.2"/><path d="M340.42,45.2h0c7.89-2.69,18.41-6.23,26.37-8.69,7.79.27,18.19.77,25.93,1.64a73.75,73.75,0,0,1-2.36,10.22c-8.32,1.71-19.41,4-27.69,5.93-7.17-.71-16.77-1.52-24-1.6l0,.09-.31.1c7.29.25,17,.76,24.24,1.65l.31-.07c8.4-1.86,19.6-4.29,28-6l0-.12h0a75.82,75.82,0,0,0,2.37-10.26h0l-.32.07c-7.85-.74-18.35-1.56-26.23-1.68-7.94,2.52-18.5,5.94-26.37,8.69Z" style="fill:#aa002d;opacity:0.05"/><path d="M366.36,29.53l.31,0v.07c7.6-2.23,17.74-5.13,25.42-7.07,8.25.38,19.26,1,27.47,1.95a34,34,0,0,1,.54,8.65c-8.14,1.36-19,3.24-27.06,4.86-7.76-.72-18.15-1.53-25.95-1.64v.09l-.31.09c7.88.27,18.4.79,26.23,1.68l.32-.07c8.2-1.56,19.14-3.58,27.38-4.88v-.11a34,34,0,0,0-.54-8.66l0-.09-.32-.05c-8.32-.81-19.45-1.74-27.81-1.95-7.74,2-18,4.82-25.68,7.15Z" style="fill:#aa002d;opacity:0.05"/><polygon points="649.39 209.48 652.61 194.12 666.49 216.17 667.8 234.38 662.87 254.95 654.91 239.93 649.39 209.48" style="fill:#aa002d;opacity:0.5"/><polygon points="654.91 239.93 647.92 256.71 649.87 286.18 657.28 298.24 663.22 284.57 662.87 254.95 654.91 239.93" style="fill:#aa002d;opacity:0.30000000000000004"/><polygon points="571.71 84.65 548.07 76.72 525.2 57.66 524.66 47.02 542.04 50.63 571.2 72.77 571.71 84.65" style="fill:#aa002d;opacity:0.30000000000000004"/><polygon points="627.85 149.1 624.7 164.6 635.25 196.36 649.6 208.88 656.58 189.32 638.87 154.96 627.85 149.1" style="fill:#aa002d"/><polygon points="635.25 196.36 627.9 214.5 608.97 203.94 597.37 173.51 604.95 153.84 625.2 166.1 635.25 196.36" style="fill:#aa002d;opacity:0.1"/><polygon points="571.71 84.65 592.63 109.37 589.17 125.68 564.7 116.48 544.5 92.14 548.22 76.97 571.71 84.65" style="fill:#aa002d;opacity:0.2"/><polygon points="657.31 298.75 654.47 326.49 646.56 341.53 638.69 331.66 639.67 304.16 649.65 285.91 657.31 298.75" style="fill:#aa002d;opacity:0.1"/><polygon points="611.78 316.7 612.75 344.87 596.93 366.11 577.72 361.71 574.05 334.47 592.68 310.92 611.78 316.7" style="fill:#aa002d;opacity:0.02"/><polygon points="366.91 29.51 366.72 36.09 393.34 38.13 420.61 33.36 419.6 24.6 392.15 22.38 366.91 29.51" style="fill:#aa002d;opacity:0.05"/><polygon points="627.9 214.5 634.97 245 623.26 265.33 603.75 257.03 596.29 225.63 608.97 203.94 627.9 214.5" style="fill:#aa002d;opacity:0.06"/><polygon points="480.7 103.58 470.1 124.05 487.12 149.3 516.09 152.04 528.58 130.35 510.16 106.31 480.7 103.58" style="fill:#aa002d;opacity:0.05"/><path d="M596,174.23a1.46,1.46,0,1,0-.08-2.06A1.45,1.45,0,0,0,596,174.23Z" style="fill:#aa002d"/><path d="M627,215a1.46,1.46,0,0,0,2-2.14,1.46,1.46,0,1,0-2,2.14Z" style="fill:#aa002d"/><path d="M486.3,149.57a1.05,1.05,0,1,0,1.43-1.54,1,1,0,0,0-1.48.05A1.06,1.06,0,0,0,486.3,149.57Z" style="fill:#aa002d"/><path d="M528,131.6a1.55,1.55,0,1,0-.09-2.2A1.55,1.55,0,0,0,528,131.6Z" style="fill:#aa002d"/><path d="M509.44,106.94a1.49,1.49,0,1,0-.07-2.1A1.49,1.49,0,0,0,509.44,106.94Z" style="fill:#aa002d"/><path d="M517.1,88.62a1,1,0,0,0,1.48-.05A1.05,1.05,0,1,0,517,87.14,1,1,0,0,0,517.1,88.62Z" style="fill:#aa002d"/><path d="M543.36,93.42a1.67,1.67,0,0,0,2.35-.09,1.66,1.66,0,0,0-2.44-2.26A1.67,1.67,0,0,0,543.36,93.42Z" style="fill:#aa002d"/><path d="M591.44,111.17a2.13,2.13,0,1,0-.12-3A2.13,2.13,0,0,0,591.44,111.17Z" style="fill:#aa002d"/><path d="M570,85.86a2.13,2.13,0,1,0-.11-3A2.13,2.13,0,0,0,570,85.86Z" style="fill:#aa002d"/><path d="M563.79,117.66a1.44,1.44,0,1,0-.08-2A1.43,1.43,0,0,0,563.79,117.66Z" style="fill:#aa002d"/><path d="M555.46,136.9a1.46,1.46,0,0,0,2-2.15,1.48,1.48,0,0,0-2.07.08A1.46,1.46,0,0,0,555.46,136.9Z" style="fill:#aa002d"/><path d="M168.23,249.55h0l.52-6v0l-.52,5.94Z" style="fill:#aa002d"/><path d="M170.06,297.54v0c-1.06-5.54-2.34-13-2.86-18.59.12-8.66.38-20.2,1-28.84a76.25,76.25,0,0,1,2.41-10.45,152.14,152.14,0,0,0,2,16.08c0,8.74,0,20.39.42,29.12h0c-.29-8.84-.56-20.63-.41-29.47l0-.14a154.48,154.48,0,0,1-2-16V239l0,.13a75.57,75.57,0,0,0-2.41,10.42h0l0,.22c-.48,8.74-1,20.42-1,29.17.66,5.61,1.66,13.08,2.85,18.6Z" style="fill:#aa002d"/><path d="M167.19,278.71l0,.23c.12-8.75.4-20.43,1-29.17l0-.22.52-5.94-.07.62-.5,5.77c-.47,8.64-1,20.17-1,28.83v-.12Z" style="fill:#aa002d"/><path d="M167.21,279.4c.66,5.61,1.67,13.09,2.87,18.61,1.16,8.89,2.82,20.73,4.47,29.54v0c-1.54-8.93-3.46-20.87-4.5-29.87v-.12c-1.05-5.55-2.33-13-2.85-18.6l0-.23v.12c-.07,1.21-.08,2.38-.05,3.51l0,.67c0-1.16,0-2.36.05-3.61Z" style="fill:#aa002d"/><path d="M175.29,338.28l-.09-.33,0-.11-1-3.78.18.76.91,3.46Z" style="fill:#aa002d"/><path d="M173,284.68a160.83,160.83,0,0,0,7.9,15.2v0a162,162,0,0,1-7.83-15c-.29-8.73-.58-20.39-.44-29.13q2.43-6.69,5.9-14.17A116.8,116.8,0,0,0,186,254c.41,8.81,1.06,20.54,1.86,29.32v0c-.7-8.89-1.55-20.75-1.87-29.65l.09-.18a115,115,0,0,1-7.46-12.54l-.07.15v0c-2.32,5-4.28,9.7-5.89,14.15h0l0,.14c0,8.84,0,20.64.41,29.47l0-.15Z" style="fill:#aa002d"/><path d="M174.55,327.42c2.37,5.29,5.68,12.3,8.59,17.32v0c-2.74-5-6.29-11.82-8.51-17.11-1.52-8.83-3.44-20.63-4.48-29.54a92.27,92.27,0,0,1,2.94-12.7,162.57,162.57,0,0,0,7.83,15.05c1.5,9,3.61,21,5.55,29.91v0c-1.84-9.05-4.19-21.14-5.59-30.26l.06-.17a160.92,160.92,0,0,1-7.9-15.2l0,.15h0a91.92,91.92,0,0,0-2.93,12.68v.14c1.16,9,2.84,21,4.5,29.87v-.11Z" style="fill:#aa002d"/><path d="M175.33,338.41a40.23,40.23,0,0,1-.63-10.31c2.36,5.24,5.63,12.17,8.51,17.14,2.81,8.8,6.67,20.49,10,29.12v0c-3.2-8.77-7.35-20.52-10-29.46l0-.14c-2.78-5.09-6.35-12-8.59-17.32v.13a40.07,40.07,0,0,0,.63,10.29l0,.11.09.33c2.1,7,4.81,16.43,7.25,23.35l1.08,2.91c-2.62-7.8-6.36-18.14-8.29-26.13Z" style="fill:#aa002d"/><path d="M194.05,386.16l-.15-.33,0-.12c-2.92-5.39-6.72-12.64-9.14-18.28l.31.78c2.54,5.46,6,12.73,9,18Z" style="fill:#aa002d"/><path d="M193.18,374.21c4.12,4.73,9.74,10.93,14.28,15.24h0c-4.39-4.37-10.17-10.29-14.13-15.05-3.17-8.68-7.29-20.3-10-29.14a105,105,0,0,1,3.33-14.4c3.92,4.21,9.26,9.73,13.58,13.54,3,8.93,7.24,20.81,10.77,29.57v0C207.6,365,203.13,353.1,200.17,344l.06-.19c-4.26-3.95-9.86-9.32-13.71-13.68l-.05.16v0a106.25,106.25,0,0,0-3.32,14.39v0l0,.14c2.82,8.9,6.73,20.74,10,29.46v-.13Z" style="fill:#aa002d"/><path d="M211.09,373.77c5.72,3.69,13.42,8.49,19.4,11.74v0c-5.85-3.33-13.6-7.85-19.19-11.6-3.4-8.81-7.83-20.6-10.77-29.58q3.12-8.64,7.62-18.31c5.57,3.22,13.07,7.4,18.84,10.23,3.28,9.08,7.77,21.16,11.49,30.07v0c-3.65-9.07-8.4-21.2-11.6-30.43l.11-.22c-5.79-2.95-13.48-7-19-10.34l-.1.2v0q-4.48,9.64-7.61,18.29v0l-.06.19c3.08,9,7.32,21.06,10.87,29.92l.05-.17Z" style="fill:#aa002d"/><path d="M224.06,429.85l-.21-.3,0-.12c-4.59-4.69-10.63-11-14.78-16.12-4.65-8-10.74-18.77-14.88-27.06a44.58,44.58,0,0,1-.7-11.36c4.08,4.66,9.63,10.8,14.13,15.06,4.47,8.37,10.54,19.48,15.49,27.57v0c-4.89-8.26-11.28-19.36-15.65-27.9l0-.15C203,385,197.18,379,193.18,374.21v.15a44.45,44.45,0,0,0,.71,11.35l0,.12.15.33c4.33,8.31,10.24,19.33,15.08,27.36,4.3,5.05,10.18,11.69,14.93,16.33Z" style="fill:#aa002d"/><path d="M264.67,467l-.28-.25,0-.12c-6-3.51-14-8.3-19.66-12.32-6.32-7.18-14.64-16.86-20.48-24.43A46.48,46.48,0,0,1,223.5,418c5.8,3.91,13.64,9,19.73,12.44,6,7.44,14,17.27,20.4,24.33v0c-6.29-7.16-14.57-16.8-20.41-24.33-6.09-3.6-14.16-8.52-19.94-12.59l-.2-.32v0a46.9,46.9,0,0,0,.74,11.91l0,.12.21.3c6,7.56,14.22,17.55,20.74,24.7,5.83,3.93,13.71,9.06,19.87,12.47Z" style="fill:#aa002d"/><path d="M243.23,430.41l-.23-.3,0-.17c-6-3.56-14-8.41-19.72-12.43-4.83-8.17-11.17-19.14-15.5-27.58a113.82,113.82,0,0,1,3.57-15.48c5.66,3.64,13.29,8.39,19.2,11.61,4.65,8.52,11,19.82,16.11,28.05v0c-5.06-8.41-11.7-19.7-16.27-28.39l.07-.19c-5.92-3.36-13.76-7.94-19.4-11.74l-.05.17v0a112.46,112.46,0,0,0-3.58,15.48h0l0,.15c4.5,8.48,10.64,19.72,15.65,27.9l.2.32c5.86,4,13.78,9.11,19.94,12.59Z" style="fill:#aa002d"/><path d="M238.59,366.07c7.28,2.78,17,6.38,24.44,8.82v0c-7.3-2.49-17-5.87-24.18-8.71-3.6-9-8.32-20.95-11.49-30.08q5.35-10.45,12.1-21.84c7.17,2.35,16.75,5.43,24,7.51,3.43,9.29,8.1,21.65,11.94,30.77l0,0c-3.78-9.28-8.71-21.69-12.06-31.13l.16-.25c-7.32-2.17-17-5.13-24.27-7.6l-.14.24,0,0q-6.73,11.37-12.08,21.84l0,0-.11.22c3.31,9.19,7.84,21.41,11.6,30.43a2,2,0,0,1,.1-.21Z" style="fill:#aa002d;opacity:0.4"/><path d="M246.75,413.91c7.21,2.84,16.89,6.51,24.27,8.89v0c-7.26-2.47-16.92-5.85-24-8.77-5-8.31-11.59-19.47-16.11-28.06q3.27-9.06,8-19.19c7.21,2.74,16.86,6.31,24.18,8.72C267.7,384,274,395.33,279,403.62l0,0c-5-8.46-11.53-19.81-16.11-28.49l.12-.22c-7.38-2.52-17.2-5.95-24.44-8.82a2,2,0,0,0-.1.21v0q-4.71,10.13-8,19.19v0l-.07.19c4.69,8.62,11.09,20.05,16.27,28.39l.06-.18Z" style="fill:#aa002d;opacity:0.4"/><path d="M354.58,435.94v0c-8.67-.65-20.23-1.57-28.88-2.46-5.67-7.09-13.15-16.63-18.43-24q5.33-10.41,12-21.76c8.91,1.17,20.8,2.68,29.74,3.65,4.87,7.42,11.45,17.26,16.7,24.41l0,0c-5.22-7.31-12.07-17.14-16.89-24.71l.15-.24c-8.93-1-20.84-2.43-29.74-3.66l-.34-.05-.16.27q-6.72,11.34-12.05,21.76l0,0,.33.05c5.44,7.42,12.79,17.23,18.64,24.32,8.66.83,20.2,1.88,28.88,2.46Z" style="fill:#aa002d;opacity:0.1"/><path d="M263.64,454.61c7,2.62,16.43,6,23.61,8.15v0c-7.06-2.23-16.45-5.33-23.34-8-6.29-7.16-14.56-16.8-20.41-24.32a116.43,116.43,0,0,1,3.66-15.83c7.14,2.79,16.71,6.41,24,8.76,5.74,7.33,13.49,17,19.65,24v0C284.7,440.14,276.65,430.49,271,423l.07-.19c-7.34-2.49-17.1-5.93-24.27-8.89l-.06.18v0A116.43,116.43,0,0,0,243,429.94l0,.17.23.3c6,7.44,14,17.27,20.41,24.33v-.13Z" style="fill:#aa002d"/><path d="M311.68,493.88l-.3-.18,0-.12c-6.78-2-15.8-4.68-22.42-7.14-7.35-5.65-17.07-13.3-24-19.42a46.66,46.66,0,0,1-.74-11.88c6.94,2.58,16.24,5.91,23.33,8,6.82,5.9,16,13.67,23.18,19.11v0c-7.17-5.63-16.64-13.27-23.43-19.35l0-.15c-7.14-2.26-16.64-5.4-23.61-8.15v.15a46.78,46.78,0,0,0,.74,11.89l0,.12.28.25c7.15,6.07,16.8,14.05,24.34,19.63,6.74,2.36,15.77,5.37,22.67,7.23Z" style="fill:#aa002d"/><path d="M290.87,447.13c8,1.57,18.73,3.57,26.81,4.77v0c-8-1.28-18.6-3.06-26.51-4.7-6-7.08-14-16.61-19.63-24q3.27-9,8-19.14c8.17,1.81,19.07,4.14,27.3,5.63,5.39,7.32,12.67,17,18.46,24,0-.08.07-.15.1-.22l.33,0c-5.75-7.17-13.3-16.83-18.64-24.32l-.33-.05c-8.31-1.59-19.38-3.79-27.62-5.72l-.09.21,0,0q-4.69,10.11-8,19.16v0L271,423c5.8,7.42,13.65,17.24,19.87,24.31l.05-.17Z" style="fill:#aa002d;opacity:0.4"/><path d="M310.66,482.13c7.74,1.22,18.07,2.74,25.85,3.56v0c-7.68-.9-17.92-2.19-25.55-3.49-7.09-5.57-16.45-13.11-23.16-19.11a111.19,111.19,0,0,1,3.56-15.42c7.92,1.54,18.51,3.51,26.5,4.69,6.45,5.87,15.14,13.6,22,19v0c-6.8-5.61-15.78-13.23-22.2-19.27l.06-.18c-8.07-1.29-18.81-3.1-26.81-4.77l-.05.17v0a113.11,113.11,0,0,0-3.57,15.42v0l0,.15c6.88,6,16.17,13.84,23.43,19.35v-.13Z" style="fill:#aa002d"/><path d="M362.76,510l-.32-.11,0-.11c-7.3-.5-17-1.26-24.31-2.19-7.95-3.94-18.51-9.32-26.19-13.77a44.51,44.51,0,0,1-.69-11.29c7.64,1.19,17.85,2.68,25.55,3.48,7.39,4.26,17.34,9.83,25,13.57v0c-7.69-3.92-17.89-9.3-25.3-13.74l0-.14c-7.77-.91-18.13-2.23-25.85-3.56v.15a44.13,44.13,0,0,0,.69,11.3l0,.12.3.18c7.84,4.37,18.39,10.07,26.51,13.91,7.36.83,17.18,1.82,24.57,2.22Z" style="fill:#aa002d;opacity:0.1"/><path d="M339.87,471.19c8.48.4,19.78.85,28.27,1v0c-8.38-.18-19.56-.47-27.94-.93-6.72-5.55-15.6-13.07-21.95-19q3.11-8.58,7.57-18.19c8.66.82,20.2,1.86,28.87,2.44,5.95,5.93,14,13.75,20.3,19.27l.09-.2h.34c-6.29-5.7-14.59-13.42-20.5-19.52l-.34,0c-8.67-.64-20.23-1.56-28.88-2.46l-.33,0-.1.22q-4.47,9.6-7.58,18.21v0l-.06.18c6.51,5.94,15.31,13.77,22.2,19.27l.05-.16Z" style="fill:#aa002d;opacity:0.4"/><polygon points="186.47 330.31 183.25 345.67 174.7 328.1 169.94 297.55 173 284.84 180.95 299.86 186.47 330.31" style="fill:#aa002d;opacity:0.5"/><polygon points="180.95 299.86 187.94 283.08 185.99 253.61 178.58 241.55 172.64 255.22 173 284.84 180.95 299.86" style="fill:#aa002d;opacity:0.30000000000000004"/><polygon points="264.15 455.14 287.8 463.06 310.66 482.13 311.2 492.76 293.82 489.16 264.67 467.02 264.15 455.14" style="fill:#aa002d;opacity:0.30000000000000004"/><polygon points="208.01 390.68 211.04 373.94 200.61 343.43 186.26 330.91 183.25 345.67 193.46 374.89 208.01 390.68" style="fill:#aa002d;opacity:0.8"/><polygon points="200.61 343.43 207.96 325.29 226.89 335.85 238.49 366.28 230.91 385.95 210.67 373.69 200.61 343.43" style="fill:#aa002d;opacity:0.1"/><polygon points="264.15 455.14 243.23 430.42 246.69 414.11 271.17 423.31 291.36 447.65 287.64 462.82 264.15 455.14" style="fill:#aa002d;opacity:0.2"/><polygon points="178.55 241.04 181.4 213.3 189.3 198.26 197.17 208.13 196.19 235.63 186.21 253.88 178.55 241.04" style="fill:#aa002d;opacity:0.1"/><polygon points="224.08 223.09 223.11 194.91 238.93 173.68 258.14 178.07 261.81 205.32 243.19 228.87 224.08 223.09" style="fill:#aa002d;opacity:0.02"/><polygon points="468.95 510.28 469.14 503.69 442.52 501.65 415.25 506.43 416.26 515.18 443.71 517.41 468.95 510.28" style="fill:#aa002d;opacity:0.02"/><polygon points="207.96 325.29 200.9 294.79 212.6 274.46 232.12 282.76 239.57 314.16 226.89 335.85 207.96 325.29" style="fill:#aa002d;opacity:0.06"/><polygon points="355.16 436.21 365.76 415.74 348.74 390.49 319.77 387.74 307.28 409.44 325.7 433.48 355.16 436.21" style="fill:#aa002d;opacity:0.05"/><path d="M239.86,365.56a1.46,1.46,0,1,0,.08,2.06A1.46,1.46,0,0,0,239.86,365.56Z" style="fill:#aa002d"/><path d="M208.9,324.82a1.46,1.46,0,0,0-2,2.14,1.46,1.46,0,1,0,2-2.14Z" style="fill:#aa002d"/><path d="M349.56,390.22a1.05,1.05,0,1,0-1.43,1.54,1.05,1.05,0,0,0,1.43-1.54Z" style="fill:#aa002d"/><path d="M307.85,408.19a1.55,1.55,0,1,0,.09,2.2A1.55,1.55,0,0,0,307.85,408.19Z" style="fill:#aa002d"/><path d="M326.42,432.85a1.49,1.49,0,1,0,.07,2.1A1.49,1.49,0,0,0,326.42,432.85Z" style="fill:#aa002d"/><path d="M318.77,451.17a1.06,1.06,0,0,0-1.49.05,1.05,1.05,0,1,0,1.49-.05Z" style="fill:#aa002d"/><path d="M292.5,446.37a1.66,1.66,0,0,0-2.26,2.44,1.66,1.66,0,1,0,2.26-2.44Z" style="fill:#aa002d"/><path d="M244.43,428.62a2.13,2.13,0,1,0,.11,3A2.14,2.14,0,0,0,244.43,428.62Z" style="fill:#aa002d"/><path d="M265.89,453.92a2.13,2.13,0,1,0,.11,3A2.14,2.14,0,0,0,265.89,453.92Z" style="fill:#aa002d"/><path d="M272.07,422.13a1.44,1.44,0,0,0-2,2.11,1.44,1.44,0,1,0,2-2.11Z" style="fill:#aa002d"/><path d="M280.4,402.89a1.46,1.46,0,1,0,.08,2.07A1.46,1.46,0,0,0,280.4,402.89Z" style="fill:#aa002d"/><path d="M608.89,409.62c.71-5.45,1.61-12.72,2.17-18.18l-.16.19-.13,0c-.59,5.51-1.41,12.86-2.16,18.36l.11,0a76.13,76.13,0,0,1,7.59,2.11l.05-.17.11-.14c-2.24-.75-5.27-1.65-7.58-2.16Z" style="fill:#aa002d;opacity:0.1"/><path d="M624.06,374.54l0,0a58.78,58.78,0,0,1,7.54,5.55c-1.55,5.77-3.66,13.46-5.48,19.16q-4.64,6.28-9.63,12.51,5-6.22,9.64-12.53c1.75-5.72,4-13.37,5.49-19.16a64.71,64.71,0,0,0-7.54-5.55Z" style="fill:#aa002d;opacity:0.1"/><path d="M641.39,365.59v0a47.21,47.21,0,0,1,1.06,9.32c-2.43,6-5.74,13.9-8.53,19.7q-3,4.74-6.55,9.81a15,15,0,0,0-1.1-5.28c1.76-5.72,4-13.38,5.52-19.17l-.12.17-.06-.07c-1.55,5.77-3.67,13.47-5.49,19.16l.09-.13a15.1,15.1,0,0,1,1.14,5.4l-.1.19q3.54-5.06,6.53-9.78l0-.1c2.73-5.91,6.27-13.85,8.64-19.92a46.22,46.22,0,0,0-1.06-9.32Z" style="fill:#aa002d;opacity:0.2"/><path d="M641.56,365.16c1.55-7.16,3.54-16.74,4.77-24l0,0c-1.32,7.3-3.17,17-4.83,24.23l-.09.15a46.55,46.55,0,0,1,1.06,9.32l.09-.25.08-.13c-.09-2.83-1-6.54-1.06-9.37Z" style="fill:#aa002d;opacity:0.2"/><path d="M654.47,326.47v0a95.55,95.55,0,0,1,1.34,12.95c-2,7.3-4.76,17-7.16,24.19q-2.67,5.22-6,10.9,3.36-5.68,6-10.91c2.29-7.21,5.25-16.87,7.16-24.19a93.65,93.65,0,0,0-1.35-13Z" style="fill:#aa002d;opacity:0.2"/><path d="M654.6,326c1-8.17,2.14-19.07,2.72-27.27v0c-.68,8.29-1.69,19.33-2.76,27.58l-.08.14a95.71,95.71,0,0,1,1.35,13l.07-.3L656,339c-.18-3.91-1.18-9.07-1.35-13Z" style="fill:#aa002d"/><path d="M663.22,284.57h0a154.5,154.5,0,0,1,2,16c-1.22,8.2-2.95,19.13-4.6,27.25-1.26,3.5-2.81,7.22-4.63,11.13q2.73-5.87,4.64-11.14c1.54-8.15,3.48-19,4.59-27.25a151.17,151.17,0,0,0-2-16Z" style="fill:#aa002d"/><path d="M660.49,328.36q-1.89,5.24-4.62,11.09c-2,7.3-4.78,17-7.19,24.2-.88,2.74-1.92,6.45-3,9.11,2.18-5,5-11.67,7-16.73,1.51-4.41,3.62-10.25,5-14.71.92-3.87,2.25-9,2.86-13Zm0-.2c-.8,3.95-1.78,9.25-2.88,13.14-1.49,4.42-3.37,10.36-5,14.73-2,5.06-4.79,11.77-7,16.75.94-2.77,2.37-6.42,3.06-9.27l-.05.11c2.29-7.21,5.25-16.87,7.16-24.19l.07-.3q2.77-6,4.7-11.28l-.07.31Z" style="fill:#aa002d;opacity:0.2"/><path d="M665.19,300.8v-.2c-1.22,8.2-2.94,19.13-4.59,27.25l-.07.31c-.8,3.95-1.78,9.25-2.88,13.14l.14-.47c.91-3.86,2.23-9,2.83-12.92,1.54-8.14,3.5-19,4.61-27.24l0,.13Z" style="fill:#aa002d"/><path d="M667.63,290.24h0l-.52,6v0l.52-5.93Z" style="fill:#aa002d"/><path d="M665.8,242.25v0c1.06,5.54,2.34,13,2.86,18.59-.12,8.66-.38,20.2-1,28.84a75.8,75.8,0,0,1-2.41,10.44,154.93,154.93,0,0,0-2-16.07c0-8.74,0-20.39-.42-29.12h0c.29,8.84.56,20.63.41,29.47l0,.14a154.48,154.48,0,0,1,2,16v.2l0-.13a75.57,75.57,0,0,0,2.41-10.42h0l0-.22c.48-8.75,1-20.42,1-29.17-.66-5.61-1.66-13.08-2.85-18.6Z" style="fill:#aa002d"/><path d="M668.67,261.08l0-.23c-.12,8.75-.4,20.43-1,29.17l0,.22-.52,5.93.07-.61.5-5.77c.47-8.64,1-20.17,1-28.83v.12Z" style="fill:#aa002d"/><path d="M668.65,260.39c-.66-5.61-1.66-13.09-2.87-18.62-1.16-8.88-2.82-20.72-4.47-29.53h0c1.54,8.94,3.46,20.88,4.51,29.88l0,.12c1.05,5.55,2.33,13,2.85,18.6l0,.23V261c.07-1.21.08-2.38.05-3.51l0-.67c0,1.16,0,2.36-.05,3.61Z" style="fill:#aa002d"/><path d="M660.57,201.51l.09.33,0,.11,1,3.78-.18-.76-.91-3.46Z" style="fill:#aa002d"/><path d="M657.24,298.9a114.75,114.75,0,0,0-7.46-12.54v0a114.14,114.14,0,0,1,7.4,12.39c-.67,8.19-1.65,19.12-2.7,27.27q-3.62,7.06-8.16,14.74a79.36,79.36,0,0,0-7.3-9.23c.37-8.18.79-19.09.85-27.27v0c-.15,8.18-.4,19.1-.86,27.27a75.36,75.36,0,0,1,7.37,9.35l-.05.29,0,0q4.53-7.65,8.14-14.7v0l.08-.14c1-8.26,2.17-19.29,2.76-27.58l-.07.15Z" style="fill:#aa002d"/><path d="M639,331.57a77.5,77.5,0,0,1,7.37,9.35l-.05.29c-1.24,7.31-3.25,17-4.83,24.23l-.09.15v0q-4.39,6.94-9.6,14.38l-.12.17-.06-.07a59.49,59.49,0,0,0-7.54-5.55l-.12-.06c.86-7.15,1.74-16.73,2.37-23.91l.13.07.16-.22c-.57,7.11-1.57,16.57-2.36,23.66a65,65,0,0,1,7.54,5.59q5.22-7.44,9.63-14.43c1.63-7.14,3.43-16.75,4.74-24a75.19,75.19,0,0,0-7.31-9.19l.13-.21,0-.31Z" style="fill:#aa002d;opacity:0.1"/><path d="M662.82,255.1a161.89,161.89,0,0,0-7.9-15.19v0a160.74,160.74,0,0,1,7.83,15c.29,8.73.58,20.39.44,29.13q-2.43,6.69-5.9,14.17a118.42,118.42,0,0,0-7.4-12.41c-.42-8.81-1.07-20.55-1.87-29.32v0c.71,8.89,1.55,20.74,1.87,29.65l-.09.18a114.11,114.11,0,0,1,7.46,12.54l.07-.15v0q3.48-7.47,5.89-14.15h0l0-.14c0-8.84,0-20.64-.41-29.47l0,.14Z" style="fill:#aa002d"/><path d="M661.31,212.37c-2.37-5.29-5.68-12.3-8.59-17.32v0c2.74,5,6.29,11.82,8.51,17.1,1.52,8.84,3.44,20.64,4.48,29.55a92.61,92.61,0,0,1-2.94,12.7,162.57,162.57,0,0,0-7.83-15c-1.5-9-3.6-21-5.54-29.91v0c1.84,9.05,4.19,21.14,5.59,30.26l-.06.17a162,162,0,0,1,7.9,15.19l0-.14h0a93.27,93.27,0,0,0,2.92-12.68v0l0-.12c-1.17-9-2.85-21-4.51-29.88v.12Z" style="fill:#aa002d"/><path d="M660.53,201.38a40.23,40.23,0,0,1,.63,10.31c-2.36-5.24-5.63-12.17-8.51-17.14-2.81-8.8-6.67-20.5-10-29.12v0c3.2,8.77,7.35,20.52,10,29.46l0,.14c2.78,5.09,6.35,12,8.59,17.32v-.12h0a40.07,40.07,0,0,0-.63-10.29l0-.11-.09-.33c-2.1-7-4.81-16.43-7.25-23.35l-1.08-2.91c2.62,7.8,6.36,18.14,8.29,26.13Z" style="fill:#aa002d"/><path d="M641.81,153.63l.15.33,0,.12c2.91,5.39,6.71,12.64,9.13,18.28l-.31-.78c-2.54-5.47-6-12.73-9-18Z" style="fill:#aa002d"/><path d="M647.92,256.71c-3.88-3.63-9.16-8.37-13.38-11.59v0c4.1,3.29,9.51,7.76,13.24,11.45.7,8.78,1.56,20.51,1.88,29.32q-4.38,8.58-9.92,17.93c-3.87-2.81-9.12-6.44-13.24-8.84-.84-8.88-2-20.71-3.21-29.55v0c1.09,8.95,2.47,20.9,3.23,29.88l-.14.22c4.11,2.52,9.55,6,13.37,8.92l.12-.2v0q5.52-9.33,9.91-17.9v0l.09-.18c-.41-8.9-1.07-20.77-1.87-29.65l-.08.18Z" style="fill:#aa002d"/><path d="M649.34,209.64c-4-4.26-9.36-9.84-13.71-13.69v0c4.22,3.9,9.77,9.21,13.58,13.51,1.82,8.94,4.16,20.9,5.55,29.92q-2.84,7.84-6.91,16.61c-3.84-3.6-9.06-8.29-13.24-11.48-1.83-9.11-4.36-21.25-6.59-30.27v0c2.14,9.15,4.91,21.38,6.65,30.62l-.11.2c4.14,3.32,9.6,7.85,13.38,11.59l.08-.18v0c2.71-5.83,5-11.37,6.9-16.58v0l.06-.17c-1.51-9.11-3.63-21.24-5.59-30.26l0,.16Z" style="fill:#aa002d"/><path d="M642.68,165.58c-4.12-4.73-9.73-10.93-14.28-15.24h0c4.39,4.37,10.17,10.29,14.13,15.05,3.17,8.68,7.29,20.29,10,29.13a106.14,106.14,0,0,1-3.32,14.41c-3.93-4.21-9.27-9.73-13.58-13.54-3.06-8.93-7.25-20.81-10.77-29.58v0c3.44,8.92,7.91,20.85,10.88,29.93l-.07.18c4.26,4,9.87,9.33,13.71,13.69l0-.16v0a106.25,106.25,0,0,0,3.32-14.39v0l0-.14c-2.82-8.9-6.73-20.74-10-29.46v.13Z" style="fill:#aa002d"/><path d="M623.14,265.7c-5.65-2.63-13.22-6-19-8.32l0,0c5.7,2.34,13.28,5.52,18.82,8.22,1.09,8.85,2.46,20.66,3.22,29.54q-6.57,10.41-14.36,21.53c-5.71-1.82-13.34-4.18-19.1-5.78-1.24-8.95-2.94-20.88-4.41-29.79l-.2.28-.26-.07c1.42,9,3.27,21.07,4.46,30.13l.24.06c5.76,1.65,13.42,3.88,19.1,5.76l.21.07.18-.26q7.79-11.09,14.35-21.49v0l.14-.22c-.84-9-2.06-20.94-3.23-29.88l-.13.22Z" style="fill:#aa002d;opacity:0.2"/><path d="M627.9,214.49c-5.62-3.25-13.2-7.48-19-10.33l0,0c5.73,2.92,13.34,6.89,18.85,10.21,2.13,9.05,4.88,21.14,6.6,30.28q-5,9.72-11.26,20.33c-5.58-2.61-13.08-6-18.81-8.25-2.1-9.25-5-21.57-7.46-30.73l0,0c2.4,9.29,5.51,21.71,7.53,31.09l-.15.24c5.76,2.36,13.42,5.59,19,8.32l.13-.22v0q6.27-10.58,11.25-20.31v0l.11-.2c-1.84-9.22-4.4-21.5-6.65-30.62l-.1.19Z" style="fill:#aa002d;opacity:0.4"/><path d="M624.77,166c-5.72-3.69-13.42-8.49-19.39-11.74v0c5.85,3.32,13.61,7.84,19.19,11.6,3.4,8.81,7.83,20.6,10.77,29.58-2.08,5.75-4.62,11.87-7.62,18.3-5.57-3.21-13.06-7.39-18.84-10.22-3.28-9.08-7.77-21.16-11.49-30.08v0c3.65,9.06,8.4,21.2,11.6,30.43l-.11.22c5.79,3,13.48,7,19,10.33l.1-.19v0q4.49-9.65,7.61-18.29v0l.07-.18c-3.09-9-7.32-21.06-10.88-29.93l-.05.18Z" style="fill:#aa002d"/><path d="M611.8,109.94l.21.3,0,.12c4.59,4.69,10.64,11,14.78,16.12,4.65,8,10.74,18.77,14.88,27.06a44.13,44.13,0,0,1,.7,11.36c-4.08-4.66-9.63-10.8-14.13-15.06-4.47-8.37-10.54-19.48-15.49-27.57h0c4.88,8.27,11.27,19.37,15.64,27.91l0,.15c4.45,4.41,10.28,10.41,14.28,15.24v-.15a44.93,44.93,0,0,0-.7-11.35l0-.12-.15-.33c-4.33-8.31-10.24-19.33-15.08-27.36-4.3-5-10.18-11.7-14.93-16.33Z" style="fill:#aa002d"/><path d="M571.19,72.77l.28.25,0,.12c6,3.51,14,8.3,19.66,12.32,6.32,7.18,14.64,16.85,20.48,24.43a46.9,46.9,0,0,1,.74,11.91c-5.81-3.91-13.64-9-19.74-12.45-6-7.43-14-17.26-20.4-24.32v0c6.28,7.16,14.56,16.8,20.4,24.32,6.09,3.61,14.16,8.52,19.94,12.6l.21.31h0a46.9,46.9,0,0,0-.74-11.91l0-.12-.21-.3c-6-7.56-14.22-17.55-20.73-24.7-5.84-3.93-13.72-9.06-19.88-12.47Z" style="fill:#aa002d"/><path d="M592.63,109.37l.23.31,0,.17c6,3.56,14,8.41,19.73,12.43,4.82,8.17,11.16,19.14,15.49,27.58a113.82,113.82,0,0,1-3.57,15.48c-5.66-3.64-13.29-8.39-19.2-11.61-4.65-8.52-11-19.82-16.11-28v0c5.06,8.41,11.7,19.7,16.27,28.39l-.06.19c5.91,3.36,13.75,7.94,19.39,11.74l.05-.18v0a113.36,113.36,0,0,0,3.57-15.47h0l0-.15c-4.5-8.48-10.64-19.72-15.64-27.91l-.21-.31c-5.86-4-13.78-9.11-19.94-12.6Z" style="fill:#aa002d"/><path d="M596.6,226.29c-7.25-2.39-16.93-5.49-24.26-7.6l0,0c7.23,2.15,16.86,5.07,24,7.5,2.37,9.19,5.46,21.47,7.47,30.74Q596.55,268.44,588,280.7c-7.23-1.8-16.87-4.15-24.13-5.8-2.33-9.42-5.5-22-8.1-31.31l0,0c2.56,9.47,5.9,22.12,8.18,31.66l-.19.26c7.25,1.69,16.91,4,24.13,5.79l.26.07.2-.28q8.6-12.24,15.83-23.72l0,0,.15-.24c-2.11-9.36-5-21.83-7.53-31.09l-.14.24Z" style="fill:#aa002d;opacity:0.2"/><path d="M597.27,173.72c-7.28-2.78-17-6.38-24.43-8.82l0,0c7.3,2.49,17,5.87,24.18,8.7,3.6,9,8.32,21,11.49,30.09q-5.36,10.46-12.1,21.84c-7.17-2.36-16.75-5.43-24-7.51-3.43-9.29-8.1-21.65-11.94-30.77l0,0c3.78,9.28,8.71,21.69,12.06,31.13l-.15.25c7.31,2.17,17,5.13,24.26,7.6l.14-.24,0,0q6.74-11.37,12.08-21.84l0,0,.11-.22c-3.31-9.19-7.84-21.41-11.6-30.43l-.1.21Z" style="fill:#aa002d;opacity:0.4"/><path d="M589.11,125.88c-7.21-2.84-16.89-6.51-24.27-8.89v0c7.26,2.47,16.92,5.85,24,8.77,5,8.31,11.59,19.47,16.11,28.06q-3.27,9.06-8,19.19c-7.21-2.74-16.86-6.31-24.18-8.72-4.63-8.53-10.9-19.85-15.93-28.15l0,0c5,8.46,11.53,19.81,16.11,28.49l-.11.22c7.37,2.52,17.19,5.95,24.43,8.82l.1-.21v0q4.71-10.11,8-19.18v0l.06-.19c-4.69-8.62-11.09-20.05-16.27-28.39l-.06.18Z" style="fill:#aa002d;opacity:0.4"/><path d="M555.51,243.89l.18-.26c2.56,9.47,5.9,22.12,8.18,31.66l-.19.26,0,0q-9.3,12.6-19.28,25.06l0,0-.21.26-28.3-5.47-.34-.07c-2.69-9.48-6.34-22.11-9.25-31.52l-.11-.37q10.33-12.88,20-26l.12.37c8.78,1.77,20.49,4.14,29.26,6ZM526.58,238q-9.51,12.9-19.73,25.65c2.82,9.33,6.53,21.78,9.13,31.17,8.4,1.62,19.6,3.78,28,5.42q10-12.45,19.29-25.08c-2.33-9.42-5.5-22-8.11-31.31-8.57-1.78-20-4.13-28.58-5.85Zm28.93,5.89.18-.26c2.56,9.47,5.9,22.12,8.18,31.66l-.19.26,0,0q-9.3,12.6-19.28,25.06l0,0-.21.26-28.3-5.47-.34-.07c-2.69-9.48-6.34-22.11-9.25-31.52l-.11-.37q10.33-12.88,20-26l.12.37c8.78,1.77,20.49,4.14,29.26,6Z" style="fill:#aa002d;opacity:0.01"/><path d="M560.29,187.55c-8.51-2-19.87-4.56-28.44-6.25l0,0c8.46,1.74,19.73,4.13,28.12,6.17,3.73,9.17,8.62,21.45,11.94,30.78q-7.59,12-16.6,24.88c-8.57-1.79-20-4.15-28.59-5.87-3.35-9.37-7.86-21.85-11.44-31.13l-.21.3-.36-.06c3.52,9.31,8.15,21.74,11.44,31.13l.12.37c8.78,1.77,20.49,4.14,29.26,6l.18-.26,0,0q9-12.83,16.6-24.87l0,0,.15-.25c-3.45-9.4-8.18-21.9-12.06-31.13l-.14.24Z" style="fill:#aa002d;opacity:0.1"/><path d="M556.75,136.4c-8.26-1.84-19.3-4.21-27.62-5.72l0,0c8.22,1.57,19.17,3.74,27.32,5.65,4.92,8.36,11.39,19.56,15.92,28.15Q566.88,175.2,560,186.84c-8.41-2-19.65-4.5-28.12-6.16-4.3-8.54-10.12-19.88-14.8-28.21l-.15.27-.35-.05c4.63,8.49,10.7,19.86,15,28.55l.34.06c8.56,1.76,19.95,4.18,28.44,6.25l.14-.24,0,0q6.9-11.64,12.37-22.35l0,0,.11-.22c-4.68-8.63-11-20.09-16.11-28.49l-.09.21Z" style="fill:#aa002d;opacity:0.1"/><path d="M481.28,103.85v0c8.67.65,20.23,1.57,28.88,2.46,5.67,7.09,13.15,16.63,18.43,24q-5.33,10.41-12,21.75c-8.91-1.16-20.8-2.67-29.74-3.64-4.87-7.42-11.45-17.26-16.7-24.41l0,0c5.22,7.31,12.07,17.14,16.89,24.71l-.15.23c8.93,1,20.84,2.44,29.74,3.67l.35.05.15-.27q6.72-11.34,12.05-21.77l0,0-.33-.06c-5.44-7.41-12.79-17.22-18.64-24.31-8.66-.83-20.2-1.88-28.88-2.46Z" style="fill:#aa002d;opacity:0.1"/><path d="M572.22,85.18c-7-2.63-16.43-6-23.61-8.15h0c7.06,2.24,16.45,5.33,23.34,8,6.29,7.16,14.56,16.8,20.41,24.32a116.43,116.43,0,0,1-3.66,15.83c-7.14-2.79-16.71-6.41-24-8.76-5.75-7.33-13.5-17-19.65-24v0c6.12,7.16,14.17,16.81,19.87,24.31l-.07.19c7.34,2.49,17.1,5.93,24.27,8.89l.06-.18v0a116.77,116.77,0,0,0,3.66-15.83l0-.17-.23-.31c-6-7.43-14-17.27-20.4-24.32v.13Z" style="fill:#aa002d"/><path d="M524.18,45.91l.3.18,0,.12c6.78,2,15.8,4.68,22.43,7.14C554.29,59,564,66.65,571,72.77a46.69,46.69,0,0,1,.73,11.88c-6.94-2.58-16.24-5.92-23.33-8-6.82-5.9-16-13.67-23.18-19.11v0c7.17,5.63,16.64,13.26,23.43,19.35l0,.15c7.14,2.26,16.64,5.4,23.61,8.15V85a46.78,46.78,0,0,0-.74-11.89l0-.12-.28-.25c-7.15-6.07-16.8-14-24.34-19.63-6.73-2.36-15.77-5.37-22.67-7.23Z" style="fill:#aa002d"/><path d="M545,92.66c-8-1.57-18.73-3.57-26.81-4.77v0c8,1.28,18.6,3.06,26.51,4.7,6.05,7.08,14,16.6,19.63,24q-3.27,9-8,19.15c-8.17-1.81-19.07-4.15-27.3-5.63-5.39-7.32-12.67-17-18.46-24l-.1.22-.33,0c5.75,7.17,13.3,16.83,18.64,24.31l.33.06c8.31,1.59,19.38,3.79,27.62,5.72l.09-.21,0,0q4.7-10.09,8-19.15v0l.07-.19c-5.8-7.42-13.65-17.24-19.87-24.31l0,.17Z" style="fill:#aa002d;opacity:0.4"/><path d="M525.2,57.65c-7.74-1.21-18.07-2.73-25.85-3.55v0c7.68.9,17.93,2.19,25.55,3.49,7.09,5.57,16.45,13.11,23.17,19.11a112.77,112.77,0,0,1-3.57,15.42c-7.92-1.55-18.51-3.51-26.5-4.69-6.45-5.87-15.14-13.6-22-19v0c6.8,5.61,15.78,13.23,22.21,19.27l-.07.18C526.25,89.18,537,91,545,92.66l0-.17v0A114.27,114.27,0,0,0,548.61,77h0l0-.15c-6.88-6-16.17-13.84-23.43-19.35v.12Z" style="fill:#aa002d"/><path d="M473.1,29.78l.32.11,0,.11c7.3.5,17,1.26,24.31,2.19,7.95,3.94,18.51,9.32,26.19,13.77a44.05,44.05,0,0,1,.69,11.29c-7.64-1.19-17.85-2.68-25.54-3.48-7.4-4.26-17.35-9.83-25-13.57v0c7.69,3.92,17.89,9.3,25.3,13.74l0,.14c7.77.91,18.13,2.23,25.85,3.55v-.14a44.13,44.13,0,0,0-.69-11.3l0-.12-.3-.18c-7.84-4.37-18.39-10.07-26.51-13.91-7.35-.83-17.18-1.83-24.57-2.22Z" style="fill:#aa002d;opacity:0.1"/><path d="M496,68.6c-8.48-.4-19.78-.85-28.27-1v0c8.38.18,19.56.47,27.94.93,6.72,5.55,15.6,13.07,21.95,19q-3.11,8.58-7.57,18.19c-8.66-.82-20.2-1.86-28.87-2.44-5.95-5.93-14-13.75-20.3-19.27l-.09.2h-.34c6.29,5.7,14.59,13.42,20.5,19.52l.34,0c8.67.64,20.23,1.56,28.88,2.46l.33,0,.1-.22q4.47-9.6,7.58-18.21v0l.07-.18c-6.52-5.94-15.32-13.77-22.21-19.27l-.05.16Z" style="fill:#aa002d;opacity:0.4"/><path d="M474.06,40.33c-8.13.11-19,.35-27.11.78h0c8-.35,18.76-.75,26.8-.78,7.6,3.88,17.69,9.18,25,13.57a106.21,106.21,0,0,1-3.3,14.28c-8.38-.38-19.55-.81-27.94-.91-6.93-4.27-16.25-9.85-23.47-13.61v0c7.24,3.94,16.82,9.34,23.74,13.79l-.06.16c8.49.18,19.8.49,28.27,1l.05-.16v0a105.05,105.05,0,0,0,3.31-14.3v0l0-.14c-7.48-4.32-17.54-10-25.3-13.74v.11Z" style="fill:#aa002d;opacity:0.1"/><path d="M419.85,24.33l.32.05,0,.09c7.58-.89,17.7-2,25.31-2.53,8.26,2.17,19.24,5.2,27.33,7.93a40.21,40.21,0,0,1,.63,10.19c-8,.12-18.76.36-26.78.8-7.72-2.53-18.07-5.77-25.95-7.73v0c7.93,2.13,18.48,5.13,26.24,7.84l0,.12c8.13-.36,19-.75,27.11-.78V40.2a40.32,40.32,0,0,0-.63-10.2l0-.11-.32-.11c-8.24-2.62-19.27-6-27.67-8-7.68.63-17.93,1.57-25.58,2.56Z" style="fill:#aa002d;opacity:0.1"/><path d="M420.72,33.24c-8.23,1.37-19.2,3.25-27.38,4.88h0c8.1-1.54,18.92-3.55,27.06-4.83,7.84,2.11,18.27,5.06,25.93,7.73a91.94,91.94,0,0,1-2.89,12.53c-8.51.7-19.84,1.69-28.33,2.61-7.17-2.55-16.79-5.82-24.14-7.78h0c7.39,2.15,17.22,5.16,24.42,7.9l-.05.14c8.59-.87,20.05-2,28.66-2.61l0-.14v0A92.3,92.3,0,0,0,447,41.12h0l0-.12c-7.81-2.57-18.27-5.86-26.24-7.84v.09Z" style="fill:#aa002d;opacity:0.1"/><path d="M626.07,399.52q-4.62,6.27-9.58,12.46c-1.33,3.87-3.14,9-4.72,12.81l1.2.7c0,.17-.08.39-.11.55.74-.92,1.48-1.86,2.2-2.79,1.32-1.74,3.09-4,4.38-5.8,2.41-3.75,5.61-8.77,7.73-12.7a14.78,14.78,0,0,0-1.1-5.23Zm.13-.4a15.1,15.1,0,0,1,1.14,5.4l-.1.19c-2.21,3.8-5.14,8.9-7.64,12.52-1.59,2.11-3.7,4.94-5.32,7l-.55.71-1,1.29-.13-.85-.95-.37h0c1.52-3.84,3.46-9,4.73-12.93l.05-.17q5-6.29,9.75-12.67l.09-.13Z" style="fill:#aa002d;opacity:0.1"/><path d="M648.52,364.05q-2.65,5.19-6,10.84c-2.43,6-5.76,13.91-8.57,19.72l-1.46,3.14c5.59-9.74,7.28-12.78,13-24.67.92-2.7,2.33-6.26,3-9Zm.19-.54c-.89,2.79-1.94,6.56-3.06,9.27-5.13,10.6-6.35,13.12-13.33,25.24l1.45-3.09,0-.1c2.73-5.91,6.27-13.85,8.64-19.92l.09-.25c2.27-3.83,4.31-7.52,6.12-11l.05-.11Z" style="fill:#aa002d;opacity:0.2"/><path d="M340.42,45.2h0c7.89-2.69,18.41-6.23,26.37-8.69,7.79.27,18.19.77,25.93,1.64a73.75,73.75,0,0,1-2.36,10.22c-8.32,1.71-19.41,4-27.69,5.93-7.17-.71-16.77-1.52-24-1.6l0,.09-.31.1c7.29.25,17,.76,24.24,1.65l.31-.07c8.4-1.86,19.6-4.29,28-6l0-.12h0a75.82,75.82,0,0,0,2.37-10.26h0l-.32.07c-7.85-.74-18.35-1.56-26.23-1.68-7.94,2.52-18.5,5.94-26.37,8.69Z" style="fill:#aa002d;opacity:0.05"/><path d="M366.36,29.53l.31,0v.07c7.6-2.23,17.74-5.13,25.42-7.07,8.25.38,19.26,1,27.47,1.95a34,34,0,0,1,.54,8.65c-8.14,1.36-19,3.24-27.06,4.86-7.76-.72-18.15-1.53-25.95-1.64v.09l-.31.09c7.88.27,18.4.79,26.23,1.68l.32-.07c8.2-1.56,19.14-3.58,27.38-4.88v-.11a34,34,0,0,0-.54-8.66l0-.09-.32-.05c-8.32-.81-19.45-1.74-27.81-1.95-7.74,2-18,4.82-25.68,7.15Z" style="fill:#aa002d;opacity:0.05"/><polygon points="649.39 209.48 652.61 194.12 666.49 216.17 667.8 234.38 662.87 254.95 654.91 239.93 649.39 209.48" style="fill:#aa002d;opacity:0.5"/><polygon points="654.91 239.93 647.92 256.71 649.87 286.18 657.28 298.24 663.22 284.57 662.87 254.95 654.91 239.93" style="fill:#aa002d;opacity:0.30000000000000004"/><polygon points="571.71 84.65 548.07 76.72 525.2 57.66 524.66 47.02 542.04 50.63 571.2 72.77 571.71 84.65" style="fill:#aa002d;opacity:0.30000000000000004"/><polygon points="627.85 149.1 624.7 164.6 635.25 196.36 649.6 208.88 656.58 189.32 638.87 154.96 627.85 149.1" style="fill:#aa002d"/><polygon points="635.25 196.36 627.9 214.5 608.97 203.94 597.37 173.51 604.95 153.84 625.2 166.1 635.25 196.36" style="fill:#aa002d;opacity:0.1"/><polygon points="571.71 84.65 592.63 109.37 589.17 125.68 564.7 116.48 544.5 92.14 548.22 76.97 571.71 84.65" style="fill:#aa002d;opacity:0.2"/><polygon points="657.31 298.75 654.47 326.49 646.56 341.53 638.69 331.66 639.67 304.16 649.65 285.91 657.31 298.75" style="fill:#aa002d;opacity:0.1"/><polygon points="611.78 316.7 612.75 344.87 596.93 366.11 577.72 361.71 574.05 334.47 592.68 310.92 611.78 316.7" style="fill:#aa002d;opacity:0.02"/><polygon points="366.91 29.51 366.72 36.09 393.34 38.13 420.61 33.36 419.6 24.6 392.15 22.38 366.91 29.51" style="fill:#aa002d;opacity:0.05"/><polygon points="627.9 214.5 634.97 245 623.26 265.33 603.75 257.03 596.29 225.63 608.97 203.94 627.9 214.5" style="fill:#aa002d;opacity:0.06"/><polygon points="480.7 103.58 470.1 124.05 487.12 149.3 516.09 152.04 528.58 130.35 510.16 106.31 480.7 103.58" style="fill:#aa002d;opacity:0.05"/><path d="M596,174.23a1.46,1.46,0,1,0-.08-2.06A1.45,1.45,0,0,0,596,174.23Z" style="fill:#aa002d"/><path d="M627,215a1.46,1.46,0,0,0,2-2.14,1.46,1.46,0,1,0-2,2.14Z" style="fill:#aa002d"/><path d="M486.3,149.57a1.05,1.05,0,1,0,1.43-1.54,1,1,0,0,0-1.48.05A1.06,1.06,0,0,0,486.3,149.57Z" style="fill:#aa002d"/><path d="M528,131.6a1.55,1.55,0,1,0-.09-2.2A1.55,1.55,0,0,0,528,131.6Z" style="fill:#aa002d"/><path d="M509.44,106.94a1.49,1.49,0,1,0-.07-2.1A1.49,1.49,0,0,0,509.44,106.94Z" style="fill:#aa002d"/><path d="M517.1,88.62a1,1,0,0,0,1.48-.05A1.05,1.05,0,1,0,517,87.14,1,1,0,0,0,517.1,88.62Z" style="fill:#aa002d"/><path d="M543.36,93.42a1.67,1.67,0,0,0,2.35-.09,1.66,1.66,0,0,0-2.44-2.26A1.67,1.67,0,0,0,543.36,93.42Z" style="fill:#aa002d"/><path d="M591.44,111.17a2.13,2.13,0,1,0-.12-3A2.13,2.13,0,0,0,591.44,111.17Z" style="fill:#aa002d"/><path d="M570,85.86a2.13,2.13,0,1,0-.11-3A2.13,2.13,0,0,0,570,85.86Z" style="fill:#aa002d"/><path d="M563.79,117.66a1.44,1.44,0,1,0-.08-2A1.43,1.43,0,0,0,563.79,117.66Z" style="fill:#aa002d"/><path d="M555.46,136.9a1.46,1.46,0,0,0,2-2.15,1.48,1.48,0,0,0-2.07.08A1.46,1.46,0,0,0,555.46,136.9Z" style="fill:#aa002d"/><path d="M168.23,249.55h0l.52-6v0l-.52,5.94Z" style="fill:#aa002d"/><path d="M170.06,297.54v0c-1.06-5.54-2.34-13-2.86-18.59.12-8.66.38-20.2,1-28.84a76.25,76.25,0,0,1,2.41-10.45,152.14,152.14,0,0,0,2,16.08c0,8.74,0,20.39.42,29.12h0c-.29-8.84-.56-20.63-.41-29.47l0-.14a154.48,154.48,0,0,1-2-16V239l0,.13a75.57,75.57,0,0,0-2.41,10.42h0l0,.22c-.48,8.74-1,20.42-1,29.17.66,5.61,1.66,13.08,2.85,18.6Z" style="fill:#aa002d"/><path d="M167.19,278.71l0,.23c.12-8.75.4-20.43,1-29.17l0-.22.52-5.94-.07.62-.5,5.77c-.47,8.64-1,20.17-1,28.83v-.12Z" style="fill:#aa002d"/><path d="M167.21,279.4c.66,5.61,1.67,13.09,2.87,18.61,1.16,8.89,2.82,20.73,4.47,29.54v0c-1.54-8.93-3.46-20.87-4.5-29.87v-.12c-1.05-5.55-2.33-13-2.85-18.6l0-.23v.12c-.07,1.21-.08,2.38-.05,3.51l0,.67c0-1.16,0-2.36.05-3.61Z" style="fill:#aa002d"/><path d="M175.29,338.28l-.09-.33,0-.11-1-3.78.18.76.91,3.46Z" style="fill:#aa002d"/><path d="M173,284.68a160.83,160.83,0,0,0,7.9,15.2v0a162,162,0,0,1-7.83-15c-.29-8.73-.58-20.39-.44-29.13q2.43-6.69,5.9-14.17A116.8,116.8,0,0,0,186,254c.41,8.81,1.06,20.54,1.86,29.32v0c-.7-8.89-1.55-20.75-1.87-29.65l.09-.18a115,115,0,0,1-7.46-12.54l-.07.15v0c-2.32,5-4.28,9.7-5.89,14.15h0l0,.14c0,8.84,0,20.64.41,29.47l0-.15Z" style="fill:#aa002d"/><path d="M174.55,327.42c2.37,5.29,5.68,12.3,8.59,17.32v0c-2.74-5-6.29-11.82-8.51-17.11-1.52-8.83-3.44-20.63-4.48-29.54a92.27,92.27,0,0,1,2.94-12.7,162.57,162.57,0,0,0,7.83,15.05c1.5,9,3.61,21,5.55,29.91v0c-1.84-9.05-4.19-21.14-5.59-30.26l.06-.17a160.92,160.92,0,0,1-7.9-15.2l0,.15h0a91.92,91.92,0,0,0-2.93,12.68v.14c1.16,9,2.84,21,4.5,29.87v-.11Z" style="fill:#aa002d"/><path d="M175.33,338.41a40.23,40.23,0,0,1-.63-10.31c2.36,5.24,5.63,12.17,8.51,17.14,2.81,8.8,6.67,20.49,10,29.12v0c-3.2-8.77-7.35-20.52-10-29.46l0-.14c-2.78-5.09-6.35-12-8.59-17.32v.13a40.07,40.07,0,0,0,.63,10.29l0,.11.09.33c2.1,7,4.81,16.43,7.25,23.35l1.08,2.91c-2.62-7.8-6.36-18.14-8.29-26.13Z" style="fill:#aa002d"/><path d="M194.05,386.16l-.15-.33,0-.12c-2.92-5.39-6.72-12.64-9.14-18.28l.31.78c2.54,5.46,6,12.73,9,18Z" style="fill:#aa002d"/><path d="M193.18,374.21c4.12,4.73,9.74,10.93,14.28,15.24h0c-4.39-4.37-10.17-10.29-14.13-15.05-3.17-8.68-7.29-20.3-10-29.14a105,105,0,0,1,3.33-14.4c3.92,4.21,9.26,9.73,13.58,13.54,3,8.93,7.24,20.81,10.77,29.57v0C207.6,365,203.13,353.1,200.17,344l.06-.19c-4.26-3.95-9.86-9.32-13.71-13.68l-.05.16v0a106.25,106.25,0,0,0-3.32,14.39v0l0,.14c2.82,8.9,6.73,20.74,10,29.46v-.13Z" style="fill:#aa002d"/><path d="M211.09,373.77c5.72,3.69,13.42,8.49,19.4,11.74v0c-5.85-3.33-13.6-7.85-19.19-11.6-3.4-8.81-7.83-20.6-10.77-29.58q3.12-8.64,7.62-18.31c5.57,3.22,13.07,7.4,18.84,10.23,3.28,9.08,7.77,21.16,11.49,30.07v0c-3.65-9.07-8.4-21.2-11.6-30.43l.11-.22c-5.79-2.95-13.48-7-19-10.34l-.1.2v0q-4.48,9.64-7.61,18.29v0l-.06.19c3.08,9,7.32,21.06,10.87,29.92l.05-.17Z" style="fill:#aa002d"/><path d="M224.06,429.85l-.21-.3,0-.12c-4.59-4.69-10.63-11-14.78-16.12-4.65-8-10.74-18.77-14.88-27.06a44.58,44.58,0,0,1-.7-11.36c4.08,4.66,9.63,10.8,14.13,15.06,4.47,8.37,10.54,19.48,15.49,27.57v0c-4.89-8.26-11.28-19.36-15.65-27.9l0-.15C203,385,197.18,379,193.18,374.21v.15a44.45,44.45,0,0,0,.71,11.35l0,.12.15.33c4.33,8.31,10.24,19.33,15.08,27.36,4.3,5.05,10.18,11.69,14.93,16.33Z" style="fill:#aa002d"/><path d="M264.67,467l-.28-.25,0-.12c-6-3.51-14-8.3-19.66-12.32-6.32-7.18-14.64-16.86-20.48-24.43A46.48,46.48,0,0,1,223.5,418c5.8,3.91,13.64,9,19.73,12.44,6,7.44,14,17.27,20.4,24.33v0c-6.29-7.16-14.57-16.8-20.41-24.33-6.09-3.6-14.16-8.52-19.94-12.59l-.2-.32v0a46.9,46.9,0,0,0,.74,11.91l0,.12.21.3c6,7.56,14.22,17.55,20.74,24.7,5.83,3.93,13.71,9.06,19.87,12.47Z" style="fill:#aa002d"/><path d="M243.23,430.41l-.23-.3,0-.17c-6-3.56-14-8.41-19.72-12.43-4.83-8.17-11.17-19.14-15.5-27.58a113.82,113.82,0,0,1,3.57-15.48c5.66,3.64,13.29,8.39,19.2,11.61,4.65,8.52,11,19.82,16.11,28.05v0c-5.06-8.41-11.7-19.7-16.27-28.39l.07-.19c-5.92-3.36-13.76-7.94-19.4-11.74l-.05.17v0a112.46,112.46,0,0,0-3.58,15.48h0l0,.15c4.5,8.48,10.64,19.72,15.65,27.9l.2.32c5.86,4,13.78,9.11,19.94,12.59Z" style="fill:#aa002d"/><path d="M238.59,366.07c7.28,2.78,17,6.38,24.44,8.82v0c-7.3-2.49-17-5.87-24.18-8.71-3.6-9-8.32-20.95-11.49-30.08q5.35-10.45,12.1-21.84c7.17,2.35,16.75,5.43,24,7.51,3.43,9.29,8.1,21.65,11.94,30.77l0,0c-3.78-9.28-8.71-21.69-12.06-31.13l.16-.25c-7.32-2.17-17-5.13-24.27-7.6l-.14.24,0,0q-6.73,11.37-12.08,21.84l0,0-.11.22c3.31,9.19,7.84,21.41,11.6,30.43a2,2,0,0,1,.1-.21Z" style="fill:#aa002d;opacity:0.4"/><path d="M246.75,413.91c7.21,2.84,16.89,6.51,24.27,8.89v0c-7.26-2.47-16.92-5.85-24-8.77-5-8.31-11.59-19.47-16.11-28.06q3.27-9.06,8-19.19c7.21,2.74,16.86,6.31,24.18,8.72C267.7,384,274,395.33,279,403.62l0,0c-5-8.46-11.53-19.81-16.11-28.49l.12-.22c-7.38-2.52-17.2-5.95-24.44-8.82a2,2,0,0,0-.1.21v0q-4.71,10.13-8,19.19v0l-.07.19c4.69,8.62,11.09,20.05,16.27,28.39l.06-.18Z" style="fill:#aa002d;opacity:0.4"/><path d="M354.58,435.94v0c-8.67-.65-20.23-1.57-28.88-2.46-5.67-7.09-13.15-16.63-18.43-24q5.33-10.41,12-21.76c8.91,1.17,20.8,2.68,29.74,3.65,4.87,7.42,11.45,17.26,16.7,24.41l0,0c-5.22-7.31-12.07-17.14-16.89-24.71l.15-.24c-8.93-1-20.84-2.43-29.74-3.66l-.34-.05-.16.27q-6.72,11.34-12.05,21.76l0,0,.33.05c5.44,7.42,12.79,17.23,18.64,24.32,8.66.83,20.2,1.88,28.88,2.46Z" style="fill:#aa002d;opacity:0.1"/><path d="M263.64,454.61c7,2.62,16.43,6,23.61,8.15v0c-7.06-2.23-16.45-5.33-23.34-8-6.29-7.16-14.56-16.8-20.41-24.32a116.43,116.43,0,0,1,3.66-15.83c7.14,2.79,16.71,6.41,24,8.76,5.74,7.33,13.49,17,19.65,24v0C284.7,440.14,276.65,430.49,271,423l.07-.19c-7.34-2.49-17.1-5.93-24.27-8.89l-.06.18v0A116.43,116.43,0,0,0,243,429.94l0,.17.23.3c6,7.44,14,17.27,20.41,24.33v-.13Z" style="fill:#aa002d"/><path d="M311.68,493.88l-.3-.18,0-.12c-6.78-2-15.8-4.68-22.42-7.14-7.35-5.65-17.07-13.3-24-19.42a46.66,46.66,0,0,1-.74-11.88c6.94,2.58,16.24,5.91,23.33,8,6.82,5.9,16,13.67,23.18,19.11v0c-7.17-5.63-16.64-13.27-23.43-19.35l0-.15c-7.14-2.26-16.64-5.4-23.61-8.15v.15a46.78,46.78,0,0,0,.74,11.89l0,.12.28.25c7.15,6.07,16.8,14.05,24.34,19.63,6.74,2.36,15.77,5.37,22.67,7.23Z" style="fill:#aa002d"/><path d="M290.87,447.13c8,1.57,18.73,3.57,26.81,4.77v0c-8-1.28-18.6-3.06-26.51-4.7-6-7.08-14-16.61-19.63-24q3.27-9,8-19.14c8.17,1.81,19.07,4.14,27.3,5.63,5.39,7.32,12.67,17,18.46,24,0-.08.07-.15.1-.22l.33,0c-5.75-7.17-13.3-16.83-18.64-24.32l-.33-.05c-8.31-1.59-19.38-3.79-27.62-5.72l-.09.21,0,0q-4.69,10.11-8,19.16v0L271,423c5.8,7.42,13.65,17.24,19.87,24.31l.05-.17Z" style="fill:#aa002d;opacity:0.4"/><path d="M310.66,482.13c7.74,1.22,18.07,2.74,25.85,3.56v0c-7.68-.9-17.92-2.19-25.55-3.49-7.09-5.57-16.45-13.11-23.16-19.11a111.19,111.19,0,0,1,3.56-15.42c7.92,1.54,18.51,3.51,26.5,4.69,6.45,5.87,15.14,13.6,22,19v0c-6.8-5.61-15.78-13.23-22.2-19.27l.06-.18c-8.07-1.29-18.81-3.1-26.81-4.77l-.05.17v0a113.11,113.11,0,0,0-3.57,15.42v0l0,.15c6.88,6,16.17,13.84,23.43,19.35v-.13Z" style="fill:#aa002d"/><path d="M362.76,510l-.32-.11,0-.11c-7.3-.5-17-1.26-24.31-2.19-7.95-3.94-18.51-9.32-26.19-13.77a44.51,44.51,0,0,1-.69-11.29c7.64,1.19,17.85,2.68,25.55,3.48,7.39,4.26,17.34,9.83,25,13.57v0c-7.69-3.92-17.89-9.3-25.3-13.74l0-.14c-7.77-.91-18.13-2.23-25.85-3.56v.15a44.13,44.13,0,0,0,.69,11.3l0,.12.3.18c7.84,4.37,18.39,10.07,26.51,13.91,7.36.83,17.18,1.82,24.57,2.22Z" style="fill:#aa002d;opacity:0.1"/><path d="M339.87,471.19c8.48.4,19.78.85,28.27,1v0c-8.38-.18-19.56-.47-27.94-.93-6.72-5.55-15.6-13.07-21.95-19q3.11-8.58,7.57-18.19c8.66.82,20.2,1.86,28.87,2.44,5.95,5.93,14,13.75,20.3,19.27l.09-.2h.34c-6.29-5.7-14.59-13.42-20.5-19.52l-.34,0c-8.67-.64-20.23-1.56-28.88-2.46l-.33,0-.1.22q-4.47,9.6-7.58,18.21v0l-.06.18c6.51,5.94,15.31,13.77,22.2,19.27l.05-.16Z" style="fill:#aa002d;opacity:0.4"/><polygon points="186.47 330.31 183.25 345.67 174.7 328.1 169.94 297.55 173 284.84 180.95 299.86 186.47 330.31" style="fill:#aa002d;opacity:0.5"/><polygon points="180.95 299.86 187.94 283.08 185.99 253.61 178.58 241.55 172.64 255.22 173 284.84 180.95 299.86" style="fill:#aa002d;opacity:0.30000000000000004"/><polygon points="264.15 455.14 287.8 463.06 310.66 482.13 311.2 492.76 293.82 489.16 264.67 467.02 264.15 455.14" style="fill:#aa002d;opacity:0.30000000000000004"/><polygon points="208.01 390.68 211.04 373.94 200.61 343.43 186.26 330.91 183.25 345.67 193.46 374.89 208.01 390.68" style="fill:#aa002d;opacity:0.8"/><polygon points="200.61 343.43 207.96 325.29 226.89 335.85 238.49 366.28 230.91 385.95 210.67 373.69 200.61 343.43" style="fill:#aa002d;opacity:0.1"/><polygon points="264.15 455.14 243.23 430.42 246.69 414.11 271.17 423.31 291.36 447.65 287.64 462.82 264.15 455.14" style="fill:#aa002d;opacity:0.2"/><polygon points="178.55 241.04 181.4 213.3 189.3 198.26 197.17 208.13 196.19 235.63 186.21 253.88 178.55 241.04" style="fill:#aa002d;opacity:0.1"/><polygon points="224.08 223.09 223.11 194.91 238.93 173.68 258.14 178.07 261.81 205.32 243.19 228.87 224.08 223.09" style="fill:#aa002d;opacity:0.02"/><polygon points="468.95 510.28 469.14 503.69 442.52 501.65 415.25 506.43 416.26 515.18 443.71 517.41 468.95 510.28" style="fill:#aa002d;opacity:0.02"/><polygon points="207.96 325.29 200.9 294.79 212.6 274.46 232.12 282.76 239.57 314.16 226.89 335.85 207.96 325.29" style="fill:#aa002d;opacity:0.06"/><polygon points="355.16 436.21 365.76 415.74 348.74 390.49 319.77 387.74 307.28 409.44 325.7 433.48 355.16 436.21" style="fill:#aa002d;opacity:0.05"/><path d="M239.86,365.56a1.46,1.46,0,1,0,.08,2.06A1.46,1.46,0,0,0,239.86,365.56Z" style="fill:#aa002d"/><path d="M208.9,324.82a1.46,1.46,0,0,0-2,2.14,1.46,1.46,0,1,0,2-2.14Z" style="fill:#aa002d"/><path d="M349.56,390.22a1.05,1.05,0,1,0-1.43,1.54,1.05,1.05,0,0,0,1.43-1.54Z" style="fill:#aa002d"/><path d="M307.85,408.19a1.55,1.55,0,1,0,.09,2.2A1.55,1.55,0,0,0,307.85,408.19Z" style="fill:#aa002d"/><path d="M326.42,432.85a1.49,1.49,0,1,0,.07,2.1A1.49,1.49,0,0,0,326.42,432.85Z" style="fill:#aa002d"/><path d="M318.77,451.17a1.06,1.06,0,0,0-1.49.05,1.05,1.05,0,1,0,1.49-.05Z" style="fill:#aa002d"/><path d="M292.5,446.37a1.66,1.66,0,0,0-2.26,2.44,1.66,1.66,0,1,0,2.26-2.44Z" style="fill:#aa002d"/><path d="M244.43,428.62a2.13,2.13,0,1,0,.11,3A2.14,2.14,0,0,0,244.43,428.62Z" style="fill:#aa002d"/><path d="M265.89,453.92a2.13,2.13,0,1,0,.11,3A2.14,2.14,0,0,0,265.89,453.92Z" style="fill:#aa002d"/><path d="M272.07,422.13a1.44,1.44,0,0,0-2,2.11,1.44,1.44,0,1,0,2-2.11Z" style="fill:#aa002d"/><path d="M280.4,402.89a1.46,1.46,0,1,0,.08,2.07A1.46,1.46,0,0,0,280.4,402.89Z" style="fill:#aa002d"/><path d="M608.89,409.62c.71-5.45,1.61-12.72,2.17-18.18l-.16.19-.13,0c-.59,5.51-1.41,12.86-2.16,18.36l.11,0a76.13,76.13,0,0,1,7.59,2.11l.05-.17.11-.14c-2.24-.75-5.27-1.65-7.58-2.16Z" style="fill:#aa002d;opacity:0.1"/><path d="M624.06,374.54l0,0a58.78,58.78,0,0,1,7.54,5.55c-1.55,5.77-3.66,13.46-5.48,19.16q-4.64,6.28-9.63,12.51,5-6.22,9.64-12.53c1.75-5.72,4-13.37,5.49-19.16a64.71,64.71,0,0,0-7.54-5.55Z" style="fill:#aa002d;opacity:0.1"/><path d="M641.39,365.59v0a47.21,47.21,0,0,1,1.06,9.32c-2.43,6-5.74,13.9-8.53,19.7q-3,4.74-6.55,9.81a15,15,0,0,0-1.1-5.28c1.76-5.72,4-13.38,5.52-19.17l-.12.17-.06-.07c-1.55,5.77-3.67,13.47-5.49,19.16l.09-.13a15.1,15.1,0,0,1,1.14,5.4l-.1.19q3.54-5.06,6.53-9.78l0-.1c2.73-5.91,6.27-13.85,8.64-19.92a46.22,46.22,0,0,0-1.06-9.32Z" style="fill:#aa002d;opacity:0.2"/><path d="M641.56,365.16c1.55-7.16,3.54-16.74,4.77-24l0,0c-1.32,7.3-3.17,17-4.83,24.23l-.09.15a46.55,46.55,0,0,1,1.06,9.32l.09-.25.08-.13c-.09-2.83-1-6.54-1.06-9.37Z" style="fill:#aa002d;opacity:0.2"/><path d="M654.47,326.47v0a95.55,95.55,0,0,1,1.34,12.95c-2,7.3-4.76,17-7.16,24.19q-2.67,5.22-6,10.9,3.36-5.68,6-10.91c2.29-7.21,5.25-16.87,7.16-24.19a93.65,93.65,0,0,0-1.35-13Z" style="fill:#aa002d;opacity:0.2"/><path d="M654.6,326c1-8.17,2.14-19.07,2.72-27.27v0c-.68,8.29-1.69,19.33-2.76,27.58l-.08.14a95.71,95.71,0,0,1,1.35,13l.07-.3L656,339c-.18-3.91-1.18-9.07-1.35-13Z" style="fill:#aa002d"/><path d="M663.22,284.57h0a154.5,154.5,0,0,1,2,16c-1.22,8.2-2.95,19.13-4.6,27.25-1.26,3.5-2.81,7.22-4.63,11.13q2.73-5.87,4.64-11.14c1.54-8.15,3.48-19,4.59-27.25a151.17,151.17,0,0,0-2-16Z" style="fill:#aa002d"/><path d="M660.49,328.36q-1.89,5.24-4.62,11.09c-2,7.3-4.78,17-7.19,24.2-.88,2.74-1.92,6.45-3,9.11,2.18-5,5-11.67,7-16.73,1.51-4.41,3.62-10.25,5-14.71.92-3.87,2.25-9,2.86-13Zm0-.2c-.8,3.95-1.78,9.25-2.88,13.14-1.49,4.42-3.37,10.36-5,14.73-2,5.06-4.79,11.77-7,16.75.94-2.77,2.37-6.42,3.06-9.27l-.05.11c2.29-7.21,5.25-16.87,7.16-24.19l.07-.3q2.77-6,4.7-11.28l-.07.31Z" style="fill:#aa002d;opacity:0.2"/><path d="M665.19,300.8v-.2c-1.22,8.2-2.94,19.13-4.59,27.25l-.07.31c-.8,3.95-1.78,9.25-2.88,13.14l.14-.47c.91-3.86,2.23-9,2.83-12.92,1.54-8.14,3.5-19,4.61-27.24l0,.13Z" style="fill:#aa002d"/><path d="M667.63,290.24h0l-.52,6v0l.52-5.93Z" style="fill:#aa002d"/><path d="M665.8,242.25v0c1.06,5.54,2.34,13,2.86,18.59-.12,8.66-.38,20.2-1,28.84a75.8,75.8,0,0,1-2.41,10.44,154.93,154.93,0,0,0-2-16.07c0-8.74,0-20.39-.42-29.12h0c.29,8.84.56,20.63.41,29.47l0,.14a154.48,154.48,0,0,1,2,16v.2l0-.13a75.57,75.57,0,0,0,2.41-10.42h0l0-.22c.48-8.75,1-20.42,1-29.17-.66-5.61-1.66-13.08-2.85-18.6Z" style="fill:#aa002d"/><path d="M668.67,261.08l0-.23c-.12,8.75-.4,20.43-1,29.17l0,.22-.52,5.93.07-.61.5-5.77c.47-8.64,1-20.17,1-28.83v.12Z" style="fill:#aa002d"/><path d="M668.65,260.39c-.66-5.61-1.66-13.09-2.87-18.62-1.16-8.88-2.82-20.72-4.47-29.53h0c1.54,8.94,3.46,20.88,4.51,29.88l0,.12c1.05,5.55,2.33,13,2.85,18.6l0,.23V261c.07-1.21.08-2.38.05-3.51l0-.67c0,1.16,0,2.36-.05,3.61Z" style="fill:#aa002d"/><path d="M660.57,201.51l.09.33,0,.11,1,3.78-.18-.76-.91-3.46Z" style="fill:#aa002d"/><path d="M657.24,298.9a114.75,114.75,0,0,0-7.46-12.54v0a114.14,114.14,0,0,1,7.4,12.39c-.67,8.19-1.65,19.12-2.7,27.27q-3.62,7.06-8.16,14.74a79.36,79.36,0,0,0-7.3-9.23c.37-8.18.79-19.09.85-27.27v0c-.15,8.18-.4,19.1-.86,27.27a75.36,75.36,0,0,1,7.37,9.35l-.05.29,0,0q4.53-7.65,8.14-14.7v0l.08-.14c1-8.26,2.17-19.29,2.76-27.58l-.07.15Z" style="fill:#aa002d"/><path d="M639,331.57a77.5,77.5,0,0,1,7.37,9.35l-.05.29c-1.24,7.31-3.25,17-4.83,24.23l-.09.15v0q-4.39,6.94-9.6,14.38l-.12.17-.06-.07a59.49,59.49,0,0,0-7.54-5.55l-.12-.06c.86-7.15,1.74-16.73,2.37-23.91l.13.07.16-.22c-.57,7.11-1.57,16.57-2.36,23.66a65,65,0,0,1,7.54,5.59q5.22-7.44,9.63-14.43c1.63-7.14,3.43-16.75,4.74-24a75.19,75.19,0,0,0-7.31-9.19l.13-.21,0-.31Z" style="fill:#aa002d;opacity:0.1"/><path d="M662.82,255.1a161.89,161.89,0,0,0-7.9-15.19v0a160.74,160.74,0,0,1,7.83,15c.29,8.73.58,20.39.44,29.13q-2.43,6.69-5.9,14.17a118.42,118.42,0,0,0-7.4-12.41c-.42-8.81-1.07-20.55-1.87-29.32v0c.71,8.89,1.55,20.74,1.87,29.65l-.09.18a114.11,114.11,0,0,1,7.46,12.54l.07-.15v0q3.48-7.47,5.89-14.15h0l0-.14c0-8.84,0-20.64-.41-29.47l0,.14Z" style="fill:#aa002d"/><path d="M661.31,212.37c-2.37-5.29-5.68-12.3-8.59-17.32v0c2.74,5,6.29,11.82,8.51,17.1,1.52,8.84,3.44,20.64,4.48,29.55a92.61,92.61,0,0,1-2.94,12.7,162.57,162.57,0,0,0-7.83-15c-1.5-9-3.6-21-5.54-29.91v0c1.84,9.05,4.19,21.14,5.59,30.26l-.06.17a162,162,0,0,1,7.9,15.19l0-.14h0a93.27,93.27,0,0,0,2.92-12.68v0l0-.12c-1.17-9-2.85-21-4.51-29.88v.12Z" style="fill:#aa002d"/><path d="M660.53,201.38a40.23,40.23,0,0,1,.63,10.31c-2.36-5.24-5.63-12.17-8.51-17.14-2.81-8.8-6.67-20.5-10-29.12v0c3.2,8.77,7.35,20.52,10,29.46l0,.14c2.78,5.09,6.35,12,8.59,17.32v-.12h0a40.07,40.07,0,0,0-.63-10.29l0-.11-.09-.33c-2.1-7-4.81-16.43-7.25-23.35l-1.08-2.91c2.62,7.8,6.36,18.14,8.29,26.13Z" style="fill:#aa002d"/><path d="M641.81,153.63l.15.33,0,.12c2.91,5.39,6.71,12.64,9.13,18.28l-.31-.78c-2.54-5.47-6-12.73-9-18Z" style="fill:#aa002d"/><path d="M647.92,256.71c-3.88-3.63-9.16-8.37-13.38-11.59v0c4.1,3.29,9.51,7.76,13.24,11.45.7,8.78,1.56,20.51,1.88,29.32q-4.38,8.58-9.92,17.93c-3.87-2.81-9.12-6.44-13.24-8.84-.84-8.88-2-20.71-3.21-29.55v0c1.09,8.95,2.47,20.9,3.23,29.88l-.14.22c4.11,2.52,9.55,6,13.37,8.92l.12-.2v0q5.52-9.33,9.91-17.9v0l.09-.18c-.41-8.9-1.07-20.77-1.87-29.65l-.08.18Z" style="fill:#aa002d"/><path d="M649.34,209.64c-4-4.26-9.36-9.84-13.71-13.69v0c4.22,3.9,9.77,9.21,13.58,13.51,1.82,8.94,4.16,20.9,5.55,29.92q-2.84,7.84-6.91,16.61c-3.84-3.6-9.06-8.29-13.24-11.48-1.83-9.11-4.36-21.25-6.59-30.27v0c2.14,9.15,4.91,21.38,6.65,30.62l-.11.2c4.14,3.32,9.6,7.85,13.38,11.59l.08-.18v0c2.71-5.83,5-11.37,6.9-16.58v0l.06-.17c-1.51-9.11-3.63-21.24-5.59-30.26l0,.16Z" style="fill:#aa002d"/><path d="M642.68,165.58c-4.12-4.73-9.73-10.93-14.28-15.24h0c4.39,4.37,10.17,10.29,14.13,15.05,3.17,8.68,7.29,20.29,10,29.13a106.14,106.14,0,0,1-3.32,14.41c-3.93-4.21-9.27-9.73-13.58-13.54-3.06-8.93-7.25-20.81-10.77-29.58v0c3.44,8.92,7.91,20.85,10.88,29.93l-.07.18c4.26,4,9.87,9.33,13.71,13.69l0-.16v0a106.25,106.25,0,0,0,3.32-14.39v0l0-.14c-2.82-8.9-6.73-20.74-10-29.46v.13Z" style="fill:#aa002d"/><path d="M623.14,265.7c-5.65-2.63-13.22-6-19-8.32l0,0c5.7,2.34,13.28,5.52,18.82,8.22,1.09,8.85,2.46,20.66,3.22,29.54q-6.57,10.41-14.36,21.53c-5.71-1.82-13.34-4.18-19.1-5.78-1.24-8.95-2.94-20.88-4.41-29.79l-.2.28-.26-.07c1.42,9,3.27,21.07,4.46,30.13l.24.06c5.76,1.65,13.42,3.88,19.1,5.76l.21.07.18-.26q7.79-11.09,14.35-21.49v0l.14-.22c-.84-9-2.06-20.94-3.23-29.88l-.13.22Z" style="fill:#aa002d;opacity:0.2"/><path d="M627.9,214.49c-5.62-3.25-13.2-7.48-19-10.33l0,0c5.73,2.92,13.34,6.89,18.85,10.21,2.13,9.05,4.88,21.14,6.6,30.28q-5,9.72-11.26,20.33c-5.58-2.61-13.08-6-18.81-8.25-2.1-9.25-5-21.57-7.46-30.73l0,0c2.4,9.29,5.51,21.71,7.53,31.09l-.15.24c5.76,2.36,13.42,5.59,19,8.32l.13-.22v0q6.27-10.58,11.25-20.31v0l.11-.2c-1.84-9.22-4.4-21.5-6.65-30.62l-.1.19Z" style="fill:#aa002d;opacity:0.4"/><path d="M624.77,166c-5.72-3.69-13.42-8.49-19.39-11.74v0c5.85,3.32,13.61,7.84,19.19,11.6,3.4,8.81,7.83,20.6,10.77,29.58-2.08,5.75-4.62,11.87-7.62,18.3-5.57-3.21-13.06-7.39-18.84-10.22-3.28-9.08-7.77-21.16-11.49-30.08v0c3.65,9.06,8.4,21.2,11.6,30.43l-.11.22c5.79,3,13.48,7,19,10.33l.1-.19v0q4.49-9.65,7.61-18.29v0l.07-.18c-3.09-9-7.32-21.06-10.88-29.93l-.05.18Z" style="fill:#aa002d"/><path d="M611.8,109.94l.21.3,0,.12c4.59,4.69,10.64,11,14.78,16.12,4.65,8,10.74,18.77,14.88,27.06a44.13,44.13,0,0,1,.7,11.36c-4.08-4.66-9.63-10.8-14.13-15.06-4.47-8.37-10.54-19.48-15.49-27.57h0c4.88,8.27,11.27,19.37,15.64,27.91l0,.15c4.45,4.41,10.28,10.41,14.28,15.24v-.15a44.93,44.93,0,0,0-.7-11.35l0-.12-.15-.33c-4.33-8.31-10.24-19.33-15.08-27.36-4.3-5-10.18-11.7-14.93-16.33Z" style="fill:#aa002d"/><path d="M571.19,72.77l.28.25,0,.12c6,3.51,14,8.3,19.66,12.32,6.32,7.18,14.64,16.85,20.48,24.43a46.9,46.9,0,0,1,.74,11.91c-5.81-3.91-13.64-9-19.74-12.45-6-7.43-14-17.26-20.4-24.32v0c6.28,7.16,14.56,16.8,20.4,24.32,6.09,3.61,14.16,8.52,19.94,12.6l.21.31h0a46.9,46.9,0,0,0-.74-11.91l0-.12-.21-.3c-6-7.56-14.22-17.55-20.73-24.7-5.84-3.93-13.72-9.06-19.88-12.47Z" style="fill:#aa002d"/><path d="M592.63,109.37l.23.31,0,.17c6,3.56,14,8.41,19.73,12.43,4.82,8.17,11.16,19.14,15.49,27.58a113.82,113.82,0,0,1-3.57,15.48c-5.66-3.64-13.29-8.39-19.2-11.61-4.65-8.52-11-19.82-16.11-28v0c5.06,8.41,11.7,19.7,16.27,28.39l-.06.19c5.91,3.36,13.75,7.94,19.39,11.74l.05-.18v0a113.36,113.36,0,0,0,3.57-15.47h0l0-.15c-4.5-8.48-10.64-19.72-15.64-27.91l-.21-.31c-5.86-4-13.78-9.11-19.94-12.6Z" style="fill:#aa002d"/><path d="M596.6,226.29c-7.25-2.39-16.93-5.49-24.26-7.6l0,0c7.23,2.15,16.86,5.07,24,7.5,2.37,9.19,5.46,21.47,7.47,30.74Q596.55,268.44,588,280.7c-7.23-1.8-16.87-4.15-24.13-5.8-2.33-9.42-5.5-22-8.1-31.31l0,0c2.56,9.47,5.9,22.12,8.18,31.66l-.19.26c7.25,1.69,16.91,4,24.13,5.79l.26.07.2-.28q8.6-12.24,15.83-23.72l0,0,.15-.24c-2.11-9.36-5-21.83-7.53-31.09l-.14.24Z" style="fill:#aa002d;opacity:0.2"/><path d="M597.27,173.72c-7.28-2.78-17-6.38-24.43-8.82l0,0c7.3,2.49,17,5.87,24.18,8.7,3.6,9,8.32,21,11.49,30.09q-5.36,10.46-12.1,21.84c-7.17-2.36-16.75-5.43-24-7.51-3.43-9.29-8.1-21.65-11.94-30.77l0,0c3.78,9.28,8.71,21.69,12.06,31.13l-.15.25c7.31,2.17,17,5.13,24.26,7.6l.14-.24,0,0q6.74-11.37,12.08-21.84l0,0,.11-.22c-3.31-9.19-7.84-21.41-11.6-30.43l-.1.21Z" style="fill:#aa002d;opacity:0.4"/><path d="M589.11,125.88c-7.21-2.84-16.89-6.51-24.27-8.89v0c7.26,2.47,16.92,5.85,24,8.77,5,8.31,11.59,19.47,16.11,28.06q-3.27,9.06-8,19.19c-7.21-2.74-16.86-6.31-24.18-8.72-4.63-8.53-10.9-19.85-15.93-28.15l0,0c5,8.46,11.53,19.81,16.11,28.49l-.11.22c7.37,2.52,17.19,5.95,24.43,8.82l.1-.21v0q4.71-10.11,8-19.18v0l.06-.19c-4.69-8.62-11.09-20.05-16.27-28.39l-.06.18Z" style="fill:#aa002d;opacity:0.4"/><path d="M555.51,243.89l.18-.26c2.56,9.47,5.9,22.12,8.18,31.66l-.19.26,0,0q-9.3,12.6-19.28,25.06l0,0-.21.26-28.3-5.47-.34-.07c-2.69-9.48-6.34-22.11-9.25-31.52l-.11-.37q10.33-12.88,20-26l.12.37c8.78,1.77,20.49,4.14,29.26,6ZM526.58,238q-9.51,12.9-19.73,25.65c2.82,9.33,6.53,21.78,9.13,31.17,8.4,1.62,19.6,3.78,28,5.42q10-12.45,19.29-25.08c-2.33-9.42-5.5-22-8.11-31.31-8.57-1.78-20-4.13-28.58-5.85Zm28.93,5.89.18-.26c2.56,9.47,5.9,22.12,8.18,31.66l-.19.26,0,0q-9.3,12.6-19.28,25.06l0,0-.21.26-28.3-5.47-.34-.07c-2.69-9.48-6.34-22.11-9.25-31.52l-.11-.37q10.33-12.88,20-26l.12.37c8.78,1.77,20.49,4.14,29.26,6Z" style="fill:#aa002d;opacity:0.01"/><path d="M560.29,187.55c-8.51-2-19.87-4.56-28.44-6.25l0,0c8.46,1.74,19.73,4.13,28.12,6.17,3.73,9.17,8.62,21.45,11.94,30.78q-7.59,12-16.6,24.88c-8.57-1.79-20-4.15-28.59-5.87-3.35-9.37-7.86-21.85-11.44-31.13l-.21.3-.36-.06c3.52,9.31,8.15,21.74,11.44,31.13l.12.37c8.78,1.77,20.49,4.14,29.26,6l.18-.26,0,0q9-12.83,16.6-24.87l0,0,.15-.25c-3.45-9.4-8.18-21.9-12.06-31.13l-.14.24Z" style="fill:#aa002d;opacity:0.1"/><path d="M556.75,136.4c-8.26-1.84-19.3-4.21-27.62-5.72l0,0c8.22,1.57,19.17,3.74,27.32,5.65,4.92,8.36,11.39,19.56,15.92,28.15Q566.88,175.2,560,186.84c-8.41-2-19.65-4.5-28.12-6.16-4.3-8.54-10.12-19.88-14.8-28.21l-.15.27-.35-.05c4.63,8.49,10.7,19.86,15,28.55l.34.06c8.56,1.76,19.95,4.18,28.44,6.25l.14-.24,0,0q6.9-11.64,12.37-22.35l0,0,.11-.22c-4.68-8.63-11-20.09-16.11-28.49l-.09.21Z" style="fill:#aa002d;opacity:0.1"/><path d="M481.28,103.85v0c8.67.65,20.23,1.57,28.88,2.46,5.67,7.09,13.15,16.63,18.43,24q-5.33,10.41-12,21.75c-8.91-1.16-20.8-2.67-29.74-3.64-4.87-7.42-11.45-17.26-16.7-24.41l0,0c5.22,7.31,12.07,17.14,16.89,24.71l-.15.23c8.93,1,20.84,2.44,29.74,3.67l.35.05.15-.27q6.72-11.34,12.05-21.77l0,0-.33-.06c-5.44-7.41-12.79-17.22-18.64-24.31-8.66-.83-20.2-1.88-28.88-2.46Z" style="fill:#aa002d;opacity:0.1"/><path d="M572.22,85.18c-7-2.63-16.43-6-23.61-8.15h0c7.06,2.24,16.45,5.33,23.34,8,6.29,7.16,14.56,16.8,20.41,24.32a116.43,116.43,0,0,1-3.66,15.83c-7.14-2.79-16.71-6.41-24-8.76-5.75-7.33-13.5-17-19.65-24v0c6.12,7.16,14.17,16.81,19.87,24.31l-.07.19c7.34,2.49,17.1,5.93,24.27,8.89l.06-.18v0a116.77,116.77,0,0,0,3.66-15.83l0-.17-.23-.31c-6-7.43-14-17.27-20.4-24.32v.13Z" style="fill:#aa002d"/><path d="M524.18,45.91l.3.18,0,.12c6.78,2,15.8,4.68,22.43,7.14C554.29,59,564,66.65,571,72.77a46.69,46.69,0,0,1,.73,11.88c-6.94-2.58-16.24-5.92-23.33-8-6.82-5.9-16-13.67-23.18-19.11v0c7.17,5.63,16.64,13.26,23.43,19.35l0,.15c7.14,2.26,16.64,5.4,23.61,8.15V85a46.78,46.78,0,0,0-.74-11.89l0-.12-.28-.25c-7.15-6.07-16.8-14-24.34-19.63-6.73-2.36-15.77-5.37-22.67-7.23Z" style="fill:#aa002d"/><path d="M545,92.66c-8-1.57-18.73-3.57-26.81-4.77v0c8,1.28,18.6,3.06,26.51,4.7,6.05,7.08,14,16.6,19.63,24q-3.27,9-8,19.15c-8.17-1.81-19.07-4.15-27.3-5.63-5.39-7.32-12.67-17-18.46-24l-.1.22-.33,0c5.75,7.17,13.3,16.83,18.64,24.31l.33.06c8.31,1.59,19.38,3.79,27.62,5.72l.09-.21,0,0q4.7-10.09,8-19.15v0l.07-.19c-5.8-7.42-13.65-17.24-19.87-24.31l0,.17Z" style="fill:#aa002d;opacity:0.4"/><path d="M525.2,57.65c-7.74-1.21-18.07-2.73-25.85-3.55v0c7.68.9,17.93,2.19,25.55,3.49,7.09,5.57,16.45,13.11,23.17,19.11a112.77,112.77,0,0,1-3.57,15.42c-7.92-1.55-18.51-3.51-26.5-4.69-6.45-5.87-15.14-13.6-22-19v0c6.8,5.61,15.78,13.23,22.21,19.27l-.07.18C526.25,89.18,537,91,545,92.66l0-.17v0A114.27,114.27,0,0,0,548.61,77h0l0-.15c-6.88-6-16.17-13.84-23.43-19.35v.12Z" style="fill:#aa002d"/><path d="M473.1,29.78l.32.11,0,.11c7.3.5,17,1.26,24.31,2.19,7.95,3.94,18.51,9.32,26.19,13.77a44.05,44.05,0,0,1,.69,11.29c-7.64-1.19-17.85-2.68-25.54-3.48-7.4-4.26-17.35-9.83-25-13.57v0c7.69,3.92,17.89,9.3,25.3,13.74l0,.14c7.77.91,18.13,2.23,25.85,3.55v-.14a44.13,44.13,0,0,0-.69-11.3l0-.12-.3-.18c-7.84-4.37-18.39-10.07-26.51-13.91-7.35-.83-17.18-1.83-24.57-2.22Z" style="fill:#aa002d;opacity:0.1"/><path d="M496,68.6c-8.48-.4-19.78-.85-28.27-1v0c8.38.18,19.56.47,27.94.93,6.72,5.55,15.6,13.07,21.95,19q-3.11,8.58-7.57,18.19c-8.66-.82-20.2-1.86-28.87-2.44-5.95-5.93-14-13.75-20.3-19.27l-.09.2h-.34c6.29,5.7,14.59,13.42,20.5,19.52l.34,0c8.67.64,20.23,1.56,28.88,2.46l.33,0,.1-.22q4.47-9.6,7.58-18.21v0l.07-.18c-6.52-5.94-15.32-13.77-22.21-19.27l-.05.16Z" style="fill:#aa002d;opacity:0.4"/><path d="M474.06,40.33c-8.13.11-19,.35-27.11.78h0c8-.35,18.76-.75,26.8-.78,7.6,3.88,17.69,9.18,25,13.57a106.21,106.21,0,0,1-3.3,14.28c-8.38-.38-19.55-.81-27.94-.91-6.93-4.27-16.25-9.85-23.47-13.61v0c7.24,3.94,16.82,9.34,23.74,13.79l-.06.16c8.49.18,19.8.49,28.27,1l.05-.16v0a105.05,105.05,0,0,0,3.31-14.3v0l0-.14c-7.48-4.32-17.54-10-25.3-13.74v.11Z" style="fill:#aa002d;opacity:0.1"/><path d="M419.85,24.33l.32.05,0,.09c7.58-.89,17.7-2,25.31-2.53,8.26,2.17,19.24,5.2,27.33,7.93a40.21,40.21,0,0,1,.63,10.19c-8,.12-18.76.36-26.78.8-7.72-2.53-18.07-5.77-25.95-7.73v0c7.93,2.13,18.48,5.13,26.24,7.84l0,.12c8.13-.36,19-.75,27.11-.78V40.2a40.32,40.32,0,0,0-.63-10.2l0-.11-.32-.11c-8.24-2.62-19.27-6-27.67-8-7.68.63-17.93,1.57-25.58,2.56Z" style="fill:#aa002d;opacity:0.1"/><path d="M420.72,33.24c-8.23,1.37-19.2,3.25-27.38,4.88h0c8.1-1.54,18.92-3.55,27.06-4.83,7.84,2.11,18.27,5.06,25.93,7.73a91.94,91.94,0,0,1-2.89,12.53c-8.51.7-19.84,1.69-28.33,2.61-7.17-2.55-16.79-5.82-24.14-7.78h0c7.39,2.15,17.22,5.16,24.42,7.9l-.05.14c8.59-.87,20.05-2,28.66-2.61l0-.14v0A92.3,92.3,0,0,0,447,41.12h0l0-.12c-7.81-2.57-18.27-5.86-26.24-7.84v.09Z" style="fill:#aa002d;opacity:0.1"/><path d="M626.07,399.52q-4.62,6.27-9.58,12.46c-1.33,3.87-3.14,9-4.72,12.81l1.2.7c0,.17-.08.39-.11.55.74-.92,1.48-1.86,2.2-2.79,1.32-1.74,3.09-4,4.38-5.8,2.41-3.75,5.61-8.77,7.73-12.7a14.78,14.78,0,0,0-1.1-5.23Zm.13-.4a15.1,15.1,0,0,1,1.14,5.4l-.1.19c-2.21,3.8-5.14,8.9-7.64,12.52-1.59,2.11-3.7,4.94-5.32,7l-.55.71-1,1.29-.13-.85-.95-.37h0c1.52-3.84,3.46-9,4.73-12.93l.05-.17q5-6.29,9.75-12.67l.09-.13Z" style="fill:#aa002d;opacity:0.1"/><path d="M648.52,364.05q-2.65,5.19-6,10.84c-2.43,6-5.76,13.91-8.57,19.72l-1.46,3.14c5.59-9.74,7.28-12.78,13-24.67.92-2.7,2.33-6.26,3-9Zm.19-.54c-.89,2.79-1.94,6.56-3.06,9.27-5.13,10.6-6.35,13.12-13.33,25.24l1.45-3.09,0-.1c2.73-5.91,6.27-13.85,8.64-19.92l.09-.25c2.27-3.83,4.31-7.52,6.12-11l.05-.11Z" style="fill:#aa002d;opacity:0.2"/><path d="M340.42,45.2h0c7.89-2.69,18.41-6.23,26.37-8.69,7.79.27,18.19.77,25.93,1.64a73.75,73.75,0,0,1-2.36,10.22c-8.32,1.71-19.41,4-27.69,5.93-7.17-.71-16.77-1.52-24-1.6l0,.09-.31.1c7.29.25,17,.76,24.24,1.65l.31-.07c8.4-1.86,19.6-4.29,28-6l0-.12h0a75.82,75.82,0,0,0,2.37-10.26h0l-.32.07c-7.85-.74-18.35-1.56-26.23-1.68-7.94,2.52-18.5,5.94-26.37,8.69Z" style="fill:#aa002d;opacity:0.05"/><path d="M366.36,29.53l.31,0v.07c7.6-2.23,17.74-5.13,25.42-7.07,8.25.38,19.26,1,27.47,1.95a34,34,0,0,1,.54,8.65c-8.14,1.36-19,3.24-27.06,4.86-7.76-.72-18.15-1.53-25.95-1.64v.09l-.31.09c7.88.27,18.4.79,26.23,1.68l.32-.07c8.2-1.56,19.14-3.58,27.38-4.88v-.11a34,34,0,0,0-.54-8.66l0-.09-.32-.05c-8.32-.81-19.45-1.74-27.81-1.95-7.74,2-18,4.82-25.68,7.15Z" style="fill:#aa002d;opacity:0.05"/><polygon points="649.39 209.48 652.61 194.12 666.49 216.17 667.8 234.38 662.87 254.95 654.91 239.93 649.39 209.48" style="fill:#aa002d;opacity:0.5"/><polygon points="654.91 239.93 647.92 256.71 649.87 286.18 657.28 298.24 663.22 284.57 662.87 254.95 654.91 239.93" style="fill:#aa002d;opacity:0.30000000000000004"/><polygon points="571.71 84.65 548.07 76.72 525.2 57.66 524.66 47.02 542.04 50.63 571.2 72.77 571.71 84.65" style="fill:#aa002d;opacity:0.30000000000000004"/><polygon points="627.85 149.1 624.7 164.6 635.25 196.36 649.6 208.88 656.58 189.32 638.87 154.96 627.85 149.1" style="fill:#aa002d"/><polygon points="635.25 196.36 627.9 214.5 608.97 203.94 597.37 173.51 604.95 153.84 625.2 166.1 635.25 196.36" style="fill:#aa002d;opacity:0.1"/><polygon points="571.71 84.65 592.63 109.37 589.17 125.68 564.7 116.48 544.5 92.14 548.22 76.97 571.71 84.65" style="fill:#aa002d;opacity:0.2"/><polygon points="657.31 298.75 654.47 326.49 646.56 341.53 638.69 331.66 639.67 304.16 649.65 285.91 657.31 298.75" style="fill:#aa002d;opacity:0.1"/><polygon points="611.78 316.7 612.75 344.87 596.93 366.11 577.72 361.71 574.05 334.47 592.68 310.92 611.78 316.7" style="fill:#aa002d;opacity:0.02"/><polygon points="366.91 29.51 366.72 36.09 393.34 38.13 420.61 33.36 419.6 24.6 392.15 22.38 366.91 29.51" style="fill:#aa002d;opacity:0.05"/><polygon points="627.9 214.5 634.97 245 623.26 265.33 603.75 257.03 596.29 225.63 608.97 203.94 627.9 214.5" style="fill:#aa002d;opacity:0.06"/><polygon points="480.7 103.58 470.1 124.05 487.12 149.3 516.09 152.04 528.58 130.35 510.16 106.31 480.7 103.58" style="fill:#aa002d;opacity:0.05"/><path d="M596,174.23a1.46,1.46,0,1,0-.08-2.06A1.45,1.45,0,0,0,596,174.23Z" style="fill:#aa002d"/><path d="M627,215a1.46,1.46,0,0,0,2-2.14,1.46,1.46,0,1,0-2,2.14Z" style="fill:#aa002d"/><path d="M486.3,149.57a1.05,1.05,0,1,0,1.43-1.54,1,1,0,0,0-1.48.05A1.06,1.06,0,0,0,486.3,149.57Z" style="fill:#aa002d"/><path d="M528,131.6a1.55,1.55,0,1,0-.09-2.2A1.55,1.55,0,0,0,528,131.6Z" style="fill:#aa002d"/><path d="M509.44,106.94a1.49,1.49,0,1,0-.07-2.1A1.49,1.49,0,0,0,509.44,106.94Z" style="fill:#aa002d"/><path d="M517.1,88.62a1,1,0,0,0,1.48-.05A1.05,1.05,0,1,0,517,87.14,1,1,0,0,0,517.1,88.62Z" style="fill:#aa002d"/><path d="M543.36,93.42a1.67,1.67,0,0,0,2.35-.09,1.66,1.66,0,0,0-2.44-2.26A1.67,1.67,0,0,0,543.36,93.42Z" style="fill:#aa002d"/><path d="M591.44,111.17a2.13,2.13,0,1,0-.12-3A2.13,2.13,0,0,0,591.44,111.17Z" style="fill:#aa002d"/><path d="M570,85.86a2.13,2.13,0,1,0-.11-3A2.13,2.13,0,0,0,570,85.86Z" style="fill:#aa002d"/><path d="M563.79,117.66a1.44,1.44,0,1,0-.08-2A1.43,1.43,0,0,0,563.79,117.66Z" style="fill:#aa002d"/><path d="M555.46,136.9a1.46,1.46,0,0,0,2-2.15,1.48,1.48,0,0,0-2.07.08A1.46,1.46,0,0,0,555.46,136.9Z" style="fill:#aa002d"/><path d="M168.23,249.55h0l.52-6v0l-.52,5.94Z" style="fill:#aa002d"/><path d="M170.06,297.54v0c-1.06-5.54-2.34-13-2.86-18.59.12-8.66.38-20.2,1-28.84a76.25,76.25,0,0,1,2.41-10.45,152.14,152.14,0,0,0,2,16.08c0,8.74,0,20.39.42,29.12h0c-.29-8.84-.56-20.63-.41-29.47l0-.14a154.48,154.48,0,0,1-2-16V239l0,.13a75.57,75.57,0,0,0-2.41,10.42h0l0,.22c-.48,8.74-1,20.42-1,29.17.66,5.61,1.66,13.08,2.85,18.6Z" style="fill:#aa002d"/><path d="M167.19,278.71l0,.23c.12-8.75.4-20.43,1-29.17l0-.22.52-5.94-.07.62-.5,5.77c-.47,8.64-1,20.17-1,28.83v-.12Z" style="fill:#aa002d"/><path d="M167.21,279.4c.66,5.61,1.67,13.09,2.87,18.61,1.16,8.89,2.82,20.73,4.47,29.54v0c-1.54-8.93-3.46-20.87-4.5-29.87v-.12c-1.05-5.55-2.33-13-2.85-18.6l0-.23v.12c-.07,1.21-.08,2.38-.05,3.51l0,.67c0-1.16,0-2.36.05-3.61Z" style="fill:#aa002d"/><path d="M175.29,338.28l-.09-.33,0-.11-1-3.78.18.76.91,3.46Z" style="fill:#aa002d"/><path d="M173,284.68a160.83,160.83,0,0,0,7.9,15.2v0a162,162,0,0,1-7.83-15c-.29-8.73-.58-20.39-.44-29.13q2.43-6.69,5.9-14.17A116.8,116.8,0,0,0,186,254c.41,8.81,1.06,20.54,1.86,29.32v0c-.7-8.89-1.55-20.75-1.87-29.65l.09-.18a115,115,0,0,1-7.46-12.54l-.07.15v0c-2.32,5-4.28,9.7-5.89,14.15h0l0,.14c0,8.84,0,20.64.41,29.47l0-.15Z" style="fill:#aa002d"/><path d="M174.55,327.42c2.37,5.29,5.68,12.3,8.59,17.32v0c-2.74-5-6.29-11.82-8.51-17.11-1.52-8.83-3.44-20.63-4.48-29.54a92.27,92.27,0,0,1,2.94-12.7,162.57,162.57,0,0,0,7.83,15.05c1.5,9,3.61,21,5.55,29.91v0c-1.84-9.05-4.19-21.14-5.59-30.26l.06-.17a160.92,160.92,0,0,1-7.9-15.2l0,.15h0a91.92,91.92,0,0,0-2.93,12.68v.14c1.16,9,2.84,21,4.5,29.87v-.11Z" style="fill:#aa002d"/><path d="M175.33,338.41a40.23,40.23,0,0,1-.63-10.31c2.36,5.24,5.63,12.17,8.51,17.14,2.81,8.8,6.67,20.49,10,29.12v0c-3.2-8.77-7.35-20.52-10-29.46l0-.14c-2.78-5.09-6.35-12-8.59-17.32v.13a40.07,40.07,0,0,0,.63,10.29l0,.11.09.33c2.1,7,4.81,16.43,7.25,23.35l1.08,2.91c-2.62-7.8-6.36-18.14-8.29-26.13Z" style="fill:#aa002d"/><path d="M194.05,386.16l-.15-.33,0-.12c-2.92-5.39-6.72-12.64-9.14-18.28l.31.78c2.54,5.46,6,12.73,9,18Z" style="fill:#aa002d"/><path d="M193.18,374.21c4.12,4.73,9.74,10.93,14.28,15.24h0c-4.39-4.37-10.17-10.29-14.13-15.05-3.17-8.68-7.29-20.3-10-29.14a105,105,0,0,1,3.33-14.4c3.92,4.21,9.26,9.73,13.58,13.54,3,8.93,7.24,20.81,10.77,29.57v0C207.6,365,203.13,353.1,200.17,344l.06-.19c-4.26-3.95-9.86-9.32-13.71-13.68l-.05.16v0a106.25,106.25,0,0,0-3.32,14.39v0l0,.14c2.82,8.9,6.73,20.74,10,29.46v-.13Z" style="fill:#aa002d"/><path d="M211.09,373.77c5.72,3.69,13.42,8.49,19.4,11.74v0c-5.85-3.33-13.6-7.85-19.19-11.6-3.4-8.81-7.83-20.6-10.77-29.58q3.12-8.64,7.62-18.31c5.57,3.22,13.07,7.4,18.84,10.23,3.28,9.08,7.77,21.16,11.49,30.07v0c-3.65-9.07-8.4-21.2-11.6-30.43l.11-.22c-5.79-2.95-13.48-7-19-10.34l-.1.2v0q-4.48,9.64-7.61,18.29v0l-.06.19c3.08,9,7.32,21.06,10.87,29.92l.05-.17Z" style="fill:#aa002d"/><path d="M224.06,429.85l-.21-.3,0-.12c-4.59-4.69-10.63-11-14.78-16.12-4.65-8-10.74-18.77-14.88-27.06a44.58,44.58,0,0,1-.7-11.36c4.08,4.66,9.63,10.8,14.13,15.06,4.47,8.37,10.54,19.48,15.49,27.57v0c-4.89-8.26-11.28-19.36-15.65-27.9l0-.15C203,385,197.18,379,193.18,374.21v.15a44.45,44.45,0,0,0,.71,11.35l0,.12.15.33c4.33,8.31,10.24,19.33,15.08,27.36,4.3,5.05,10.18,11.69,14.93,16.33Z" style="fill:#aa002d"/><path d="M264.67,467l-.28-.25,0-.12c-6-3.51-14-8.3-19.66-12.32-6.32-7.18-14.64-16.86-20.48-24.43A46.48,46.48,0,0,1,223.5,418c5.8,3.91,13.64,9,19.73,12.44,6,7.44,14,17.27,20.4,24.33v0c-6.29-7.16-14.57-16.8-20.41-24.33-6.09-3.6-14.16-8.52-19.94-12.59l-.2-.32v0a46.9,46.9,0,0,0,.74,11.91l0,.12.21.3c6,7.56,14.22,17.55,20.74,24.7,5.83,3.93,13.71,9.06,19.87,12.47Z" style="fill:#aa002d"/><path d="M243.23,430.41l-.23-.3,0-.17c-6-3.56-14-8.41-19.72-12.43-4.83-8.17-11.17-19.14-15.5-27.58a113.82,113.82,0,0,1,3.57-15.48c5.66,3.64,13.29,8.39,19.2,11.61,4.65,8.52,11,19.82,16.11,28.05v0c-5.06-8.41-11.7-19.7-16.27-28.39l.07-.19c-5.92-3.36-13.76-7.94-19.4-11.74l-.05.17v0a112.46,112.46,0,0,0-3.58,15.48h0l0,.15c4.5,8.48,10.64,19.72,15.65,27.9l.2.32c5.86,4,13.78,9.11,19.94,12.59Z" style="fill:#aa002d"/><path d="M238.59,366.07c7.28,2.78,17,6.38,24.44,8.82v0c-7.3-2.49-17-5.87-24.18-8.71-3.6-9-8.32-20.95-11.49-30.08q5.35-10.45,12.1-21.84c7.17,2.35,16.75,5.43,24,7.51,3.43,9.29,8.1,21.65,11.94,30.77l0,0c-3.78-9.28-8.71-21.69-12.06-31.13l.16-.25c-7.32-2.17-17-5.13-24.27-7.6l-.14.24,0,0q-6.73,11.37-12.08,21.84l0,0-.11.22c3.31,9.19,7.84,21.41,11.6,30.43a2,2,0,0,1,.1-.21Z" style="fill:#aa002d;opacity:0.4"/><path d="M246.75,413.91c7.21,2.84,16.89,6.51,24.27,8.89v0c-7.26-2.47-16.92-5.85-24-8.77-5-8.31-11.59-19.47-16.11-28.06q3.27-9.06,8-19.19c7.21,2.74,16.86,6.31,24.18,8.72C267.7,384,274,395.33,279,403.62l0,0c-5-8.46-11.53-19.81-16.11-28.49l.12-.22c-7.38-2.52-17.2-5.95-24.44-8.82a2,2,0,0,0-.1.21v0q-4.71,10.13-8,19.19v0l-.07.19c4.69,8.62,11.09,20.05,16.27,28.39l.06-.18Z" style="fill:#aa002d;opacity:0.4"/><path d="M354.58,435.94v0c-8.67-.65-20.23-1.57-28.88-2.46-5.67-7.09-13.15-16.63-18.43-24q5.33-10.41,12-21.76c8.91,1.17,20.8,2.68,29.74,3.65,4.87,7.42,11.45,17.26,16.7,24.41l0,0c-5.22-7.31-12.07-17.14-16.89-24.71l.15-.24c-8.93-1-20.84-2.43-29.74-3.66l-.34-.05-.16.27q-6.72,11.34-12.05,21.76l0,0,.33.05c5.44,7.42,12.79,17.23,18.64,24.32,8.66.83,20.2,1.88,28.88,2.46Z" style="fill:#aa002d;opacity:0.1"/><path d="M263.64,454.61c7,2.62,16.43,6,23.61,8.15v0c-7.06-2.23-16.45-5.33-23.34-8-6.29-7.16-14.56-16.8-20.41-24.32a116.43,116.43,0,0,1,3.66-15.83c7.14,2.79,16.71,6.41,24,8.76,5.74,7.33,13.49,17,19.65,24v0C284.7,440.14,276.65,430.49,271,423l.07-.19c-7.34-2.49-17.1-5.93-24.27-8.89l-.06.18v0A116.43,116.43,0,0,0,243,429.94l0,.17.23.3c6,7.44,14,17.27,20.41,24.33v-.13Z" style="fill:#aa002d"/><path d="M311.68,493.88l-.3-.18,0-.12c-6.78-2-15.8-4.68-22.42-7.14-7.35-5.65-17.07-13.3-24-19.42a46.66,46.66,0,0,1-.74-11.88c6.94,2.58,16.24,5.91,23.33,8,6.82,5.9,16,13.67,23.18,19.11v0c-7.17-5.63-16.64-13.27-23.43-19.35l0-.15c-7.14-2.26-16.64-5.4-23.61-8.15v.15a46.78,46.78,0,0,0,.74,11.89l0,.12.28.25c7.15,6.07,16.8,14.05,24.34,19.63,6.74,2.36,15.77,5.37,22.67,7.23Z" style="fill:#aa002d"/><path d="M290.87,447.13c8,1.57,18.73,3.57,26.81,4.77v0c-8-1.28-18.6-3.06-26.51-4.7-6-7.08-14-16.61-19.63-24q3.27-9,8-19.14c8.17,1.81,19.07,4.14,27.3,5.63,5.39,7.32,12.67,17,18.46,24,0-.08.07-.15.1-.22l.33,0c-5.75-7.17-13.3-16.83-18.64-24.32l-.33-.05c-8.31-1.59-19.38-3.79-27.62-5.72l-.09.21,0,0q-4.69,10.11-8,19.16v0L271,423c5.8,7.42,13.65,17.24,19.87,24.31l.05-.17Z" style="fill:#aa002d;opacity:0.4"/><path d="M310.66,482.13c7.74,1.22,18.07,2.74,25.85,3.56v0c-7.68-.9-17.92-2.19-25.55-3.49-7.09-5.57-16.45-13.11-23.16-19.11a111.19,111.19,0,0,1,3.56-15.42c7.92,1.54,18.51,3.51,26.5,4.69,6.45,5.87,15.14,13.6,22,19v0c-6.8-5.61-15.78-13.23-22.2-19.27l.06-.18c-8.07-1.29-18.81-3.1-26.81-4.77l-.05.17v0a113.11,113.11,0,0,0-3.57,15.42v0l0,.15c6.88,6,16.17,13.84,23.43,19.35v-.13Z" style="fill:#aa002d"/><path d="M362.76,510l-.32-.11,0-.11c-7.3-.5-17-1.26-24.31-2.19-7.95-3.94-18.51-9.32-26.19-13.77a44.51,44.51,0,0,1-.69-11.29c7.64,1.19,17.85,2.68,25.55,3.48,7.39,4.26,17.34,9.83,25,13.57v0c-7.69-3.92-17.89-9.3-25.3-13.74l0-.14c-7.77-.91-18.13-2.23-25.85-3.56v.15a44.13,44.13,0,0,0,.69,11.3l0,.12.3.18c7.84,4.37,18.39,10.07,26.51,13.91,7.36.83,17.18,1.82,24.57,2.22Z" style="fill:#aa002d;opacity:0.1"/><path d="M339.87,471.19c8.48.4,19.78.85,28.27,1v0c-8.38-.18-19.56-.47-27.94-.93-6.72-5.55-15.6-13.07-21.95-19q3.11-8.58,7.57-18.19c8.66.82,20.2,1.86,28.87,2.44,5.95,5.93,14,13.75,20.3,19.27l.09-.2h.34c-6.29-5.7-14.59-13.42-20.5-19.52l-.34,0c-8.67-.64-20.23-1.56-28.88-2.46l-.33,0-.1.22q-4.47,9.6-7.58,18.21v0l-.06.18c6.51,5.94,15.31,13.77,22.2,19.27l.05-.16Z" style="fill:#aa002d;opacity:0.4"/><polygon points="186.47 330.31 183.25 345.67 174.7 328.1 169.94 297.55 173 284.84 180.95 299.86 186.47 330.31" style="fill:#aa002d;opacity:0.5"/><polygon points="180.95 299.86 187.94 283.08 185.99 253.61 178.58 241.55 172.64 255.22 173 284.84 180.95 299.86" style="fill:#aa002d;opacity:0.30000000000000004"/><polygon points="264.15 455.14 287.8 463.06 310.66 482.13 311.2 492.76 293.82 489.16 264.67 467.02 264.15 455.14" style="fill:#aa002d;opacity:0.30000000000000004"/><polygon points="208.01 390.68 211.04 373.94 200.61 343.43 186.26 330.91 183.25 345.67 193.46 374.89 208.01 390.68" style="fill:#aa002d;opacity:0.8"/><polygon points="200.61 343.43 207.96 325.29 226.89 335.85 238.49 366.28 230.91 385.95 210.67 373.69 200.61 343.43" style="fill:#aa002d;opacity:0.1"/><polygon points="264.15 455.14 243.23 430.42 246.69 414.11 271.17 423.31 291.36 447.65 287.64 462.82 264.15 455.14" style="fill:#aa002d;opacity:0.2"/><polygon points="178.55 241.04 181.4 213.3 189.3 198.26 197.17 208.13 196.19 235.63 186.21 253.88 178.55 241.04" style="fill:#aa002d;opacity:0.1"/><polygon points="224.08 223.09 223.11 194.91 238.93 173.68 258.14 178.07 261.81 205.32 243.19 228.87 224.08 223.09" style="fill:#aa002d;opacity:0.02"/><polygon points="468.95 510.28 469.14 503.69 442.52 501.65 415.25 506.43 416.26 515.18 443.71 517.41 468.95 510.28" style="fill:#aa002d;opacity:0.02"/><polygon points="207.96 325.29 200.9 294.79 212.6 274.46 232.12 282.76 239.57 314.16 226.89 335.85 207.96 325.29" style="fill:#aa002d;opacity:0.06"/><polygon points="355.16 436.21 365.76 415.74 348.74 390.49 319.77 387.74 307.28 409.44 325.7 433.48 355.16 436.21" style="fill:#aa002d;opacity:0.05"/><path d="M239.86,365.56a1.46,1.46,0,1,0,.08,2.06A1.46,1.46,0,0,0,239.86,365.56Z" style="fill:#aa002d"/><path d="M208.9,324.82a1.46,1.46,0,0,0-2,2.14,1.46,1.46,0,1,0,2-2.14Z" style="fill:#aa002d"/><path d="M349.56,390.22a1.05,1.05,0,1,0-1.43,1.54,1.05,1.05,0,0,0,1.43-1.54Z" style="fill:#aa002d"/><path d="M307.85,408.19a1.55,1.55,0,1,0,.09,2.2A1.55,1.55,0,0,0,307.85,408.19Z" style="fill:#aa002d"/><path d="M326.42,432.85a1.49,1.49,0,1,0,.07,2.1A1.49,1.49,0,0,0,326.42,432.85Z" style="fill:#aa002d"/><path d="M318.77,451.17a1.06,1.06,0,0,0-1.49.05,1.05,1.05,0,1,0,1.49-.05Z" style="fill:#aa002d"/><path d="M292.5,446.37a1.66,1.66,0,0,0-2.26,2.44,1.66,1.66,0,1,0,2.26-2.44Z" style="fill:#aa002d"/><path d="M244.43,428.62a2.13,2.13,0,1,0,.11,3A2.14,2.14,0,0,0,244.43,428.62Z" style="fill:#aa002d"/><path d="M265.89,453.92a2.13,2.13,0,1,0,.11,3A2.14,2.14,0,0,0,265.89,453.92Z" style="fill:#aa002d"/><path d="M272.07,422.13a1.44,1.44,0,0,0-2,2.11,1.44,1.44,0,1,0,2-2.11Z" style="fill:#aa002d"/><path d="M280.4,402.89a1.46,1.46,0,1,0,.08,2.07A1.46,1.46,0,0,0,280.4,402.89Z" style="fill:#aa002d"/></g></svg>