<svg xmlns="http://www.w3.org/2000/svg" viewBox="0 0 376.78 376.78"><g id="Layer_2" data-name="Layer 2"><g id="Layer_1-2" data-name="Layer 1"><rect width="376.78" height="376.78" rx="46.56" style="fill:#273b3d"/><path d="M137.65,201.24c.21,4,.41,12.82.41,12.82l1.3,7.8,21.4-3.91,2.63-7.35-.17-10a12.82,12.82,0,0,1,2.36-7.44c10.17-11.2,19-24.24,16.46-45.94-2.43-20.18-18-29.51-33.27-27.8-9.87,1.11-26.93,9.14-31.52,39-1.82,11.88.43,23.76,3,28.63C125.93,198,137.45,197.23,137.65,201.24Z" style="fill:#00deff"/><path d="M153,225.46c-3,2.11-6.63,4.78-8.06,4.45-3.17-.74-8.57-8.22-11.69-6.91-2.3,1-2.74,14,.3,18.38s8.21-6.34,11.09-6.34c3.29,0,7,8.41,9.71,8.22,3.25-.2,8.36-7.71,7.25-16.47C160.81,220.88,156.8,222.8,153,225.46Z" style="fill:#00deff"/><path d="M196.26,285.57c1.12-1.07,2.14-3.36,3-7.17,2.56-12,11.46-21.67,16.85-26.06,13.38-10.9,37.4-12.4,81.32-27.43,36.23-12.42,56.35-26.77,64.95-34.54a29.67,29.67,0,0,0,10.18-19.45c3.9-43-5.81-39.72-5.81-39.72a101.1,101.1,0,0,1-4.63,20.16,27.08,27.08,0,0,1-11,14.26c-43.5,27.86-102.52,39.15-134.72,42-34.18,3-37.38,16.19-43.81,27.31-8.41,12.19-13.26,29-16.92,53.32-4.83,32.28-3,73.49-3,73.49l-22.07.13s-6.33-24-8-87.37c-1.08-38.34,3.36-49-6-55.73a19.58,19.58,0,0,0-4.22-2.68c-8.09-5.6-20.21-10-35.43-26.05-11.71-12.33-32.3-33.87-35.21-88-.32-6.1-.49-12.21-.46-18.33,0-3.5.12-7,.3-10.51l29-64.62a2.09,2.09,0,1,0-3.74-1.86L25.28,79.29A37.78,37.78,0,0,0,21.48,86c-3.72,9.22-4.34,17.42-3.93,31,.92,29.83,10,61.4,32.52,93.05,23.9,33.53,44.15,41.43,49.11,63.36a34.36,34.36,0,0,0,1.36,4.65c-.17,21.26,3.37,53.16,9,98.75h85.94C191.19,342.79,191.61,312.83,196.26,285.57Z" style="fill:#00deff"/></g></g></svg>