<svg xmlns="http://www.w3.org/2000/svg" viewBox="0 0 2324.75 3362.27"><g id="Layer_2" data-name="Layer 2"><g id="Layer_1-2" data-name="Layer 1"><path d="M1334.09,1706.85c-18.93-45.36,3-97.47,48.45-116.46s97.68,2.2,116.62,47.56l544.25,1303.91a52.52,52.52,0,0,0,29,28.46,53.38,53.38,0,0,0,69.67-29.08,52.31,52.31,0,0,0-.12-40.51,52.84,52.84,0,0,0-17.67-22.58,50.79,50.79,0,0,0-27-9.91c-48.9-3.8-85.45-46-81.7-94.81,4.12-48.63,46.84-85.23,95.9-81.79a232.55,232.55,0,0,1,118,42.76,228.52,228.52,0,0,1,77.67,273.84A233.29,233.29,0,0,1,2004,3134.75c-54.76-22.23-101.09-65.23-125.62-124Z" style="fill:#27aae1"/><path d="M1093.9,1807.11c-18.94-45.36,2.7-97.37,48.19-116.36s97.94,2.1,116.87,47.46l544.25,1303.9c24.53,58.76,22.52,121.95-.19,176.52a233.32,233.32,0,0,1-303.1,126.51,228.58,228.58,0,0,1-140.06-247.8,232.75,232.75,0,0,1,52.56-113.94c32-37.29,88.11-41.92,125.58-10.66,37.32,31.64,41.64,87.33,10,124.77a50.63,50.63,0,0,0-12,26.18,52.87,52.87,0,0,0,3.63,28.44,52.3,52.3,0,0,0,28.72,28.57,53.35,53.35,0,0,0,69.66-29.08,52.48,52.48,0,0,0,.14-40.61Z" style="fill:#27aae1"/><path d="M784.53,495.52c281.78-117.62,604.84,13.55,721.56,293.19C1622.7,1068.08,1488.76,1390,1207,1507.62c-282.05,117.72-605.1-13.45-721.72-292.82C368.54,935.16,502.48,613.24,784.53,495.52Z" style="fill:#27aae1;fill-rule:evenodd"/><path d="M1264.25,860.9c4.12,7.66,8.08,15.69,11.52,23.94,63.9,153.09-9.7,330-164.11,394.43-154.67,64.56-332.18-7.52-396.08-160.61-56.16-134.53-6.36-287.26,111.26-366,71.64,136.54,238.21,197.75,384.3,136.77a323.42,323.42,0,0,0,53.11-28.52Z" style="fill:#fff;fill-rule:evenodd"/><path d="M1035,1799C145.51,1829.18-128.94,625,685,266,1513.5-68.32,2184.39,976.6,1534.83,1590.31l81.29,194.74h0c53.53,103.52,107.87,355.89,237.66,392.42,182.25,79.58,385.08-117.65,303-302.92-33.44-80.33-109.83-133.79-195.57-140.2-115.45-8.11-130.87,167.08-14.3,176.35a53.38,53.38,0,0,1,44.8,32.75c11.2,26.73-1.79,58-28.8,69.22-27.22,11.48-58.46-1.22-69.72-28.1L1754.4,1652C2430.64,846.35,1579.64-318,606.63,80.88c-960.2,417.66-725.69,1832.58,317.83,1917.53l138.71,332.33c18.76,42.27-27.65,87.83-69.55,69.58-32.83-11.75-43.73-57.8-20.74-83.34,74.69-90.73-58.57-201.17-135.43-113.85-55.52,65.4-71.56,157.4-37.87,237.63,74,188.6,356.89,183.15,428.47-2.41,22.86-54.93,24.61-118,.19-176.51" style="fill:#27aae1"/></g></g></svg>