<svg xmlns="http://www.w3.org/2000/svg" width="40px" height="40px" viewBox="0 0 396.91 522.47"><g id="Layer_2" data-name="Layer 2"><g id="Layer_2-2" data-name="Layer 2"><path d="M234.08,375.7a270.72,270.72,0,0,1,59.6-44L380.83,445c19.47,26.4,22.16,57.46,3.11,71.51h0c-19,14-47.92,2.31-67.39-24.09Z" style="fill:#3cf"/><path d="M293.68,331.73a237.14,237.14,0,0,0-59.6,44L209.89,338a201.91,201.91,0,0,1,54.92-40.51Z"/><path d="M264.81,297.5c-21,10.84-39.47,24.16-54.82,40.44C134,234.9,55.65,129.12,1,9.66-2.4,1.25,3.24-3.25,10.4,2.75,113,85.71,187.83,193.14,264.81,297.5Z" style="fill:#ccc"/></g></g></svg>